<svg width="80" height="80" viewBox="0 0 80 80" fill="none" xmlns="http://www.w3.org/2000/svg">
<style type="text/css">
	.st0{fill:#003C71;}
</style>
<g>
	<path class="st0" d="M64.3,43.3c-0.3,0-0.6-0.1-0.8-0.3L40.1,19.5L16.6,43c-0.4,0.4-1.1,0.4-1.6,0l-4.4-4.4c-0.4-0.4-0.4-1.1,0-1.6
		L39.1,8.3C39.3,8.1,39.6,8,39.9,8c0,0,0,0,0.1,0c0.3,0,0.6,0.1,0.8,0.3L69.5,37c0.2,0.2,0.3,0.5,0.3,0.8c0,0.3-0.1,0.6-0.3,0.8
		L65.1,43C64.9,43.2,64.6,43.3,64.3,43.3 M40.1,16.8c0.3,0,0.6,0.1,0.8,0.3l23.5,23.5l2.9-2.9L40,10.6L12.9,37.8l2.9,2.9l23.5-23.5
		C39.5,16.9,39.8,16.8,40.1,16.8"/>
	<path class="st0" d="M56.6,72c-0.2,0-0.3,0-0.4-0.1c-4.9-2.2-12.8-10-12.8-22c0-0.3,0.1-0.6,0.3-0.8c0.2-0.2,0.5-0.3,0.8-0.3
		C49,49,53.6,46,55.6,41.7c0.2-0.4,0.6-0.6,1-0.6s0.8,0.2,1,0.6c2,4.2,6.4,7.1,10.9,7.1c0.1,0,0.2,0,0.3,0c0.3,0,0.6,0.1,0.8,0.3
		c0.2,0.2,0.3,0.5,0.3,0.8c0,11.9-7.9,19.8-12.8,22C56.9,72,56.8,72,56.6,72 M45.6,51c0.5,10.2,7.3,16.8,11,18.7
		c3.7-1.9,10.6-8.4,11-18.7c-4.4-0.3-8.5-2.8-11-6.6C54.1,48.2,50,50.7,45.6,51"/>
	<path class="st0" d="M33.4,63.2H20.2c-0.6,0-1.1-0.5-1.1-1.1V42.2h2.2V61h11V40c0-0.6,0.5-1.1,1.1-1.1h13.2c0.6,0,1.1,0.5,1.1,1.1
		v5.5h-2.2v-4.4h-11v21C34.5,62.7,34,63.2,33.4,63.2"/>
	<path class="st0" d="M62.1,25.7h-2.2V13.5h-5.5v4.4h-2.2v-5.5c0-0.6,0.5-1.1,1.1-1.1H61c0.6,0,1.1,0.5,1.1,1.1V25.7z"/>
	<path class="st0" d="M55.5,62.1c-0.3,0-0.6-0.1-0.8-0.3l-4.4-4.4l1.6-1.6l3.5,3.5l5.9-7.8l1.8,1.3l-6.6,8.8
		C56.2,61.9,55.9,62.1,55.5,62.1C55.6,62.1,55.5,62.1,55.5,62.1"/>
</g>
<defs>
<clipPath id="clip0">
<rect width="80" height="80" fill="white"/>
</clipPath>
</defs>
</svg>
