<svg width="80" height="80" viewBox="0 0 80 80" fill="none" xmlns="http://www.w3.org/2000/svg">
<style type="text/css">
	.st0{fill:#0071CD;}
</style>
<g>
	<path class="st0" d="M42,35.4c1.3,0.1,1.5-1.8,0.3-1.9c-0.2,0-0.5-0.1-0.7-0.1c-3.9,0-7.7,0-11.6,0c-3.9,0-7.8,0-11.6,0
		c-1.9,0-3,1.1-3.1,3c0,4.4,0,8.9,0,13.3c0,2.8,2.1,4.8,4.8,4.8c4.2,0,8.3,0,12.5,0c0.6,0,1-0.5,1-1.1c0,0,0,0,0,0
		c-0.1-0.5-0.5-0.8-1-0.8c-4.2,0-8,0-12.4,0c-1.9,0-3-1.1-3-3c0-4.3,0-8.6,0-12.9c0-1.1,0.2-1.3,1.3-1.3c3.8,0,7.6,0,11.4,0
		c3.8,0,7.6,0,11.4,0C41.6,35.4,41.8,35.4,42,35.4z"/>
	<path class="st0" d="M20,31.7c0.2,0,0.4,0,0.6,0c6.2,0,12.4,0,18.6,0c0.3,0,0.7,0,1-0.1c0.9-0.1,1.5-0.7,1.6-1.6
		c0.1-0.7,0.1-1.4,0-2c-0.1-1.3-0.8-1.9-2.1-1.9c-3.3,0-6.6,0-9.8,0c-3.3,0-6.6,0-9.9,0c-1.2,0-1.9,0.8-2,1.9c0,0.5,0,1,0,1.4
		C18,30.9,18.6,31.6,20,31.7z M19.9,29.1c0-1.2-0.1-1.1,1.1-1.1c6.1,0,12.1,0,18.2,0c0.7,0,0.7,0,0.7,0.7c0,1.2,0.1,1-1,1
		c-3,0-5.9,0-8.9,0c-3.1,0-6.2,0-9.3,0C20.1,29.8,19.9,29.7,19.9,29.1z"/>
	<path class="st0" d="M25.6,59.1c2.3,0,4.6,0,7,0c0.5,0,0.9-0.4,0.9-0.9c0,0,0,0,0,0c0-0.5-0.4-0.9-0.9-0.9c-0.9,0-1.7,0-2.6,0
		c-1.8,0-3.7,0-5.5,0c-1,0-1.9,0.8-1.9,1.9c0,0.6,0,1.3,0,1.9c0,0.6,0.3,1.1,0.8,1.5c0.4,0.3,1,0.3,1.5,0.3c2.6,0,5.2,0,7.8,0
		c0.4,0,0.8-0.3,0.8-0.8c0-0.1,0-0.3,0-0.4l0,0c0-0.5-0.4-0.8-0.8-0.8c-1,0-1.9,0-2.9,0c-1.6,0-3.2,0-4.7,0c-0.4,0-0.6-0.1-0.6-0.6
		C24.5,58.9,24.3,59.1,25.6,59.1z"/>
	<path class="st0" d="M18.1,57.2c-1.5,0-2.8,1.2-2.8,2.7c0,1.5,1.3,2.9,2.8,2.8c1.5,0,2.8-1.2,2.8-2.8
		C20.8,58.4,19.6,57.2,18.1,57.2z M18,60.8c-0.4,0-0.8-0.4-0.8-0.9c0-0.5,0.4-0.8,0.9-0.8c0.5,0,0.8,0.3,0.8,0.8
		C18.9,60.4,18.5,60.8,18,60.8z"/>
	<path class="st0" d="M19.9,50c0.4,0,0.7-0.3,1-0.5c3.5-3.5,6.9-6.9,10.4-10.4c0.1-0.1,0.3-0.3,0.4-0.4c0.3-0.4,0.2-0.9-0.1-1.3
		c-0.3-0.3-0.8-0.4-1.2-0.1c-0.1,0.1-0.3,0.2-0.4,0.3c-3.5,3.5-7,7-10.5,10.5c-0.1,0.1-0.3,0.3-0.4,0.5C18.7,49.3,19.1,50,19.9,50z"
		/>
	<path class="st0" d="M19,43c-0.4,0.7,0.1,1.5,0.8,1.5c0.3,0,0.6-0.2,0.8-0.4c1.7-1.7,3.5-3.5,5.2-5.2c0.1-0.1,0.2-0.2,0.2-0.3
		c0.3-0.4,0.2-0.9-0.1-1.2c-0.4-0.3-0.8-0.4-1.2-0.1c-0.2,0.1-0.3,0.3-0.5,0.4c-1.6,1.6-3.2,3.2-4.9,4.9C19.3,42.7,19.2,42.9,19,43z
		"/>
	<path class="st0" d="M21.2,37.2c-0.4-0.2-0.7-0.1-1,0.1c-0.3,0.3-0.7,0.6-1,1c-0.4,0.4-0.3,0.9,0,1.3c0.3,0.4,0.9,0.4,1.3,0.1
		c0.4-0.3,0.7-0.7,1.1-1.1c0.1-0.2,0.2-0.4,0.2-0.6C21.7,37.7,21.5,37.4,21.2,37.2z"/>
	<g>
		<path class="st0" d="M56.3,14.8c0.9-2.8,3.5-4.9,6.7-4.9c3.9,0,7,3.1,7,7s-3.1,7-7,7c-2.4,0-4.6-1.3-5.8-3.1h-2.3
			c1.4,3,4.5,5.1,8.1,5.1c5,0,9-4,9-9c0-5-4-9-9-9c-4.2,0-7.8,2.9-8.7,6.9H56.3z"/>
		<path class="st0" d="M48.1,12.8c0.5,0,0.9,0.4,0.9,0.9c0,1.7,1.4,3.1,3.1,3.1h7c0.5,0,0.9,0.4,0.9,0.9v0.2c0,0.5-0.4,0.9-0.9,0.9
			H44.8c-0.4,0-0.8-0.3-0.8-0.8c0-1.8-1.4-3.2-3.2-3.2H34c-0.6,0-1-0.4-1-1s0.4-1,1-1H48.1 M48.1,10.8H34c-1.7,0-3,1.3-3,3
			s1.3,3,3,3h6.8c0.7,0,1.2,0.5,1.2,1.2c0,1.5,1.2,2.8,2.8,2.8h14.3c1.6,0,2.9-1.3,2.9-2.9v-0.2c0-1.6-1.3-2.9-2.9-2.9h-7
			c-0.6,0-1.1-0.5-1.1-1.1v0C51,12.1,49.7,10.8,48.1,10.8L48.1,10.8z"/>
		<path class="st0" d="M70.4,64.3c0.9-0.5,1.4-1.3,1.5-2.3c0.1-2.2,0.1-4.4,0-6.6c0-1.1-0.3-2.1-1-2.9c-0.3-0.4-0.2-0.6,0.1-0.9
			c0.9-0.9,1.2-2,0.7-3.2c-0.4-1.2-1.3-1.9-2.5-2.1c-0.7-0.1-1.4-0.1-2.1-0.1c-0.5,0-0.8-0.2-0.9-0.7c-0.4-1.5-0.8-3-1.3-4.5
			c-1-3.4-3.2-5.1-6.7-5.1c-3.1,0-6.3,0-9.4,0c-0.6,0-1.2,0-1.8,0.2c-2.4,0.5-4,2-4.8,4.4c-0.5,1.6-1,3.3-1.4,4.9
			c-0.2,0.6-0.5,0.8-1.1,0.8c-0.6,0-1.3,0-1.9,0.1c-1.3,0.2-2.2,0.9-2.6,2.1c-0.4,1.2-0.1,2.3,0.8,3.2c0.3,0.3,0.3,0.4,0.1,0.8
			c-0.7,0.9-1.1,2-1.1,3.1c0,2,0,4,0,6c0,1.1,0.6,2.2,1.6,2.7c0.4,0.2,0.5,0.5,0.5,0.9c0,1.3,0,2.6,0,3.9c0,0.5-0.1,0.6-0.6,0.6
			c-1.5,0-3,0-4.5,0H21.8c0-0.6,0-2.4,0-2.8c0-0.4,0.1-0.6,0.6-0.6c2,0,4,0,6,0c2.1,0,2.7,0,4.8,0c0.5,0,0.9-0.4,1-0.9c0,0,0,0,0,0
			c0.1-0.6-0.4-1-1-1c-6.3,0-12,0-18.2,0c-0.2,0-0.3,0-0.5,0c-0.5,0-0.8-0.3-0.9-0.8c0-0.1,0-0.3,0-0.4c0-11.6,0-23.2,0-34.7
			c0-1,0.3-1.7,1-2.3c0.5-0.4,1-0.5,1.6-0.6c3.1-0.5,6.2-0.8,9.4-0.9c3-0.2,6.1-0.1,9.1,0c3,0.2,5.9,0.5,8.9,0.9
			c1.6,0.2,2.7,1.2,2.7,3c0,1.6,0,3,0,4.5c0,0.8,0.7,1.5,1.5,1.5c0.4,0,0.9,0,1.4,0c1.2,0,1.3-1.9,0.1-1.9c-0.1,0-0.2,0-0.4,0
			c-0.5,0-0.6-0.2-0.6-0.6c0-1.2,0-2.5,0-3.7c0-0.9-0.3-1.7-0.7-2.4c-0.9-1.5-2.4-2-4-2.2c-3-0.4-6-0.7-9.1-0.9
			c-3.4-0.2-6.9-0.1-10.3,0.1c-2.8,0.2-5.6,0.5-8.4,0.9c-2,0.3-3.7,1.8-4,3.8c-0.2,1.4-0.1,2.8-0.1,4.3c0,0.8,0,0.8-0.8,0.8
			C9.2,32.6,8,33.7,8,35.2c0,2.8,0,5.6,0,8.4c0,1.6,1.5,2.9,3.1,2.7c0.5-0.1,0.6,0.1,0.5,0.5c0,0.2,0,0.3,0,0.5c0,5.3,0,10.7,0,16
			c0,0.9,0.2,1.9,1,2.4c0.8,0.5,0.9,1.1,0.8,1.9c0,0.2,0,1.8,0,2.3h-1.9c-0.6,0-1.1,0.5-1.1,1.1s0.5,1.1,1.1,1.1
			c9.4,0,20.3,0,29.6,0c9.7,0,19.3,0,29,0c0.3,0,0.6,0,0.9-0.1c0.5-0.1,0.8-0.4,0.8-1c0-0.6-0.3-0.9-0.8-1.1
			c-0.2-0.1-0.5-0.1-0.8-0.1c-0.4,0-0.5-0.2-0.5-0.6c0.2-1.3,0.1-2.6,0.1-4C69.9,64.8,70,64.6,70.4,64.3z M9.9,35.4
			c0-0.7,0.9-1.2,1.5-0.9c0.2,0.1,0.2,0.2,0.2,0.4c0,0.3,0,0.6,0,1c0,0,0,0,0,0c0,0,0,0.1,0,0.1c0,1.3,0,1.3-1.3,1.2
			c-0.3,0-0.4-0.1-0.4-0.4C9.9,36.3,9.9,35.8,9.9,35.4z M11.6,41.5C11.6,41.5,11.6,41.5,11.6,41.5c0,0.7,0,1.3,0,2
			c0,0.6-0.3,0.9-0.9,0.9c-0.5,0-0.8-0.3-0.8-0.9c0-1.3,0-2.6,0-3.9c0-0.4,0.2-0.5,0.5-0.5c1.4,0,1.1-0.1,1.2,1.1
			C11.6,40.6,11.6,41.1,11.6,41.5z M19.8,69.8h-4.4c0-0.7,0-2.5,0-2.9c0-0.5,0.3-0.5,0.9-0.4c0.9,0.1,1.8,0.1,2.7,0
			c0.6-0.1,0.9,0,0.9,0.4C19.8,67.3,19.8,69.1,19.8,69.8z M68.1,48.5c0.3,0,0.6,0,0.8,0.1c0.5,0.1,0.8,0.4,0.8,0.9
			c0,0.5-0.3,0.9-0.9,0.9c-0.2,0-0.5,0-0.7,0c-0.4,0-0.6-0.1-0.7-0.5c0-0.1-0.1-0.2-0.1-0.3C66.9,48.3,66.9,48.5,68.1,48.5z
			 M41.8,49.4c0.7-2.6,1.5-5.2,2.2-7.7c0.7-2.4,2-3.4,4.6-3.4c3.2,0,6.5,0,9.7,0c2.4,0,3.8,1,4.4,3.3c0.8,2.7,1.5,5.4,2.3,8.1
			c0.2,0.7,0.2,0.7-0.5,0.7c-3.7,0-7.4,0-11.1,0c-3.6,0-7.2,0-10.9,0C41.6,50.4,41.6,50.3,41.8,49.4z M37.9,48.5
			c0.3-0.1,0.5,0,0.8-0.1c1.1,0,1.1,0,0.7,1.3c-0.2,0.7-0.6,0.6-1.1,0.6c-0.5,0-1,0-1.2-0.6C37,49.2,37.3,48.7,37.9,48.5z
			 M42.1,68.7c0,0.8-0.4,1.1-1.1,1.1c-0.2,0-0.4,0-0.6,0c-0.9,0-1.2-0.3-1.2-1.2c0,0,0-0.1,0-0.1c0-0.4,0-0.9,0-1.3c0,0,0,0,0,0
			c0-0.6,0-1.1,0-1.7c0-0.4,0.2-0.5,0.5-0.5c0.6,0,1.2,0,1.8,0c0.4,0,0.5,0.2,0.5,0.5C42.1,66.5,42.1,67.6,42.1,68.7z M62,69.8
			c-2.2,0-4.3,0-6.5,0c-0.7,0-1.4,0-2,0c-2.8,0-5.7,0-8.5,0c-0.8,0-0.7,0-0.7-0.8c0.1-1.1,0.1-2.3,0-3.4c0-0.5,0.1-0.8,0.7-0.8
			c5.6,0,11.2,0,16.9,0c0.5,0,0.7,0.2,0.7,0.7c0,1.3,0,2.6,0,3.8C62.6,69.9,62.3,69.8,62,69.8z M67.6,68.7c0,0.7-0.4,1-1.1,1
			c-0.1,0-0.3,0-0.4,0c-1.2,0-1.4-0.2-1.4-1.4c0-0.4,0-0.8,0-1.3c0-0.6,0-1.1,0-1.7c0-0.4,0.1-0.6,0.6-0.6c0.6,0,1.2,0,1.8,0
			c0.4,0,0.5,0.1,0.5,0.5C67.6,66.5,67.7,67.6,67.6,68.7z M68.3,62.6c-5,0-9.9,0-14.9,0c-4.9,0-9.8,0-14.8,0c-1.3,0-1.5-0.2-1.5-1.5
			c0-1.8,0-3.6,0-5.4c0-2,1.2-3.2,3.2-3.2c8.7,0,17.4,0,26.1,0c2,0,3.2,1.3,3.2,3.2c0,1.8,0,3.6,0,5.4
			C69.7,62.4,69.4,62.6,68.3,62.6z"/>
	</g>
	<path class="st0" d="M47.6,48.2c0.5,0.5,1.1,0.4,1.6-0.1c2-1.9,3.9-3.9,5.9-5.9c0.2-0.2,0.4-0.5,0.4-0.8c0-0.5-0.2-0.8-0.6-1
		c-0.5-0.2-0.9,0-1.3,0.4c-1.9,1.9-3.9,3.9-5.8,5.8C47.1,47.1,47.1,47.7,47.6,48.2z"/>
	<path class="st0" d="M46.2,44.4c0.3,0,0.5,0,0.7-0.2c0.8-0.7,1.6-1.5,2.3-2.3c0.3-0.4,0.3-0.9-0.1-1.3c-0.4-0.4-0.9-0.5-1.3-0.1
		c-0.8,0.7-1.6,1.5-2.3,2.3c-0.3,0.3-0.3,0.7-0.1,1.1C45.5,44.2,45.8,44.3,46.2,44.4z"/>
	<path class="st0" d="M46.7,55.4c-1.8-0.3-3.6-0.6-5.4-0.8c-1.3-0.1-2.2,0.8-2.3,2.2c0,0.6,0,1.1,0,1.7c0,1.4,0.9,2.2,2.3,2.2
		c0.8,0,1.6,0,2.4,0c0,0,0,0,0,0c0.9,0,1.7,0,2.6,0c1,0,1.8-0.7,2-1.6c0.1-0.7,0.2-1.3,0-2C48.1,56.3,47.6,55.6,46.7,55.4z
		 M45.6,58.5c-0.6,0-1.2,0-1.8,0c-0.6,0-1.3,0-1.9,0c-0.6,0-0.6-0.2-0.6-1.1c0-0.5,0.3-0.5,0.7-0.5c1.2,0.2,2.5,0.4,3.7,0.5
		c0.4,0.1,0.6,0.2,0.5,0.6C46.2,58.5,45.9,58.5,45.6,58.5z"/>
	<path class="st0" d="M65.2,54.7c-1.6,0.2-3.2,0.4-4.9,0.7c-1.2,0.2-1.9,1-1.9,2.3c0,0.3,0,0.6,0,1c0,1.3,0.9,2.1,2.2,2.1
		c0.8,0,1.7,0,2.5,0c0.9,0,1.7,0,2.6,0c1.1,0,1.9-0.7,2.1-1.8c0.1-0.7,0.1-1.4,0-2.1C67.6,55.3,66.7,54.5,65.2,54.7z M65.6,57.4
		c0,0.1,0,0.1,0,0.2c0,0.9,0,0.9-0.9,0.9c-0.5,0-1.1,0-1.6,0c-0.6,0-1.2,0-1.8,0c-0.3,0-0.6,0-0.6-0.4c0-0.4,0.1-0.6,0.5-0.6
		c1.3-0.2,2.6-0.3,3.8-0.5C65.5,56.8,65.7,57,65.6,57.4z"/>
	<path class="st0" d="M55.5,54.5c-1.4-0.1-2.8-0.1-4.1,0c-0.7,0-1.1,0.6-1.1,1.1c0,0.6,0.5,1,1.2,1c0.6,0,1.3,0,1.9,0
		c0.7,0,1.3,0,2,0c0.7,0,1.1-0.4,1.2-1C56.5,55,56.2,54.6,55.5,54.5z"/>
	<path class="st0" d="M55.4,58.6c-1.3-0.1-2.6,0-3.9,0c-0.7,0-1.2,0.5-1.1,1.1c0,0.6,0.5,1,1.2,1c0.6,0,1.3,0,1.9,0
		c0.6,0,1.2,0,1.8,0c0.8,0,1.2-0.4,1.2-1C56.5,59.1,56.1,58.6,55.4,58.6z"/>
</g>
</svg>
