<svg width="80" height="80" viewBox="0 0 80 80" fill="none" xmlns="http://www.w3.org/2000/svg">
<path fill="#38AFC7" d="M61.8,72.6c-14.7,0-29.3,0-44,0c-1.1-0.5-1.6-1.3-1.5-2.5c0-0.7,0-1.3,0-2c0-0.5-0.2-0.7-0.7-0.7
		c-2.4-0.1-3.6-1.4-3.6-3.7c0-10.2,0-20.5,0-30.7c0-0.8,0-0.8-0.8-0.8c-0.2,0-0.4,0-0.6,0c-1.5-0.2-2.3-1.1-2.8-2.5c0-0.5,0-1,0-1.5
		c0.3-1,1-1.8,2-2.3c2.8-1.8,5.7-3.6,8.5-5.4c5.4-3.4,10.8-6.9,16.2-10.3c2.1-1.3,4.4-1.8,6.9-1.4c1.4,0.2,2.7,0.8,3.9,1.6
		c2.6,1.6,5.1,3.3,7.7,4.9c0.2,0.1,0.3,0.3,0.5,0.2c0.2-0.1,0.1-0.3,0.1-0.5c0-0.6,0-1.3,0-1.9c0-1.2,0.9-2.1,2.1-2.1
		c1.5,0,2.9,0,4.4,0c1.1,0,1.9,0.8,2.1,1.9c0.1,0.3,0.1,0.7,0.1,1c0,2.2,0,4.4,0,6.6c0,0.6,0.2,1,0.7,1.3c1.8,1.1,3.5,2.2,5.2,3.3
		c0.8,0.5,1.6,1,2.3,1.5c1.2,0.9,1.6,2.3,1.2,3.7c-0.5,1.3-1.8,2.3-3.2,2.2c-0.9,0-0.9,0-0.9,0.9c0,10.2,0,20.4,0,30.6
		c0,0.4,0,0.8-0.1,1.1c-0.3,1.6-1.6,2.6-3.4,2.6c-0.6,0-0.8,0.2-0.8,0.8c0,0.6,0,1.2,0,1.9C63.4,71.3,62.9,72.1,61.8,72.6z
		 M14.4,47.6c0,5.3,0,10.5,0,15.8c0,0.3,0,0.6,0,0.9c0.1,0.6,0.5,0.8,1.3,0.8c0.6,0,0.6-0.4,0.6-0.8c0.4-2.5,1.6-4.5,3.8-5.7
		c0.4-0.2,0.3-0.4,0.1-0.7c-1.5-1.6-2.1-3.4-1.7-5.6c0.4-2.7,2.5-4.8,5.1-5.3c2.7-0.5,5.4,0.7,6.8,3c1.4,2.3,1.2,5.3-0.5,7.4
		c-0.7,0.9-0.7,0.8,0.2,1.5c0.4,0.3,0.6,0.2,0.7-0.2c0.7-1.5,1.8-2.6,3.3-3.4c0.7-0.4,0.7-0.4,0.1-1c-2.3-2.5-2.7-6.1-1-9
		c1.7-2.9,5.1-4.3,8.3-3.5c2.8,0.7,4.6,2.5,5.4,5.2c0.8,2.8,0.1,5.3-1.9,7.4c-0.4,0.4-0.3,0.5,0.1,0.7c1.4,0.7,2.5,1.7,3.2,3
		c0.5,0.9,0.5,0.9,1.5,0.4c0.5-0.2,0.4-0.4,0.1-0.8c-1.5-1.6-2.1-3.5-1.7-5.6C49,49,52,46.7,55.4,47c3.1,0.2,5.8,3,5.9,6.2
		c0.1,1.8-0.6,3.4-1.8,4.8c-0.2,0.2-0.4,0.4,0,0.6c2.4,1.3,3.7,3.4,4,6.1c0,0.3,0.2,0.5,0.5,0.5c1,0.1,1.5-0.3,1.5-1.4
		c0-10.7,0-21.5,0-32.2c0-0.5-0.2-0.9-0.6-1.2c-7.7-4.8-15.3-9.7-22.9-14.5c-1.3-0.8-2.5-0.8-3.8,0c-7.6,4.8-15.1,9.6-22.7,14.4
		c-0.6,0.4-0.8,0.8-0.8,1.6C14.4,37,14.4,42.3,14.4,47.6z M32.5,65.3C32.5,65.3,32.5,65.3,32.5,65.3c0,1.4,0,2.7,0,4.1
		c0,0.6,0.4,0.9,0.9,1c0.6,0,1-0.3,1-1c0-0.2,0-0.4,0-0.6c0-2.1,0-4.1,0-6.2c0-0.2,0-0.4,0-0.6c0-0.7,0.5-1.2,1.1-1.2
		c0.6,0,1.1,0.4,1.2,1.1c0,0.5,0,1,0,1.4c0,2.2,0.1,4.4-0.1,6.6c0,0.4,0.2,0.4,0.5,0.4c1.6,0,3.2,0,4.7,0c1.1,0,1.1,0,1.1-1.1
		c0-0.1,0-0.2,0-0.2c0-2.2,0-4.5,0-6.7c0-0.2,0-0.5,0.1-0.7c0.2-0.5,0.5-0.8,1.1-0.8c0.5,0,0.9,0.3,1.1,0.8c0.1,0.3,0.1,0.5,0.1,0.8
		c0,2.2,0,4.5,0,6.7c0,0.8,0.4,1.2,1,1.2c0.6,0,0.9-0.4,0.9-1.1c0-2.5,0-5.1,0-7.6c-0.1-2.4-2-4.5-4.4-4.8c-1.7-0.2-3.5-0.1-5.2-0.1
		c-3.2,0.1-5.3,2.8-5.1,5.6C32.5,63.3,32.5,64.3,32.5,65.3z M69.6,28.8c0-0.5-0.4-0.8-0.9-1C60.5,22.6,52.2,17.4,44,12.2
		c-2.8-1.7-5.6-1.7-8.4,0C27.4,17.4,19.2,22.6,11,27.8c-0.2,0.1-0.4,0.2-0.6,0.4C10,28.5,10,29,10.3,29.5c0.3,0.5,0.7,0.5,1.2,0.3
		c0.2-0.1,0.4-0.2,0.6-0.3c8.2-5.2,16.3-10.3,24.5-15.5c2.2-1.4,4.4-1.4,6.6,0C51.1,19,59,24,66.9,29c0.4,0.3,0.8,0.5,1.2,0.7
		C68.8,30.1,69.6,29.7,69.6,28.8z M45.1,49.2c0-2.9-2.3-5.2-5.1-5.3c-3,0-5.3,2.2-5.3,5.2c0,2.9,2.3,5.3,5.2,5.3
		C42.7,54.4,45,52.1,45.1,49.2z M30.2,66.3c0-1.2-0.1-2.1,0-3c0.2-1.3-0.5-2.1-1.6-2.7c-0.5-0.3-1-0.5-1.6-0.6
		c-1.2-0.2-2.5-0.2-3.7-0.1c-2.4,0.1-4.5,2.2-4.7,4.5c-0.1,1.8,0,3.7,0,5.5c0,0.3,0.1,0.5,0.4,0.5c1.3,0.2,1.5,0,1.5-1.2
		c0-1.3,0-2.6,0-3.9c0-0.8,0.5-1.2,1.1-1.2c0.6,0,1.1,0.5,1.2,1.2c0,0.2,0,0.5,0,0.7c0,1.3,0,2.6,0,3.9c0,0.5,0.2,0.6,0.6,0.6
		c0.9,0,1.8,0,2.7,0c0.6,0,0.8-0.2,0.8-0.8c0-1.4,0-2.9,0-4.3c0-0.8,0.5-1.3,1.2-1.3c0.7,0,1.1,0.5,1.1,1.4c0,1.4,0,2.7,0,4.1
		c0,0.2,0,0.4,0,0.6c0.1,0.4,0.4,0.4,0.6,0.3c0.3,0,0.4-0.1,0.3-0.4C30.1,68.7,30.2,67.4,30.2,66.3z M49.5,66.1
		C49.5,66.1,49.5,66.1,49.5,66.1c0,1.3,0,2.5,0,3.8c0,0.3-0.1,0.5,0.3,0.6c0.4,0,0.6-0.1,0.6-0.5c0-0.3,0-0.6,0-0.9
		c0-1.2,0-2.5,0-3.7c0-0.7,0.5-1.2,1.1-1.2c0.6,0,1.1,0.4,1.2,1.1c0,0.2,0,0.4,0,0.6c0,1.3,0,2.6,0,3.9c0,0.5,0.2,0.7,0.7,0.7
		c0.9,0,1.7,0,2.6,0c0.5,0,0.7-0.2,0.7-0.7c0-1.4,0-2.7,0-4.1c0-1,0.4-1.6,1.1-1.6c0.7,0,1.2,0.6,1.2,1.6c0,1.2,0,2.4,0,3.6
		c0,1.2,0,1.2,1.2,1.2c0.5,0,0.7-0.2,0.7-0.7c0-1.6,0-3.2,0-4.8c0-2.4-1.8-4.4-4.1-4.9c-1.1-0.2-2.3-0.1-3.4-0.1
		c-1.4,0-2.6,0.6-3.6,1.5c-0.3,0.3-0.5,0.7-0.5,1.2C49.5,63.8,49.5,64.9,49.5,66.1z M54.8,49.3c-2.4,0-4.2,1.8-4.2,4.1
		c0,2.4,1.8,4.2,4.1,4.2c2.4,0,4.2-1.8,4.2-4.1C58.9,51.1,57.1,49.3,54.8,49.3z M24.9,49.3c-2.3,0-4.2,1.8-4.2,4.1
		c0,2.3,1.8,4.2,4.1,4.2c2.4,0,4.2-1.8,4.2-4.2C29.1,51.1,27.3,49.3,24.9,49.3z M60,16.4c0-0.9,0-1.8,0-2.7c0-0.4-0.2-0.6-0.6-0.6
		c-1,0-1.9,0-2.9,0c-0.5,0-0.7,0.2-0.7,0.7c0,0.9,0,1.9,0,2.8c0,0.3,0.1,0.5,0.4,0.7c1.1,0.7,2.2,1.4,3.3,2.1
		c0.4,0.3,0.4,0.1,0.4-0.3C60,18.2,60,17.3,60,16.4z"/>
	<path fill="#38AFC7" d="M30.7,29.1c0.2-1.8,0.4-3.7,0.6-5.6c0.1-0.7,0.6-1,1.3-1.2c1.6-0.3,3.1-1,4.5-1.9c0.7-0.5,1.3-1.1,1.9-1.7
		c0.6-0.7,1.3-0.7,1.9,0c1.7,2,3.8,3.1,6.3,3.7c1.1,0.3,1.3,0.6,1.4,1.6c0.1,1.4,0.3,2.9,0.4,4.3c0.3,3.9-1.2,7-4.5,9.2
		c-1.2,0.8-2.6,1.4-3.9,2c-0.4,0.2-0.8,0.2-1.2,0c-1.3-0.6-2.6-1.2-3.8-1.9C32.3,35.7,30.9,32.8,30.7,29.1z M33,29.1
		c0.1,2.9,1.3,5.2,3.9,6.6c0.8,0.5,1.7,0.9,2.6,1.3c0.3,0.1,0.5,0.1,0.8,0c0.9-0.4,1.8-0.8,2.6-1.3c2.5-1.5,3.8-3.7,3.8-6.6
		c0-1.4-0.2-2.8-0.4-4.2c0-0.3-0.2-0.5-0.5-0.5c-2.1-0.6-4-1.6-5.6-3c-0.2-0.2-0.4-0.2-0.6,0c-1.7,1.5-3.6,2.5-5.7,3.1
		c-0.2,0.1-0.4,0.2-0.4,0.5C33.3,26.3,33.1,27.7,33,29.1z"/>
	<path fill="#38AFC7" d="M44.1,26.8c0,0.3-0.2,0.6-0.3,0.8c-1.3,1.7-2.6,3.3-4,5c-0.6,0.8-1.3,0.8-2,0.1c-0.6-0.6-1.2-1.2-1.8-1.8
		c-0.5-0.6-0.6-1.2-0.1-1.7c0.5-0.5,1.1-0.4,1.7,0.1c0,0,0.1,0.1,0.1,0.1c1,1,1,1,1.9-0.1c0.8-1,1.5-1.9,2.3-2.9
		c0.2-0.2,0.3-0.4,0.5-0.5c0.4-0.3,0.8-0.3,1.2-0.1C44,26,44.2,26.4,44.1,26.8z"/>
        </svg>
