<svg width="80" height="80" viewBox="0 0 80 80" fill="none" xmlns="http://www.w3.org/2000/svg">
<style type="text/css">
	.st0{fill:#003C71;}
</style>
<g>
	<g>
		<g>
			<path class="st0" d="M42,5c1.1,0.4,2.1,1,2.7,2.1c0.7,1.4,0.6,2.8,0.5,4.3c-0.1,0.6-0.6,0.9-1.1,0.8c-0.5,0-0.9-0.4-1-1
				c0-0.6,0-1.2,0-1.8c0-1.4-0.7-2.1-2.1-2.2c-0.2,0-0.3,0-0.5,0c-10.4,0-20.8,0-31.1,0c-0.3,0-0.5,0-0.8,0C7.4,7.3,6.7,8,6.7,9.2
				c0,0.2,0,0.3,0,0.5c0,15.9,0,31.7,0,47.6c0,1.5,0.3,3,1.3,4.3c1.9,2.5,5.4,3.1,8,1.4c2.5-1.6,3.5-5,2.1-7.8
				c-0.4-0.7-0.8-1.5-0.7-2.3c0.1-1.8,1.5-3.2,3.5-3.2c2.7,0,5.3,0,8,0c4.5,0,9,0,13.4,0c0.8,0,0.8,0,0.8-0.8c0-1,0-2,0-3
				c0-0.8,0.4-1.3,1-1.3c0.6,0,1.1,0.5,1.1,1.3c0,1.1,0,2.1,0,3.2c0,0.5,0.2,0.6,0.6,0.6c1.2,0,2.4-0.1,3.6,0.2
				c3.1,0.6,5.3,3.1,5.8,6.5c0.7,4.8-1.9,8.6-6.6,9.7c-0.1,0-0.1,0-0.2,0.1c-12.4,0-24.7,0-37.1,0c-0.2-0.1-0.5-0.1-0.7-0.2
				c-3.6-1-6.1-4.1-6.1-7.8c0-16.3,0-32.6,0-49c0-0.5,0.1-0.9,0.2-1.3C5.2,6.3,6.3,5.5,7.7,5C19.1,5,30.6,5,42,5z M18.3,63.9
				c0.3,0,0.4,0,0.6,0c9.3,0,18.5,0,27.8,0c0.6,0,1.2,0,1.8-0.2c3.2-0.7,5.2-3.8,4.7-7.1c-0.5-2.9-2.3-5-5.8-4.9
				c-3.6,0.1-7.3,0-10.9,0c-5.1,0-10.2,0-15.3,0c-0.3,0-0.6,0-0.9,0.1c-0.7,0.3-0.9,1-0.5,1.8c1.1,1.9,1.4,3.9,0.9,6.1
				C20.3,61.3,19.5,62.7,18.3,63.9z"/>
			<path class="st0" d="M65.5,30.1c-0.3,1.8-0.7,3.6-1.6,5.2c-2.7,5-6.9,7.9-12.6,8.3c-7.8,0.6-14.8-5-16.1-12.9
				c-1.4-8.6,4.8-16.7,13.4-17.6c7.9-0.9,15,4.3,16.7,12c0.1,0.4,0.2,0.9,0.3,1.3C65.5,27.8,65.5,28.9,65.5,30.1z M50.3,15.3
				c-6.7-0.1-13.2,5.2-13.2,13.1c0,7.5,6,13.1,13,13.1c7.3,0.1,13.2-5.8,13.2-13.2C63.4,20.8,57.1,15.2,50.3,15.3z"/>
			<path class="st0" d="M26.2,46.7c-0.7,0-1.3,0-2,0c-1.2,0.1-2.2-0.3-3.1-1.1c-0.9-0.8-1-0.7-2-0.1c-0.4,0.3-0.9,0.6-1.4,0.8
				c-1.2,0.3-2.4,0-3.2-1c-0.5-0.7-0.9-0.7-1.5-0.2c-0.5,0.4-1,0.9-1.5,1.3c-0.6,0.5-1.2,0.5-1.6,0c-0.4-0.5-0.4-1.1,0.2-1.6
				c0.6-0.5,1.1-1,1.8-1.5c1.4-1.1,3.1-0.9,4.2,0.5c0.5,0.6,0.9,0.6,1.5,0.2c0.3-0.2,0.5-0.3,0.7-0.5c1.2-0.9,2.5-0.9,3.6,0.1
				c1,0.9,2.2,1.1,3.5,1c1-0.1,2,0,3,0c0.2,0,0.5,0,0.7,0.1c0.6,0.1,1,0.6,0.9,1.1c-0.1,0.6-0.5,1-1.1,1
				C28,46.7,27.1,46.7,26.2,46.7C26.2,46.7,26.2,46.7,26.2,46.7z"/>
			<path class="st0" d="M33.5,14.2c-2.2,0-4.3,0-6.5,0c-0.5,0-0.8-0.2-1.1-0.6c-0.2-0.4-0.1-0.7,0.1-1.1c0.3-0.4,0.7-0.5,1.2-0.5
				c0.8,0,1.6,0,2.4,0c3.3,0,6.5,0,9.8,0c0.3,0,0.6,0,0.9,0.1c0.6,0.1,0.9,0.6,0.8,1.1c0,0.5-0.4,0.9-1,1c-0.6,0-1.1,0-1.7,0
				C36.8,14.2,35.1,14.2,33.5,14.2C33.5,14.2,33.5,14.2,33.5,14.2z"/>
			<path class="st0" d="M16.8,17.1c1.9,0,3.8,0,5.6,0c0.3,0,0.5,0,0.8,0.1c0.5,0.2,0.7,0.5,0.7,1c0,0.5-0.2,0.8-0.7,1
				c-0.3,0.1-0.6,0.1-0.9,0.1c-3.7,0-7.4,0-11.2,0c-0.2,0-0.4,0-0.6,0c-0.6-0.1-1-0.6-0.9-1.1c0-0.5,0.5-1,1.1-1c0.5,0,1.1,0,1.6,0
				C13.8,17.1,15.3,17.1,16.8,17.1z"/>
			<path class="st0" d="M16.8,32.4c1.9,0,3.8,0,5.6,0c0.3,0,0.5,0,0.8,0.1c0.5,0.2,0.7,0.5,0.7,1c0,0.5-0.2,0.8-0.7,1
				c-0.3,0.1-0.6,0.1-0.9,0.1c-3.7,0-7.4,0-11.2,0c-0.2,0-0.4,0-0.6,0c-0.6-0.1-1-0.6-0.9-1.1c0-0.5,0.5-1,1.1-1c0.6,0,1.1,0,1.7,0
				C13.8,32.4,15.3,32.4,16.8,32.4z"/>
			<path class="st0" d="M16.7,14.2c-1.9,0-3.9,0-5.8,0c-0.4,0-0.8-0.1-1.1-0.4c-0.5-0.6-0.2-1.4,0.5-1.7c0.3-0.1,0.6-0.1,0.9-0.1
				c3.7,0,7.4,0,11.2,0c0.2,0,0.5,0,0.7,0.1c0.6,0.1,0.9,0.6,0.8,1.1c0,0.5-0.4,0.9-1,1c-0.8,0-1.6,0-2.4,0
				C19.2,14.2,17.9,14.2,16.7,14.2z"/>
			<path class="st0" d="M16.8,29.5c-1.9,0-3.9,0-5.8,0c-0.4,0-0.8,0-1-0.3c-0.5-0.6-0.3-1.5,0.4-1.7c0.3-0.1,0.6-0.1,0.9-0.1
				c3.7,0,7.4,0,11.2,0c0.2,0,0.4,0,0.5,0c0.7,0.1,1.1,0.6,1,1.2c0,0.6-0.5,1-1.1,1c-0.8,0-1.5,0-2.3,0C19.3,29.5,18,29.5,16.8,29.5
				z"/>
			<path class="st0" d="M16.7,22.2c2,0,4,0,5.9,0c0.8,0,1.2,0.4,1.2,1c0,0.6-0.3,0.9-0.8,1.1c-0.3,0.1-0.7,0.1-1,0.1
				c-3.6,0-7.1,0-10.7,0c-0.3,0-0.6,0-0.8-0.1c-0.6-0.1-1-0.6-1-1.1c0.1-0.6,0.5-1,1.1-1C12.7,22.2,14.7,22.2,16.7,22.2z"/>
			<path class="st0" d="M16.7,37.5c2,0,3.9,0,5.9,0c0.8,0,1.3,0.3,1.3,1c0,0.7-0.4,1.1-1.2,1.2c-1,0-2.1,0-3.1,0c-2.7,0-5.4,0-8,0
				c-0.3,0-0.6,0-0.9-0.1c-0.6-0.1-1-0.6-1-1.1c0-0.6,0.5-1,1.1-1C12.7,37.5,14.7,37.5,16.7,37.5C16.7,37.5,16.7,37.5,16.7,37.5z"/>
			<path class="st0" d="M31,37.5c1.3,0,2.5,0,3.8,0c0.8,0,1.3,0.4,1.3,1c0,0.7-0.4,1.1-1.3,1.1c-1.3,0-2.6,0-3.9,0
				c-1.2,0-2.3,0-3.5,0c-0.3,0-0.5,0-0.8-0.1c-0.6-0.1-1-0.6-0.9-1.1c0-0.6,0.5-1,1.1-1C28.3,37.5,29.6,37.5,31,37.5
				C31,37.5,31,37.5,31,37.5z"/>
			<path class="st0" d="M30.9,19.3c-1.2,0-2.4,0-3.6,0c-0.2,0-0.4,0-0.5,0c-0.6-0.1-1-0.5-1-1.1c0-0.5,0.4-1,1-1.1
				c0.4,0,0.7,0,1.1,0c2.2,0,4.3,0,6.5,0c0.2,0,0.3,0,0.5,0c0.8,0,1.3,0.4,1.3,1.1c0,0.7-0.5,1.1-1.3,1.1
				C33.5,19.3,32.2,19.3,30.9,19.3z"/>
			<path class="st0" d="M29.8,22.2c0.9,0,1.9,0,2.8,0c0.7,0,1.1,0.4,1.2,1c0,0.6-0.3,1.1-1,1.1c-1.9,0.1-3.9,0.1-5.8,0
				c-0.7,0-1.1-0.5-1.1-1.1c0-0.6,0.5-1,1.2-1C28,22.2,28.9,22.2,29.8,22.2z"/>
			<path class="st0" d="M29.8,34.6c-0.9,0-1.7,0-2.6,0c-0.8,0-1.4-0.4-1.4-1.1c0-0.7,0.5-1.1,1.3-1.1c1.7,0,3.5,0,5.2,0
				c0.9,0,1.3,0.4,1.4,1.1c0,0.7-0.5,1.1-1.4,1.1C31.5,34.6,30.7,34.6,29.8,34.6z"/>
			<path class="st0" d="M29.4,29.5c-0.8,0-1.6,0-2.4,0c-0.7,0-1.1-0.4-1.2-1c0-0.6,0.4-1.1,1-1.1c1.7,0,3.4,0,5.1,0
				c0.7,0,1.1,0.5,1.1,1.1c0,0.6-0.5,1-1.2,1C31.1,29.5,30.2,29.5,29.4,29.5z"/>
			<path class="st0" d="M34,46.7c-0.4,0-0.7,0-1.1,0c-0.6,0-1-0.4-1-1c0-0.5,0.3-1,0.9-1.1c0.8-0.1,1.7-0.2,2.5,0
				c0.5,0.1,0.9,0.6,0.8,1.1c0,0.5-0.5,1-1,1C34.7,46.8,34.4,46.7,34,46.7z"/>
		</g>
		<g>
			<path class="st0" d="M51.3,29.2c0,1.5,0,3,0,4.5c0,0.5,0.2,0.7,0.6,0.6c0.7,0,1.5,0,2.2,0c0.7,0,1.2,0.4,1.2,1c0,0.6-0.4,1-1,1.1
				c-0.2,0-0.5,0-0.7,0c-2.3,0-4.5,0-6.8,0c-0.3,0-0.5,0-0.8-0.1c-0.6-0.1-1-0.6-1-1.1c0-0.6,0.5-1,1.1-1c0.8,0,1.5,0,2.3,0
				c0.5,0,0.6-0.2,0.6-0.6c0-3,0-6.1,0-9.1c0-0.4-0.1-0.6-0.4-0.8c-0.5-0.2-0.9-0.6-1.1-1.1c-0.2-0.4-0.4-0.5-0.8-0.5
				c-1.5,0-1.5,0-1.5,1.5c0,0.7,0,1.3,0,2c0,0.3,0.1,0.5,0.4,0.6c1,0.3,1.6,1,1.6,2.1c0,1,0,2-0.7,2.8c-0.8,1-2.1,1.4-3.4,1.1
				c-1.2-0.4-2.1-1.5-2.2-2.8c0-0.4,0-0.9,0-1.3c0-0.9,0.6-1.7,1.5-1.9c0.4-0.1,0.5-0.3,0.5-0.7c0-0.9,0-1.8,0-2.7
				c0-0.5-0.2-0.7-0.7-0.7c-0.1,0-0.3,0-0.4,0c-0.5-0.1-0.9-0.5-0.9-1c0-0.5,0.3-0.9,0.8-1.1c0.2-0.1,0.5-0.1,0.7-0.1
				c1.4,0,2.7,0,4.1,0c0.4,0,0.6-0.1,0.9-0.5c1.3-2.1,4-2.1,5.3,0c0.2,0.3,0.4,0.4,0.8,0.4c1.4,0,2.7,0,4.1,0c0.2,0,0.5,0,0.7,0.1
				c0.6,0.1,0.9,0.6,0.9,1.1c0,0.5-0.4,0.9-1,1c-1,0.1-1,0.1-1,1.2c0,0.7,0,1.5,0,2.2c0,0.4,0.1,0.6,0.5,0.7c1,0.2,1.5,1,1.5,2
				c0,0.3,0,0.6,0,0.8c0,1.9-1.2,3.2-3,3.3c-1.9,0-3.2-1.3-3.3-3.2c0-0.3,0-0.6,0-0.9c0.1-1,0.6-1.7,1.6-2c0.3-0.1,0.5-0.2,0.5-0.6
				c0-1,0-1.9,0-2.9c0-0.4-0.1-0.6-0.5-0.5c-0.1,0-0.3,0-0.4,0c-0.7-0.1-1.3,0-1.6,0.8c-0.2,0.4-0.5,0.6-0.9,0.8
				c-0.4,0.2-0.5,0.5-0.5,0.9C51.3,26.2,51.3,27.7,51.3,29.2z M55.4,28.9c0,0.8,0.4,1.3,1,1.3c0.6,0,0.9-0.4,0.9-1.2
				c0-0.5-0.1-0.7-0.7-0.7C55.4,28.3,55.4,28.3,55.4,28.9z M44.2,28.3c-1,0-1,0-1,0.7c0,0.8,0.3,1.2,0.9,1.2c0.6,0,0.9-0.5,0.9-1.2
				C45.1,28.3,45.1,28.3,44.2,28.3z M50.2,20.2c-0.5,0-0.9,0.4-1,0.9c0,0.5,0.4,0.9,0.9,0.9c0.5,0,0.9-0.3,0.9-0.9
				C51.2,20.7,50.8,20.3,50.2,20.2z"/>
		</g>
	</g>
</g>
<defs>
<clipPath id="clip0">
<rect width="80" height="80" fill="white"/>
</clipPath>
</defs>
</svg>
