<?xml version="1.0" encoding="utf-8"?>
<!-- Generator: Adobe Illustrator 27.7.0, SVG Export Plug-In . SVG Version: 6.00 Build 0)  -->
<svg version="1.1" id="Capa_1" xmlns="http://www.w3.org/2000/svg" xmlns:xlink="http://www.w3.org/1999/xlink" x="0px" y="0px"
	 viewBox="0 0 80 80" style="enable-background:new 0 0 80 80;" xml:space="preserve">
<style type="text/css">
	.st0{fill:#0071CD;}
</style>
<g>
	<path class="st0" d="M69.6,72.5c-19.8,0-39.5,0-59.2,0c-1.2-0.4-2-1.2-2.4-2.4c0-1.2,0-2.5,0-3.8c0.4-1.1,1.1-2,2.2-2.3
		c0.8-0.2,0.9-0.5,0.9-1.2c0-9.2,0-18.4,0-27.7c0-0.2,0-0.3,0-0.5c0-0.3-0.1-0.5-0.4-0.6C9.3,33.9,8.5,33,8,31.8c0-2.2,0-4.3,0-6.5
		c1.1-2.2,2.2-4.3,3.5-6.4c1.3-2.1,1.9-4.2,1.7-6.7c-0.1-1.9,0.7-3,2.5-3.7c16.2,0,32.3,0,48.5,0c1.8,0.7,2.5,1.7,2.5,3.7
		c0,1,0,1.9,0,2.9c0,0.5,0.1,0.9,0.3,1.3c1.6,3,3.4,5.9,4.9,8.9c0,2.2,0,4.3,0,6.5c-0.4,1.1-1.1,2-2.2,2.2c-0.7,0.2-0.9,0.5-0.9,1.2
		c0,9.2,0,18.4,0,27.7c0,0.2,0,0.4,0,0.6c0,0.3,0.1,0.5,0.4,0.5c1.4,0.3,2.2,1.1,2.7,2.4c0,1.2,0,2.5,0,3.8
		C71.6,71.3,70.8,72.1,69.6,72.5z M40.1,34.2c-8.6,0-17.2,0-25.7,0c-0.9,0-0.9,0-0.9,0.9c0,9.3,0,18.7,0,28c0,0.8,0,0.8,0.9,0.8
		c5.8,0,11.5,0,17.3,0c0.9,0,0.9,0,0.9-0.9c0-5.1,0-10.2,0-15.3c0-2.7,0-5.5,0-8.2c0-1.8,1.2-3.2,3-3.3c2.9-0.2,5.8-0.1,8.7,0
		c2.2,0.1,3.3,1.4,3.3,3.6c0,7.7,0,15.4,0,23.1c0,1,0,1,1,1c5.7,0,11.4,0,17.1,0c0.9,0,1,0,1-0.9c0-9.3,0-18.6,0-27.9
		c0-0.9,0-0.9-0.9-0.9C57.1,34.2,48.6,34.2,40.1,34.2z M34.8,51.3c0,3.9,0,7.8,0,11.7c0,0.8,0.1,0.8,0.9,0.9c2.9,0,5.8,0,8.7,0
		c0.8,0,0.9-0.1,0.9-0.8c0-7.7,0-15.5,0-23.2c0-1.1-0.3-1.4-1.4-1.4c-2.5,0-5,0-7.6,0c-1.2,0-1.5,0.3-1.5,1.5
		C34.8,43.7,34.8,47.5,34.8,51.3z M39.9,66.2c-5.2,0-10.3,0-15.5,0c-4.3,0-8.6,0-12.9,0c-0.9,0-1.3,0.4-1.3,1.3c0,0.5,0,1,0,1.6
		c0,0.9,0.4,1.3,1.3,1.3c0.2,0,0.3,0,0.5,0c18.7,0,37.3,0,56,0c0.2,0,0.3,0,0.5,0c0.9,0,1.3-0.4,1.3-1.3c0-0.4,0-0.7,0-1.1
		c0-1.4-0.3-1.7-1.7-1.7C58.7,66.2,49.3,66.2,39.9,66.2z M40,14.8c7.8,0,15.6,0,23.4,0c0.2,0,0.4,0,0.6,0c0.4,0,0.6-0.2,0.6-0.6
		c0-0.8,0-1.7,0-2.5c0-0.6-0.4-1-0.9-1.1c-0.2,0-0.5,0-0.7,0c-15.2,0-30.3,0-45.5,0c-0.2,0-0.4,0-0.6,0c-0.7,0.1-1.1,0.4-1.1,1.2
		c0,0.7,0,1.4,0,2.1c0,0.9,0,0.9,0.9,0.9C24.3,14.8,32.1,14.8,40,14.8z M58.6,24.5c0.8,0,1.5,0,2.3,0c0.4,0,0.6-0.1,0.3-0.5
		c-1.2-2.1-2.4-4.2-3.5-6.3c-0.2-0.3-0.4-0.5-0.8-0.5c-1,0-2,0-2.9,0c-0.5,0-0.6,0.2-0.5,0.6c0.7,2,1.4,4.1,2.1,6.2
		c0.1,0.4,0.3,0.5,0.7,0.5C57.1,24.4,57.9,24.5,58.6,24.5z M21.3,24.5c0.8,0,1.5,0,2.3,0c0.4,0,0.6-0.1,0.7-0.5
		c0.7-2.1,1.4-4.1,2.1-6.2c0.2-0.5,0-0.7-0.5-0.7c-1,0-2,0-2.9,0c-0.3,0-0.6,0.1-0.7,0.4c-1.2,2.1-2.4,4.3-3.6,6.4
		c-0.2,0.3-0.1,0.5,0.3,0.5C19.8,24.4,20.6,24.5,21.3,24.5z M13.5,24.5c0.6,0,1.2,0,1.8,0c0.4,0,0.6-0.1,0.8-0.4
		c1.2-2.1,2.3-4.2,3.5-6.3c0.2-0.4,0.2-0.6-0.3-0.6c-1.2,0-2.5,0-3.7,0c-0.3,0-0.6,0.1-0.7,0.4c-1.2,2.1-2.4,4.3-3.6,6.4
		c-0.2,0.3-0.1,0.5,0.3,0.5C12.2,24.4,12.8,24.5,13.5,24.5z M66.5,24.5c0.6,0,1.2,0,1.7,0c0.7,0,0.7-0.1,0.4-0.6
		c-1.1-2.1-2.3-4.1-3.4-6.2c-0.2-0.4-0.5-0.5-0.9-0.5c-1.1,0-2.3,0-3.4,0c-0.8,0-0.8,0.1-0.4,0.7c1,1.8,2,3.5,2.9,5.4
		c0.5,1,1.1,1.4,2.2,1.2C65.9,24.4,66.2,24.5,66.5,24.5z M29.2,24.4c0.6,0,1.3,0,1.9,0c0.3,0,0.5-0.1,0.6-0.5
		c0.5-2.1,0.9-4.2,1.4-6.3c0.1-0.4-0.1-0.6-0.5-0.6c-1,0-2,0-3.1,0c-0.3,0-0.5,0.1-0.7,0.5c-0.7,2.1-1.4,4.2-2.1,6.3
		c-0.1,0.4,0,0.5,0.4,0.5C27.9,24.4,28.5,24.5,29.2,24.4z M50.8,24.5c0.6,0,1.3,0,1.9,0c0.5,0,0.6-0.1,0.5-0.6
		c-0.7-2-1.4-4.1-2.1-6.2c-0.1-0.4-0.4-0.6-0.8-0.6c-1,0-1.9,0-2.9,0c-0.5,0-0.7,0.2-0.5,0.7c0.5,2,0.9,4.1,1.4,6.1
		c0.1,0.4,0.3,0.6,0.7,0.6C49.6,24.4,50.2,24.5,50.8,24.5z M59.2,26.7c-0.8,0-1.7,0-2.5,0c-0.4,0-0.7,0.1-0.6,0.6c0,1.3,0,2.6,0,3.9
		c0,0.4,0.2,0.6,0.6,0.6c1.7,0,3.4,0,5.1,0c0.5,0,0.6-0.2,0.6-0.7c0-1.3,0-2.6,0-3.9c0-0.5-0.2-0.7-0.7-0.7
		C60.9,26.7,60,26.7,59.2,26.7z M20.8,26.7c-0.9,0-1.7,0-2.6,0c-0.4,0-0.6,0.2-0.6,0.6c0,1.3,0,2.7,0,4c0,0.4,0.2,0.6,0.6,0.6
		c1.7,0,3.4,0,5.1,0c0.5,0,0.6-0.2,0.6-0.6c0-1.3,0-2.6,0-3.9c0-0.5-0.2-0.6-0.6-0.6C22.5,26.7,21.7,26.7,20.8,26.7z M41.2,20.8
		c0,1,0,2,0,3.1c0,0.4,0.2,0.6,0.6,0.6c1.2,0,2.5,0,3.7,0c0.4,0,0.5-0.1,0.4-0.5c-0.5-2.1-0.9-4.2-1.4-6.3c-0.1-0.4-0.3-0.5-0.7-0.5
		c-0.7,0-1.4,0-2.1,0c-0.5,0-0.6,0.2-0.6,0.7C41.2,18.8,41.2,19.8,41.2,20.8z M38.8,20.8c0-1,0-2,0-2.9c0-0.5-0.2-0.7-0.7-0.7
		c-0.7,0-1.3,0-2,0c-0.5,0-0.7,0.2-0.8,0.6c-0.4,2-0.9,4.1-1.4,6.1c-0.1,0.4,0,0.6,0.5,0.6c1.2,0,2.4,0,3.6,0c0.5,0,0.7-0.2,0.7-0.7
		C38.8,22.8,38.8,21.8,38.8,20.8z M36.3,26.7c-0.7,0-1.4,0-2.1,0c-0.4,0-0.6,0.2-0.6,0.6c0,1.3,0,2.7,0,4c0,0.4,0.2,0.6,0.6,0.6
		c1.3,0,2.7,0,4,0c0.4,0,0.6-0.2,0.6-0.6c0-1.3,0-2.7,0-4c0-0.4-0.2-0.6-0.6-0.6C37.6,26.7,37,26.7,36.3,26.7z M46.3,29.3
		c0-0.7,0-1.3,0-2c0-0.4-0.2-0.6-0.6-0.6c-1.3,0-2.7,0-4,0c-0.4,0-0.6,0.2-0.6,0.6c0,1.3,0,2.7,0,4c0,0.4,0.2,0.6,0.6,0.6
		c1.3,0,2.7,0,4,0c0.4,0,0.6-0.2,0.6-0.6C46.3,30.6,46.3,29.9,46.3,29.3z M28.8,26.7c-0.6,0-1.3,0-1.9,0c-0.4,0-0.6,0.2-0.6,0.6
		c0,1.3,0,2.6,0,3.9c0,0.5,0.2,0.6,0.6,0.6c1.3,0,2.6,0,3.9,0c0.5,0,0.7-0.2,0.7-0.7c0-1.3,0-2.6,0-3.9c0-0.5-0.2-0.7-0.7-0.7
		C30,26.7,29.4,26.7,28.8,26.7z M53.8,29.3c0-0.6,0-1.3,0-1.9c0-0.4-0.2-0.6-0.6-0.6c-1.3,0-2.6,0-3.9,0c-0.5,0-0.6,0.2-0.6,0.6
		c0,1.3,0,2.6,0,3.9c0,0.5,0.2,0.7,0.7,0.7c1.3,0,2.6,0,3.9,0c0.5,0,0.7-0.2,0.7-0.7C53.8,30.5,53.8,29.9,53.8,29.3z M15.4,29.3
		c0-0.7,0-1.3,0-2c0-0.3-0.1-0.6-0.5-0.6c-1.4,0-2.8,0-4.2,0c-0.3,0-0.4,0.1-0.4,0.4c0,1.3,0,2.5,0,3.8c0,0.6,0.4,0.9,1,0.9
		c1.2,0,2.3,0,3.5,0c0.4,0,0.6-0.2,0.6-0.6C15.4,30.6,15.4,29.9,15.4,29.3z M64.6,29.3C64.6,29.3,64.6,29.3,64.6,29.3
		c0,0.6,0,1.2,0,1.8c0,0.5,0.2,0.8,0.8,0.8c1.1,0,2.1,0,3.2,0c0.9,0,1.2-0.3,1.2-1.2c0-1.1,0-2.2,0-3.4c0-0.4-0.2-0.6-0.6-0.6
		c-1.3,0-2.7,0-4,0c-0.4,0-0.6,0.2-0.6,0.6C64.6,27.9,64.6,28.6,64.6,29.3z"/>
	<path class="st0" d="M64.6,49.1c0,3.1,0,6.1,0,9.2c0,1.9-1,3.2-2.7,3.6c-0.3,0.1-0.5,0.1-0.8,0.1c-2.7,0-5.3,0-8,0
		c-2.1,0-3.4-1.2-3.6-3.2c0-0.3,0-0.5,0-0.8c0-5.9,0-11.8,0-17.7c0-0.6,0-1.1,0.2-1.7c0.4-1.3,1.5-2.2,2.8-2.3
		c3.1-0.1,6.2-0.1,9.2,0c1.4,0.1,2.6,1.2,2.8,2.6c0.1,0.4,0.1,0.9,0.1,1.3C64.6,43.1,64.6,46.1,64.6,49.1z M62.3,49.1
		c0-3.1,0-6.2,0-9.2c0-1-0.4-1.4-1.4-1.4c-2.6,0-5.2,0-7.7,0c-1,0-1.4,0.4-1.4,1.4c0,6.1,0,12.3,0,18.4c0,1.1,0.3,1.4,1.4,1.4
		c2.6,0,5.2,0,7.7,0c1.1,0,1.4-0.3,1.4-1.4C62.3,55.1,62.3,52.1,62.3,49.1z"/>
	<path class="st0" d="M15.4,49c0-3,0-6,0-8.9c0-0.5,0-0.9,0.1-1.4c0.3-1.3,1.5-2.4,2.8-2.5c3.1-0.1,6.1-0.1,9.2,0
		c1.5,0.1,2.7,1.3,2.9,2.8c0,0.4,0.1,0.7,0.1,1.1c0,5.9,0,11.9,0,17.8c0,0.5,0,1-0.1,1.5c-0.3,1.4-1.6,2.5-3.1,2.5
		c-2.9,0-5.8,0-8.7,0c-1.9,0-3.2-1.5-3.2-3.6C15.4,55.2,15.4,52.1,15.4,49z M17.7,49c0,3.1,0,6.1,0,9.2c0,1.1,0.3,1.4,1.4,1.4
		c2.6,0,5.2,0,7.7,0c1.1,0,1.4-0.3,1.4-1.4c0-6.1,0-12.2,0-18.3c0-1.1-0.3-1.5-1.5-1.5c-2.5,0-5.1,0-7.6,0c-1.1,0-1.5,0.3-1.5,1.5
		C17.7,42.9,17.7,46,17.7,49z"/>
	<path class="st0" d="M39,51.2c0,0.6-0.5,1.1-1.1,1.1c-0.6,0-1.1-0.5-1.1-1.1c0-0.6,0.5-1.1,1.2-1.1C38.5,50.1,39,50.6,39,51.2z"/>
	<path class="st0" d="M60.3,43.8c0,0.3-0.2,0.6-0.4,0.8c-1.3,1.3-2.7,2.7-4,4c-0.6,0.6-1.2,0.6-1.7,0.1c-0.5-0.5-0.4-1.2,0.1-1.7
		c1.3-1.3,2.7-2.7,4-4c0.4-0.4,0.8-0.6,1.4-0.3C60.1,42.9,60.3,43.3,60.3,43.8z"/>
	<path class="st0" d="M57.1,41.6c0,0.3-0.1,0.5-0.3,0.7c-0.4,0.4-0.8,0.8-1.2,1.2c-0.5,0.4-1.1,0.4-1.5,0c-0.4-0.4-0.5-1.1-0.1-1.5
		c0.4-0.4,0.8-0.8,1.2-1.2c0.3-0.3,0.8-0.3,1.2-0.1C56.9,40.8,57.1,41.2,57.1,41.6z"/>
	<path class="st0" d="M26.2,43.7c0,0.4-0.2,0.7-0.4,0.9c-1.3,1.3-2.7,2.7-4,4c-0.6,0.6-1.2,0.6-1.7,0.1c-0.5-0.5-0.4-1.2,0.1-1.7
		c1.3-1.3,2.7-2.7,4-4c0.4-0.4,0.8-0.6,1.4-0.3C25.9,42.9,26.2,43.2,26.2,43.7z"/>
	<path class="st0" d="M23,41.6c0,0.3-0.1,0.6-0.3,0.8c-0.4,0.4-0.7,0.8-1.1,1.1c-0.5,0.4-1.1,0.4-1.5,0c-0.4-0.4-0.5-1.1,0-1.6
		c0.4-0.4,0.8-0.8,1.2-1.2c0.3-0.3,0.8-0.3,1.2-0.1C22.8,40.8,22.9,41.1,23,41.6z"/>
</g>
</svg>
