<svg width="80" height="80" viewBox="0 0 80 80" fill="none" xmlns="http://www.w3.org/2000/svg">
<style type="text/css">
	.st0{fill:#003C71;}
</style>
<g>
	<g>
		<path class="st0" d="M61.1,61.6h-6.5c-0.6,0-1.1-0.5-1.1-1.1c0-0.6,0.5-1.1,1.1-1.1h5.4v-3c0-0.6,0.5-1.1,1.1-1.1
			c0.6,0,1.1,0.5,1.1,1.1v4.1C62.2,61.2,61.7,61.6,61.1,61.6"/>
		<path class="st0" d="M15.4,61.6H8.9c-0.6,0-1.1-0.5-1.1-1.1v-4.1c0-0.6,0.5-1.1,1.1-1.1c0.6,0,1.1,0.5,1.1,1.1v3h5.4
			c0.6,0,1.1,0.5,1.1,1.1C16.5,61.2,16,61.6,15.4,61.6"/>
		<path class="st0" d="M61.1,57.6c-0.6,0-1.1-0.5-1.1-1.1v-0.3c0-2.1-0.2-3.5-0.5-4.3c-0.2-0.6-0.6-1-1.2-1.4c0,0,0,0,0,0
			c-0.1-0.1-0.3-0.2-0.4-0.3l-0.1-0.1c0,0,0,0,0,0c-0.3-0.2-0.8-0.5-1.2-0.7c-0.5-0.2-0.9-0.5-1.3-0.7c-0.3-0.2-0.7-0.4-1.1-0.6
			c-0.5-0.3-1-0.6-1.6-0.9c-0.5-0.3-1-0.5-1.5-0.8l-1.3-0.7c-0.1-0.1-0.3-0.1-0.4-0.2l-0.1-0.1c-0.4-0.2-2.1-1.2-3.9-2.1
			c-0.9-0.5-1.8-1-2.6-1.4l-0.4-0.2c-0.3-0.2-0.6-0.3-0.8-0.4c-0.5-0.3-0.7-1-0.4-1.5c0.3-0.5,1-0.7,1.5-0.4
			c0.2,0.1,0.4,0.2,0.7,0.4l0.4,0.2c0.7,0.4,1.6,0.9,2.6,1.4c1.7,0.9,3.5,1.9,3.9,2.1l0.1,0.1c0.1,0.1,0.2,0.1,0.3,0.2
			c0,0,0,0,0.1,0l1.4,0.8c0.5,0.3,1,0.6,1.5,0.8c0.6,0.3,1.2,0.6,1.6,0.9c0.4,0.2,0.8,0.5,1.2,0.7c0.3,0.2,0.8,0.4,1.2,0.7
			c0.6,0.3,1.1,0.6,1.5,0.9l0.1,0c0.2,0.1,0.4,0.3,0.6,0.4c0.9,0.7,1.5,1.4,1.9,2.3c0.5,1.1,0.7,2.7,0.7,5.1v0.3
			C62.2,57.1,61.7,57.6,61.1,57.6"/>
		<path class="st0" d="M8.9,57.6c-0.6,0-1.1-0.5-1.1-1.1v-0.3c0-2.5,0.2-4,0.7-5.1c0.4-0.9,0.9-1.6,1.9-2.3c0.2-0.1,0.4-0.3,0.6-0.4
			l0.1,0c0.4-0.3,0.9-0.6,1.5-0.9c0.4-0.2,0.9-0.5,1.2-0.7c0.3-0.2,0.7-0.4,1.2-0.7c0.4-0.3,1-0.6,1.6-0.9c0.5-0.3,1-0.5,1.5-0.8
			l1.4-0.8c0,0,0,0,0.1,0c0.1,0,0.2-0.1,0.3-0.2l0.1-0.1c0.4-0.2,2.1-1.2,3.9-2.1c0.4-0.2,0.7-0.4,1.1-0.6c0.5-0.3,1-0.5,1.4-0.7
			c0.5-0.3,0.9-0.5,1.1-0.6c0.5-0.3,1.2-0.1,1.5,0.5c0.3,0.5,0.1,1.2-0.5,1.5c-0.2,0.1-0.6,0.3-1.1,0.6c-0.4,0.2-0.9,0.5-1.4,0.7
			c-0.4,0.2-0.7,0.4-1.1,0.6c-1.7,0.9-3.5,1.9-3.9,2.1l-0.1,0.1c-0.1,0.1-0.3,0.1-0.4,0.2l-1.3,0.7c-0.5,0.3-1,0.6-1.5,0.8
			c-0.6,0.3-1.1,0.6-1.5,0.9c-0.4,0.2-0.8,0.5-1.1,0.7c-0.4,0.2-0.9,0.5-1.3,0.7c-0.5,0.3-1,0.5-1.2,0.7c0,0,0,0,0,0l-0.1,0
			c-0.2,0.1-0.3,0.2-0.4,0.3c0,0,0,0,0,0c-0.6,0.5-0.9,0.9-1.2,1.4c-0.3,0.8-0.5,2.2-0.5,4.3v0.3C9.9,57.1,9.5,57.6,8.9,57.6"/>
		<path class="st0" d="M60.1,66c-0.6,0-1.1-0.5-1.1-1.1v-4.4c0-0.6,0.5-1.1,1.1-1.1c0.6,0,1.1,0.5,1.1,1.1v4.4
			C61.1,65.5,60.7,66,60.1,66"/>
		<path class="st0" d="M9.9,66c-0.6,0-1.1-0.5-1.1-1.1v-4.4c0-0.6,0.5-1.1,1.1-1.1c0.6,0,1.1,0.5,1.1,1.1v4.4
			C11,65.5,10.5,66,9.9,66"/>
		<path class="st0" d="M47,26.8L47,26.8c-0.6,0-1.1-0.5-1.1-1.1l0-4.4c0-0.6,0.5-1.1,1.1-1.1h0c0.6,0,1.1,0.5,1.1,1.1l0,4.4
			C48.1,26.3,47.6,26.8,47,26.8"/>
		<path class="st0" d="M23,25.7h-1.1l0-4.4c0-0.6,0.5-1.1,1.1-1.1h0c0.6,0,1.1,0.5,1.1,1.1l0,4.4L23,25.7z"/>
		<path class="st0" d="M35,44.2c-2.8,0-5.6-1.2-7.9-3.3c-2.4-2.2-4.1-5.2-4.9-8.9c-1.3-0.5-2.4-2-2.4-3.8c0-0.9,0.3-1.8,0.9-2.4
			c0.6-0.6,1.3-1.1,2.1-1.2c0.1,0,0.2,0,0.3,0h2.1c0,0,0,0,0,0v-1.1c0-0.6,0.5-1.1,1.1-1.1c0.6,0,1.1,0.5,1.1,1.1v1.1
			c0,1.2-1,2.2-2.2,2.2h-2c-0.4,0.1-0.7,0.3-0.9,0.5c-0.2,0.3-0.4,0.6-0.4,1c0,0.9,0.7,1.7,1.1,1.7c0.5,0,1,0.4,1.1,0.9
			c0.7,3.5,2.3,6.4,4.4,8.4c1.9,1.7,4.2,2.7,6.5,2.7c2.3,0,4.6-1,6.4-2.7c2.2-2,3.7-4.9,4.5-8.4c0.1-0.5,0.6-0.9,1.1-0.9
			c0.4,0,1.1-0.8,1.1-1.7c0-0.7-0.5-1.4-1.3-1.5h-2c-1.2,0-2.2-1-2.2-2.2v-1.1c0-0.6,0.5-1.1,1.1-1.1c0.6,0,1.1,0.5,1.1,1.1v1.1
			c0,0,0,0,0,0h2.1c0.1,0,0.2,0,0.3,0.1c1.7,0.4,3,1.9,3,3.7c0,1.7-1,3.3-2.4,3.8c-0.9,3.6-2.6,6.7-5,8.9C40.6,43,37.8,44.2,35,44.2
			 M46.2,26.5C46.2,26.5,46.2,26.5,46.2,26.5C46.2,26.5,46.2,26.5,46.2,26.5 M46.2,26.5C46.2,26.5,46.2,26.5,46.2,26.5
			C46.2,26.5,46.2,26.5,46.2,26.5 M23.8,26.5C23.8,26.5,23.8,26.5,23.8,26.5C23.8,26.5,23.8,26.5,23.8,26.5 M23.8,26.5
			C23.8,26.5,23.8,26.5,23.8,26.5C23.8,26.5,23.8,26.5,23.8,26.5"/>
		<path class="st0" d="M35,38.8c-1.7,0-3.3-0.7-4.5-1.9c-0.4-0.4-0.4-1.1,0-1.5c0.4-0.4,1.1-0.4,1.5,0c0.8,0.8,1.9,1.2,3,1.2
			c1.1,0,2.2-0.4,3-1.2c0.4-0.4,1.1-0.4,1.5,0c0.4,0.4,0.4,1.1,0,1.5C38.3,38.1,36.7,38.8,35,38.8"/>
		<path class="st0" d="M42.1,29.4c-0.3,0-0.6-0.1-0.8-0.3c-0.3-0.3-0.8-0.5-1.3-0.5h0c-0.5,0-0.9,0.2-1.3,0.5
			c-0.4,0.4-1.1,0.4-1.5,0c-0.4-0.4-0.4-1.1,0-1.5c0.7-0.7,1.8-1.2,2.8-1.2c1.1,0,2.1,0.4,2.8,1.2c0.4,0.4,0.4,1.1,0,1.5
			C42.6,29.3,42.4,29.4,42.1,29.4"/>
		<path class="st0" d="M27.9,29.4c-0.3,0-0.6-0.1-0.8-0.3c-0.4-0.4-0.4-1.1,0-1.5c0.8-0.8,1.8-1.2,2.8-1.2h0c1,0,2.1,0.4,2.8,1.2
			c0.4,0.4,0.4,1.1,0,1.5c-0.4,0.4-1.1,0.4-1.5,0c-0.3-0.3-0.8-0.5-1.3-0.5h0c-0.5,0-0.9,0.2-1.3,0.5C28.4,29.3,28.1,29.4,27.9,29.4
			"/>
		<path class="st0" d="M46.9,22.7c0,0-0.1,0-0.1,0c-0.6-0.1-1-0.6-1-1.2c0,0,0-0.1,0-0.2c0-0.6,0.5-1.1,1.1-1.1
			c0.6,0,1.1,0.5,1.1,1.1v0c0,0.3,0,0.4,0,0.4C48,22.3,47.5,22.7,46.9,22.7"/>
		<path class="st0" d="M46.9,22.3c-0.6,0-1.1-0.5-1.1-1.1v-0.2c0-0.6,0.5-1.1,1.1-1.1c0.6,0,1.1,0.5,1.1,1.1v0.2
			C48,21.9,47.6,22.3,46.9,22.3"/>
		<path class="st0" d="M23.1,22.7c-0.5,0-1-0.4-1.1-1c0,0,0-0.2,0-0.4c0-0.6,0.5-1.1,1.1-1.1c0.6,0,1.1,0.5,1.1,1.1v0
			c0,0.1,0,0.2,0,0.2c0.1,0.6-0.4,1.1-1,1.2C23.1,22.7,23.1,22.7,23.1,22.7"/>
		<path class="st0" d="M23.1,22.3c-0.6,0-1.1-0.5-1.1-1.1v-0.2c0-0.6,0.5-1.1,1.1-1.1c0.6,0,1.1,0.5,1.1,1.1v0.2
			C24.1,21.9,23.7,22.3,23.1,22.3"/>
		<path class="st0" d="M23,22.4c-0.6,0-1.1-0.5-1.1-1.1c0-0.6,0-1.3,0-1.9c0-5.4,0-9.3,2.4-11.7C26.2,5.8,29.4,5,35,5
			c5.6,0,8.8,0.8,10.7,2.7c2.4,2.4,2.4,6.3,2.4,11.7c0,0.6,0,1.2,0,1.9c0,0.6-0.5,1.1-1.1,1.1s-1.1-0.5-1.1-1.1c0-0.7,0-1.3,0-1.9
			c0-5,0-8.3-1.7-10.1c-1.4-1.5-4.3-2.1-9.2-2.1c-4.9,0-7.7,0.6-9.2,2.1c-1.8,1.8-1.8,5.1-1.7,10.1c0,0.6,0,1.2,0,1.9
			C24.1,21.9,23.6,22.4,23,22.4"/>
		<path class="st0" d="M42.6,19.2c-0.6,0-1.1-0.5-1.1-1.1c0-7.3-2.1-10.9-6.5-10.9s-6.5,3.6-6.5,10.9c0,0.6-0.5,1.1-1.1,1.1
			c-0.6,0-1.1-0.5-1.1-1.1c0-6,1.5-13.1,8.7-13.1c7.2,0,8.7,7.1,8.7,13.1C43.7,18.7,43.2,19.2,42.6,19.2"/>
		<path class="st0" d="M43.7,55.1H26.3c-1.8,0-3.3-1.5-3.3-3.3v-9.7h2.2v9.7c0,0.6,0.5,1.1,1.1,1.1h17.4c0.6,0,1.1-0.5,1.1-1.1v-9.7
			H47v9.7C47,53.6,45.5,55.1,43.7,55.1"/>
		<path class="st0" d="M54.6,66c-3,0-5.4-2.4-5.4-5.4v-16c0-0.6,0.5-1.1,1.1-1.1c0.6,0,1.1,0.5,1.1,1.1v16c0,1.8,1.5,3.3,3.3,3.3
			c0.6,0,1.1,0.5,1.1,1.1C55.7,65.5,55.2,66,54.6,66"/>
		<path class="st0" d="M15.4,66c-0.6,0-1.1-0.5-1.1-1.1c0-0.6,0.5-1.1,1.1-1.1c1.8,0,3.3-1.5,3.3-3.3v-16c0-0.6,0.5-1.1,1.1-1.1
			c0.6,0,1.1,0.5,1.1,1.1v16C20.8,63.6,18.4,66,15.4,66"/>
		<path class="st0" d="M50.2,48.6h-4.4c-0.6,0-1.1-0.5-1.1-1.1c0-0.6,0.5-1.1,1.1-1.1h4.4c0.6,0,1.1,0.5,1.1,1.1
			C51.3,48.1,50.9,48.6,50.2,48.6"/>
		<path class="st0" d="M50.2,52.9h-4.4c-0.6,0-1.1-0.5-1.1-1.1c0-0.6,0.5-1.1,1.1-1.1h4.4c0.6,0,1.1,0.5,1.1,1.1
			C51.3,52.4,50.9,52.9,50.2,52.9"/>
		<path class="st0" d="M24.1,48.6h-4.4c-0.6,0-1.1-0.5-1.1-1.1c0-0.6,0.5-1.1,1.1-1.1h4.4c0.6,0,1.1,0.5,1.1,1.1
			C25.2,48.1,24.7,48.6,24.1,48.6"/>
		<path class="st0" d="M24.1,52.9h-4.4c-0.6,0-1.1-0.5-1.1-1.1c0-0.6,0.5-1.1,1.1-1.1h4.4c0.6,0,1.1,0.5,1.1,1.1
			C25.2,52.4,24.7,52.9,24.1,52.9"/>
		<path class="st0" d="M27.6,25c-0.7,0-1.4-0.2-1.9-0.6l-3.2-2.2c-0.1,0-0.1-0.1-0.2-0.1c-0.3-0.3-0.4-0.8-0.2-1.2c0,0,0,0,0-0.1
			c0.2-0.4,1.3-2.3,4.9-3.7c0,0,0,0,0,0c2.2-0.8,4.9-1.2,8-1.2s5.8,0.4,8,1.2c3.6,1.3,4.8,3.3,5,3.7c0,0.1,0.1,0.2,0.1,0.3
			c0.1,0.4,0,0.7-0.3,1c0,0-0.1,0.1-0.2,0.1l-3.2,2.2c-1.2,1-2.9,0.6-4.3,0.2c-2.1-0.7-3.6-1.1-5.1-1c-1.5,0-3,0.4-5.1,1
			C29.2,24.8,28.4,25,27.6,25 M24.6,21l2.3,1.6c0,0,0,0,0.1,0c0.2,0.2,0.8,0.3,2.3-0.2c2.3-0.8,3.9-1.2,5.8-1.1
			c1.8,0,3.4,0.4,5.8,1.1c1.5,0.5,2,0.4,2.3,0.2c0,0,0,0,0.1,0l2.3-1.6c-0.5-0.5-1.5-1.3-3.2-1.9c-2-0.7-4.4-1.1-7.2-1.1
			c-2.8,0-5.3,0.4-7.2,1.1C26.1,19.7,25.1,20.5,24.6,21 M23.1,21.3L23.1,21.3L23.1,21.3z"/>
		<path class="st0" d="M35,50.8c-4.8,0-8.7-3.9-8.7-8.7v-1.1c0-0.6,0.5-1.1,1.1-1.1s1.1,0.5,1.1,1.1v1.1c0,3.6,2.9,6.5,6.5,6.5
			c3.6,0,6.5-2.9,6.5-6.6v-1.1c0-0.6,0.5-1.1,1.1-1.1s1.1,0.5,1.1,1.1V42C43.7,46.9,39.8,50.8,35,50.8"/>
		<path class="st0" d="M54.6,66c-0.6,0-1.1-0.5-1.1-1.1V54c0-3,2.4-5.4,5.4-5.4c0.6,0,1.1,0.5,1.1,1.1c0,0.6-0.5,1.1-1.1,1.1
			c-1.8,0-3.3,1.5-3.3,3.3v10.9C55.7,65.5,55.2,66,54.6,66"/>
		<path class="st0" d="M15.4,66c-0.6,0-1.1-0.5-1.1-1.1V54c0-1.8-1.5-3.3-3.3-3.3c-0.6,0-1.1-0.5-1.1-1.1c0-0.6,0.5-1.1,1.1-1.1
			c3,0,5.4,2.4,5.4,5.4v10.9C16.5,65.5,16,66,15.4,66"/>
		<path class="st0" d="M42.6,61.6H27.4c-0.6,0-1.1-0.5-1.1-1.1c0-0.6,0.5-1.1,1.1-1.1h15.2c0.6,0,1.1,0.5,1.1,1.1
			C43.7,61.2,43.2,61.6,42.6,61.6"/>
		<path class="st0" d="M44.8,63.8L44.8,63.8c-0.9,0-1.7-0.3-2.3-1c-0.6-0.6-0.9-1.4-0.9-2.3c0-0.9,0.3-1.7,0.9-2.3
			c0.6-0.6,1.4-1,2.3-1h0c0.9,0,1.7,0.3,2.3,1c0.4,0.4,0.4,1.1,0,1.5c-0.4,0.4-1.1,0.4-1.5,0c-0.2-0.2-0.5-0.3-0.8-0.3
			c-0.3,0-0.6,0.1-0.8,0.3c-0.2,0.2-0.3,0.5-0.3,0.8c0,0.3,0.1,0.6,0.3,0.8c0.2,0.2,0.5,0.3,0.8,0.3c0.3,0,0.6-0.1,0.8-0.3
			c0.4-0.4,1.1-0.4,1.5,0c0.4,0.4,0.4,1.1,0,1.5C46.5,63.5,45.7,63.8,44.8,63.8"/>
		<path class="st0" d="M25.2,63.8L25.2,63.8c-0.9,0-1.7-0.3-2.3-1c-0.4-0.4-0.4-1.1,0-1.5c0.4-0.4,1.1-0.4,1.5,0
			c0.2,0.2,0.5,0.3,0.8,0.3c0,0,0,0,0,0c0.3,0,0.6-0.1,0.8-0.3c0.2-0.2,0.3-0.5,0.3-0.8c0-0.3-0.1-0.6-0.3-0.8
			c-0.2-0.2-0.5-0.3-0.8-0.3c0,0,0,0,0,0c-0.3,0-0.6,0.1-0.8,0.3c-0.4,0.4-1.1,0.4-1.5,0c-0.4-0.4-0.4-1.1,0-1.5
			c0.6-0.6,1.4-1,2.3-1h0c0.9,0,1.7,0.3,2.3,1c0.6,0.6,1,1.4,1,2.3c0,0.9-0.3,1.7-1,2.3C26.9,63.5,26.1,63.8,25.2,63.8"/>
	</g>
</g>
<defs>
<clipPath id="clip0">
<rect width="80" height="80" fill="white"/>
</clipPath>
</defs>
</svg>
