<svg width="80" height="80" viewBox="0 0 80 80" fill="none" xmlns="http://www.w3.org/2000/svg">
<style type="text/css">
	.st0{fill:#003C71;}
</style>
<g>
	<g>
		<path class="st0" d="M55.9,5c0.5,0.2,1.1,0.3,1.6,0.5c1.9,0.8,2.9,2.3,2.9,4.4c0,1.3,0.1,2.7,0.4,4c0.2,0.7,0.1,1.5,0,2.3
			c-0.1,0.5-0.3,0.9-0.6,1.2c-0.5,0.4-0.7,0.8-0.9,1.4c-0.2,0.6-0.6,1.1-0.9,1.6c-0.5,0.9-0.4,1.6,0.5,2c1.2,0.6,2.4,1.2,3.6,1.8
			c2.1,1,3,2.6,3.1,4.9c0,1.8-0.5,2.5-2.4,2.4c-2.8-0.1-5.5,0-8.3,0c-0.5,0-0.6,0.1-0.6,0.6c0.3,4.4-0.8,8.4-3.2,12
			c-0.8,1.2-1.8,2.4-2.9,3.4c-0.1,0.1-0.3,0.2-0.4,0.4c0.1,0.2,0.3,0.1,0.5,0.2c0.5,0.2,0.8,0.6,0.7,1.1c-0.1,0.5-0.4,0.9-0.9,0.9
			c-1.2,0-2.3-0.1-3.4-0.3c-0.6-0.1-0.8-0.5-0.8-1.1c0.1-1,0.2-2,0.3-3c0.1-0.6,0.6-1,1.1-1c0.5,0,1,0.4,1,1c0,0.2,0,0.3,0,0.5
			c0.8-0.5,1.4-1.3,2-2c2.4-2.9,3.7-6.3,3.9-10c0-0.7,0-1.5,0-2.2c0-0.5-0.2-0.7-0.7-0.6c-2.2,0-4.4,0-6.6,0c-1.2,0-1.8-0.6-1.8-1.8
			c0-0.6-0.1-1.2,0.1-1.8c0.3-1.6,1.1-2.8,2.5-3.5c1.2-0.7,2.4-1.3,3.7-2c0.7-0.4,0.9-1.1,0.5-1.8c-0.5-0.9-1-1.8-1.3-2.8
			c0,0,0,0,0-0.1c-1-1-0.8-2.4-0.8-3.6c0-0.4,0.1-0.8,0.3-1.2c0.2-0.4,0.2-0.8,0.2-1.2c0-0.9-0.1-1.7,0.1-2.6
			C48.5,7,50,5.9,51.8,5.2c0.2-0.1,0.5-0.2,0.7-0.2C53.7,5,54.8,5,55.9,5z M54.2,29.4c2.8,0,5.6,0,8.4,0c0.5,0,0.7-0.2,0.7-0.7
			c0-1.2-0.6-2-1.7-2.5c-1.3-0.7-2.6-1.3-3.9-2c-0.8-0.4-1.4-1-1.6-1.9c-0.2-0.7-0.2-1.4-0.1-2.1c0-0.3,0.1-0.4,0.3-0.6
			c0.6-0.7,1-1.5,1.3-2.3c0.2-0.5,0.3-1.2,1-1.4c0,0,0.1-0.1,0.1-0.1c0.1-0.7,0.3-1.5-0.1-2.2c-0.2-0.3-0.3-0.6-0.3-0.9
			c0-1,0-1.9,0-2.9c0-0.8-0.3-1.5-1.1-2c-1.4-1-2.9-0.9-4.4-0.6c-1.9,0.4-2.6,1.3-2.6,3.2c0,0.8,0,1.6,0,2.4c0,0.3,0,0.5-0.2,0.7
			c-0.5,0.6-0.4,2,0.2,2.6c0.1,0.2,0.2,0.3,0.2,0.5c0.3,1.1,0.8,2.1,1.4,3c0.1,0.1,0.2,0.3,0.2,0.4c0.1,1.8,0.1,3.2-1.8,4.1
			c-1.2,0.6-2.4,1.3-3.6,2c-1,0.5-1.5,1.3-1.5,2.5c0,0.5,0.2,0.7,0.7,0.7C48.7,29.3,51.5,29.4,54.2,29.4z"/>
		<path class="st0" d="M17.3,5c0.9,0.3,1.8,0.6,2.6,1.1c1.2,0.9,1.8,2.1,1.9,3.6c0,0.6,0,1.3,0,1.9c0,0.5,0.2,0.9,0.3,1.4
			c0.3,1.7,0.8,3.4-0.8,4.8c-0.2,0.1-0.3,0.4-0.3,0.5c-0.3,0.7-0.7,1.4-1.1,2c-0.6,0.9-0.4,1.6,0.6,2.1c1.2,0.6,2.4,1.2,3.7,1.8
			c1.9,0.9,2.8,2.5,2.8,4.6c0,0.3,0,0.7,0,1c0,1-0.7,1.6-1.6,1.6c-2.3,0-4.5,0-6.8,0c-0.3,0-0.6,0-0.6,0.5
			c-0.4,5.5,1.4,10.2,5.4,14.1c0.1,0.1,0.2,0.2,0.4,0.3c0.2-0.2,0-0.3,0-0.4c0-0.6,0.4-1.1,0.9-1.1c0.6-0.1,1.1,0.3,1.2,0.9
			c0.1,1,0.2,2.1,0.3,3.1c0,0.6-0.4,1.1-1,1.1c-1,0.1-2,0.2-3,0.3c-0.7,0.1-1.2-0.4-1.2-1c-0.1-0.5,0.3-1,0.9-1.2
			c0.1,0,0.2,0,0.4-0.1c-0.7-0.6-1.3-1.2-1.8-1.8c-2.6-3-4.1-6.4-4.7-10.4c-0.2-1.2-0.1-2.5-0.1-3.7c0-0.5-0.1-0.6-0.6-0.6
			c-2.9,0-5.8,0-8.6,0c-0.9,0-1.5-0.2-2-1c0-1,0-1.9,0-2.9c0.4-1.7,1.5-2.8,3-3.6c1.1-0.5,2.1-1.1,3.2-1.7c0.7-0.4,0.9-1.2,0.5-1.8
			c-0.8-1.1-1.1-2.6-1.9-3.7c-0.1-0.2-0.2-0.4-0.2-0.7c-0.1-0.7-0.2-1.5,0-2.2c0.3-1.3,0.4-2.6,0.4-3.9c0-2,1-3.5,2.8-4.4
			C12.9,5.3,13.4,5.2,14,5C15.1,5,16.2,5,17.3,5z M15.7,29.4c2.8,0,5.6,0,8.4,0c0.5,0,0.7-0.2,0.7-0.7c0-1.2-0.7-2-1.7-2.5
			c-1.3-0.7-2.6-1.3-3.9-2c-1.2-0.6-1.7-1.5-1.8-2.8c0-0.3,0-0.6,0-0.9c0-0.4,0.1-0.6,0.3-0.9c0.5-0.7,0.9-1.4,1.3-2.1
			c0.2-0.6,0.3-1.3,1-1.5c0.1,0,0.1-0.1,0.1-0.2c0.1-0.6,0.3-1.4-0.1-1.9c-0.3-0.6-0.3-1.1-0.3-1.7c0-0.7,0-1.4,0-2.1
			c0-1.1-0.5-1.9-1.5-2.4c-1.3-0.6-2.7-0.6-4-0.3c-1.8,0.4-2.5,1.3-2.5,3.1c0,0.8,0,1.6,0,2.4c0,0.2,0,0.4-0.1,0.6
			c-0.6,1-0.7,1.9,0.1,2.9c0.1,0.1,0.1,0.3,0.1,0.4c0.3,1.1,0.8,2.2,1.5,3.1c0.1,0.1,0.2,0.2,0.2,0.4c0.1,1.9,0,3.2-1.8,4.1
			c-1.2,0.6-2.4,1.3-3.7,2c-0.9,0.5-1.4,1.3-1.4,2.3c0,0.8,0,0.8,0.8,0.8C10.2,29.4,12.9,29.4,15.7,29.4z"/>
		<path class="st0" d="M34.9,66c-3.1,0-6.3,0-9.4,0c-1.2,0-1.8-0.6-1.8-1.8c0-0.6,0-1.2,0.1-1.8c0.2-1.6,1.1-2.8,2.5-3.5
			c1.2-0.7,2.4-1.3,3.7-2c0.7-0.4,0.9-1.1,0.5-1.8c-0.6-0.9-0.8-2-1.4-2.8c-0.8-1.2-0.7-2.5-0.7-3.8c0-0.1,0-0.3,0-0.4
			c0.6-1.2,0.3-2.5,0.4-3.8c0.1-2.5,1.8-4,3.9-4.6c2-0.5,4-0.5,5.9,0.5c1.8,1,2.6,2.6,2.6,4.5c0,0.5,0,0.9,0,1.4
			c0,0.5,0.1,1,0.2,1.4c0.3,1.2,0.3,2.4,0,3.5c0,0.2-0.1,0.4-0.2,0.5c-1.1,0.9-1.4,2.3-2.2,3.4c-0.5,0.6-0.2,1.4,0.5,1.8
			c1.2,0.6,2.5,1.2,3.7,1.9c2.4,1.2,3.5,3.4,2.9,6C46,65.5,45.4,66,44.5,66C41.3,66,38.1,66,34.9,66z M35,63.9c2.8,0,5.6,0,8.4,0
			c0.5,0,0.7-0.2,0.7-0.7c0-1.2-0.7-2-1.7-2.5c-1.3-0.7-2.6-1.3-3.9-2c-1-0.5-1.6-1.2-1.7-2.4c0-0.5,0-0.9,0-1.4
			c0-0.3,0.1-0.6,0.3-0.8c0.5-0.7,1-1.4,1.3-2.2c0.2-0.6,0.3-1.3,1-1.5c0.1,0,0.1-0.1,0.1-0.2c0.1-0.7,0.3-1.4-0.1-2
			C39,47.8,39,47.4,39,46.9c0-0.8,0-1.6,0-2.4c0-1.1-0.5-1.9-1.5-2.4c-1.3-0.6-2.7-0.6-4-0.3c-1.8,0.4-2.6,1.3-2.5,3.1
			c0,0.8,0,1.6,0,2.4c0,0.2,0,0.4-0.1,0.5c-0.6,0.6-0.3,1.4-0.4,2.1c0,0.2,0,0.4,0.2,0.5c0.3,0.2,0.4,0.6,0.5,0.9
			c0.3,1,0.7,1.9,1.4,2.8c0.1,0.1,0.2,0.3,0.3,0.5c0.1,1.9,0,3.2-1.8,4.1c-1.2,0.6-2.4,1.3-3.6,2c-1,0.5-1.5,1.3-1.5,2.5
			c0,0.5,0.2,0.7,0.7,0.7C29.4,63.9,32.2,63.9,35,63.9z"/>
		<path class="st0" d="M27.7,17.9c1,0.5,1.3,1,1.1,1.6c-0.2,0.6-0.8,0.8-1.8,0.5c-0.7-0.2-1.4-0.4-2.2-0.7c-0.9-0.3-1.2-0.8-0.9-1.7
			c0.2-0.8,0.5-1.6,0.7-2.4c0.2-0.7,0.7-1.1,1.3-1c0.6,0.1,0.9,0.6,0.9,1.4c0,0.1,0,0.1,0,0.2c5.5-2.4,10.9-2.4,16.3,0
			c0.1-0.2,0-0.3,0-0.4c0-0.6,0.3-1.1,0.8-1.2c0.5-0.1,1.1,0.2,1.2,0.8c0.3,0.9,0.6,1.9,0.9,2.8c0.2,0.7-0.1,1.2-0.8,1.5
			c-0.9,0.3-1.8,0.6-2.7,0.8c-0.7,0.2-1.3-0.1-1.4-0.7c-0.2-0.6,0.1-1,0.7-1.4c0.1,0,0.2,0,0.2-0.2C37.4,15.7,32.6,15.8,27.7,17.9z"
			/>
	</g>
</g>
<defs>
<clipPath id="clip0">
<rect width="80" height="80" fill="white"/>
</clipPath>
</defs>
</svg>
