<svg width="80" height="80" viewBox="0 0 80 80" fill="none" xmlns="http://www.w3.org/2000/svg">
<style type="text/css">
	.st0{fill:#38AFC7;}
</style>
<g>
	<path class="st0" d="M70.4,72c-9,0-17.9,0-26.9,0c-1-0.4-1.5-1.1-1.5-2.2c0-9.6,0-19.2,0-28.8c0-1,0.4-1.9,1.3-2.5
		c0.8-0.5,0.9-1,0.9-1.8c0-1.4,1-2.7,2.4-3.1c0.5-0.1,1-0.1,1.5-0.1c2.3,0,4.6,0,6.9,0c0.9,0,0.9,0,0.9-0.9c0-0.8,0-1.5,0-2.3
		c0-0.9,0-0.9-0.9-0.9c-6.8,0-13.6,0-20.4,0c-0.9,0-0.9,0-0.9,0.9c0,10.7,0,21.4,0,32c0,0.9,0,0.9,0.9,1c2.7,0.1,4.4,1.9,4.4,4.6
		c0,0.8,0,1.6,0,2.4c0,0.6-0.2,1.1-0.7,1.5c-8.2,0-16.3,0-24.5,0c-0.5-0.4-0.7-0.9-0.6-1.5c0-0.7,0-1.5,0-2.2c0-2.9,1.7-4.7,4.6-4.8
		c0.5,0,0.7-0.2,0.7-0.8c0-10.8,0-21.6,0-32.5c0-0.5-0.2-0.7-0.7-0.7c-2,0-4,0-6.1,0c-1.8,0-3.1-0.7-3.8-2.4c0-1.3,0-2.6,0-3.9
		c0.6-1.4,1.6-2.3,3.1-2.4c0.5,0,0.8-0.2,1-0.6c2-2.6,4-5.1,6-7.7c0.3-0.4,0.4-0.8,0.5-1.3C18.6,9.4,20,8,21.8,8c2.8,0,5.7,0,8.5,0
		c1.7,0,3,1.1,3.2,2.8c0.1,0.6,0.3,0.8,0.8,1c8.8,2.9,17.6,5.9,26.5,8.8c0.4,0.1,0.8,0.2,1.2,0.2c2.2,0,4.4,0,6.6,0
		c1.6,0,2.9,0.9,3.2,2.4c0.3,1.3,0.3,2.6,0,3.8c-0.3,1.5-1.6,2.4-3.2,2.4c-3.3,0-6.5,0-9.8,0c-0.5,0-0.7,0.1-0.7,0.7
		c0,0.9,0,1.9,0,2.8c0,0.4,0.2,0.6,0.6,0.6c0.6,0,1.2,0,1.9,0c2.1,0,4.2-0.1,6.4,0.1c1.4,0.1,2.6,1.2,2.8,2.6
		c0.1,0.4,0.1,0.9,0.1,1.3c0,0.4,0.1,0.6,0.4,0.8c1.2,0.7,1.7,1.7,1.7,3c0,9.4,0,18.9,0,28.3C71.9,70.8,71.5,71.6,70.4,72z
		 M44.3,55.2c0,4.6,0,9.2,0,13.8c0,0.8,0.1,0.8,0.8,0.8c1.6,0,3.1,0,4.7,0c0.5,0,0.7-0.2,0.7-0.7c0-1.8,0-3.6,0-5.4
		c0-1.5,0.9-2.5,2.4-2.5c2.7,0,5.5,0,8.2,0c1.5,0,2.3,1,2.3,2.4c0,1.8,0,3.6,0,5.4c0,0.5,0.2,0.7,0.7,0.7c1.6,0,3.1,0,4.7,0
		c0.9,0,0.9,0,0.9-0.9c0-9.1,0-18.1,0-27.2c0-1.4-0.3-1.7-1.7-1.7c-7.4,0-14.7,0-22.1,0c-1.4,0-1.6,0.3-1.6,1.6
		C44.3,46.2,44.3,50.7,44.3,55.2z M39.8,27.1c8.1,0,16.1,0,24.2,0c1.5,0,3,0,4.6,0c0.7,0,1-0.3,1.1-0.9c0.1-0.7,0.1-1.5,0-2.2
		c-0.1-0.6-0.4-0.9-1.1-0.9c-0.2,0-0.5,0-0.7,0c-18.7,0-37.3,0-56,0c-0.2,0-0.4,0-0.6,0c-0.7,0-1.1,0.3-1.1,1c0,0.5,0,0.9,0,1.4
		c0,1.4,0.3,1.6,1.6,1.6C21.1,27.1,30.5,27.1,39.8,27.1z M26,69.8c0.7,0,1.4,0,2.1,0c2.6,0,5.2,0,7.7,0c0.5,0,0.8-0.2,0.7-0.7
		c0-0.4,0-0.7,0-1.1c0-1.5-0.8-2.3-2.3-2.3c-2,0-4,0-6,0c-3.5,0-7.1,0-10.6,0c-1.4,0-2.2,0.9-2.2,2.2c0,0.4,0,0.7,0,1.1
		c0,0.8,0,0.9,0.8,0.9C19.5,69.8,22.8,69.8,26,69.8z M53.9,20.8c-0.1-0.1-0.1-0.1-0.2-0.1c-6.5-2.2-13-4.3-19.5-6.5
		c-0.5-0.2-0.6,0-0.6,0.5c0,1.8,0,3.6,0,5.4c0,0.6,0.2,0.8,0.8,0.8c2.3,0,4.6,0,6.9,0C45.4,20.8,49.6,20.8,53.9,20.8z M57,63.6
		c-1.2,0-2.3,0-3.5,0c-0.5,0-0.7,0.2-0.7,0.7c0,1.6,0,3.2,0,4.9c0,0.6,0.2,0.7,0.7,0.7c2.3,0,4.6,0,6.9,0c0.5,0,0.8-0.2,0.7-0.7
		c0-1.6,0-3.2,0-4.9c0-0.6-0.2-0.7-0.7-0.7C59.3,63.6,58.1,63.6,57,63.6z M56.9,37.8c1.1,0,2.3,0,3.4,0c2.1,0,4.3,0,6.4,0
		c0.5,0,0.8-0.2,0.7-0.7c0-1-0.3-1.3-1.3-1.3c-6.2,0-12.3,0-18.5,0c-0.2,0-0.5,0-0.7,0.1c-0.5,0.2-0.8,0.8-0.6,1.5
		c0.1,0.6,0.6,0.4,0.9,0.4C50.5,37.9,53.7,37.8,56.9,37.8z M30.6,52.8c-0.1-0.1-0.1-0.2-0.2-0.3c-1.3-1.2-2.6-2.4-4-3.6
		c-0.3-0.3-0.5-0.2-0.8,0c-1.3,1.2-2.6,2.4-3.9,3.6c-0.3,0.3-0.3,0.5,0,0.7c1.3,1.2,2.6,2.4,3.9,3.6c0.3,0.3,0.5,0.3,0.8,0
		c1.3-1.2,2.6-2.4,4-3.6C30.5,53.1,30.6,53,30.6,52.8z M30.6,41.1c0-0.2-0.1-0.3-0.2-0.3c-1.3-1.2-2.6-2.4-4-3.6
		c-0.3-0.2-0.5-0.3-0.7,0c-1.3,1.2-2.7,2.4-4,3.7c-0.3,0.2-0.3,0.4,0,0.7c1.3,1.2,2.7,2.4,4,3.7c0.3,0.3,0.5,0.2,0.7,0
		c1.3-1.2,2.6-2.4,4-3.6C30.5,41.3,30.6,41.3,30.6,41.1z M30.4,29.5c-2.9,0-5.9,0-8.9,0c0.2,0.2,0.2,0.3,0.3,0.4
		c1.2,1.1,2.5,2.2,3.7,3.4c0.4,0.3,0.6,0.3,0.9,0c1.2-1.1,2.5-2.3,3.7-3.4C30.3,29.8,30.4,29.7,30.4,29.5z M30.5,20.7
		c0-0.1-0.1-0.2-0.1-0.2c-1.3-1.2-2.7-2.4-4-3.7c-0.3-0.3-0.5-0.1-0.7,0.1c-1.3,1.2-2.5,2.3-3.8,3.5c-0.1,0.1-0.2,0.1-0.1,0.3
		C24.6,20.7,27.5,20.7,30.5,20.7z M20.8,11.7c0,2.1,0,4,0,6c0,0.4,0.2,0.3,0.4,0.1c0.9-0.9,1.9-1.7,2.8-2.6c0.2-0.2,0.3-0.4,0-0.6
		C23,13.8,22,12.8,20.8,11.7z M20.8,43.7c0,2.1,0,4,0,5.9c0,0.1,0,0.3,0.1,0.3c0.1,0.1,0.2-0.1,0.3-0.2c0.9-0.9,1.9-1.7,2.8-2.6
		c0.2-0.2,0.3-0.3,0.1-0.5C23.1,45.8,22,44.8,20.8,43.7z M21,55.6c0,0-0.1,0-0.1,0.1c0,1.9,0,3.8,0,5.7c0,0.4,0.2,0.4,0.4,0.2
		c1-0.9,1.9-1.7,2.9-2.6c0.2-0.2,0.2-0.3,0-0.5C23,57.5,22,56.5,21,55.6z M20.9,38.4c1.1-1,2.1-1.9,3.1-2.9c0.3-0.2,0.2-0.4,0-0.6
		c-0.9-0.8-1.8-1.6-2.7-2.4c-0.1-0.1-0.2-0.3-0.4-0.2c-0.2,0.1-0.1,0.3-0.1,0.4c0,1.6,0,3.2,0,4.9C20.8,37.8,20.8,38.1,20.9,38.4z
		 M31.2,55.6c-0.1,0-0.1,0-0.2,0c-1,0.9-2,1.8-3,2.8c-0.3,0.3-0.1,0.4,0.1,0.6c0.9,0.8,1.8,1.6,2.7,2.4c0.1,0.1,0.2,0.3,0.4,0.2
		c0.2-0.1,0.1-0.3,0.1-0.5c0-1.5,0-3,0-4.5C31.3,56.3,31.3,56,31.2,55.6z M29.5,10.3c-2.4,0-4.5,0-6.9,0c1.1,1,2.2,2,3.2,2.9
		c0.2,0.2,0.3,0.2,0.5,0C27.3,12.3,28.3,11.3,29.5,10.3z M31.3,35.3c0-0.9,0-1.7,0-2.6c0-0.1,0-0.3-0.1-0.4
		c-0.2-0.1-0.3,0.1-0.4,0.2C29.9,33.3,29,34.1,28,35c-0.3,0.2-0.2,0.4,0,0.6c0.9,0.8,1.8,1.7,2.7,2.5c0.1,0.1,0.2,0.3,0.4,0.2
		c0.2-0.1,0.1-0.3,0.1-0.4C31.3,37,31.3,36.1,31.3,35.3z M31.3,15c0-0.9,0-1.7,0-2.6c0-0.2,0.1-0.4-0.1-0.4
		c-0.2-0.1-0.3,0.1-0.4,0.2c-0.9,0.8-1.8,1.7-2.7,2.5c-0.2,0.2-0.3,0.4,0,0.6c0.9,0.8,1.8,1.7,2.7,2.5c0.1,0.1,0.2,0.3,0.4,0.2
		c0.1-0.1,0.1-0.3,0.1-0.4C31.3,16.7,31.3,15.8,31.3,15z M31.3,47c0-0.9,0-1.7,0-2.6c0-0.1,0-0.3-0.1-0.4c-0.1,0-0.2,0.1-0.3,0.2
		C29.9,45,29,45.8,28,46.7c-0.2,0.2-0.2,0.3,0,0.5c0.9,0.9,1.9,1.7,2.8,2.6c0.1,0.1,0.2,0.2,0.4,0.1c0.1-0.1,0.1-0.2,0.1-0.3
		C31.3,48.7,31.3,47.8,31.3,47z M22.8,63.2c0,0.1,0,0.1,0.1,0.2c2,0,4,0,6.1,0c0.3,0,0.3-0.2,0.1-0.3c-0.9-0.8-1.8-1.7-2.8-2.5
		c-0.2-0.2-0.4-0.2-0.6,0C24.8,61.4,23.8,62.3,22.8,63.2z M18.5,15.9c-0.1,0-0.1-0.1-0.2-0.1c-1.2,1.5-2.4,3-3.5,4.6
		c-0.2,0.3,0,0.3,0.2,0.3c1,0,1.9,0,2.9,0c0.3,0,0.5-0.1,0.5-0.5C18.5,18.8,18.5,17.4,18.5,15.9z"/>
	<path class="st0" d="M62.8,59.3c-0.9,0-1.7,0-2.6,0c-1.4,0-2.3-0.9-2.3-2.3c0-1,0-2,0-3.1c0-1.2,0.8-2.1,2-2.2
		c1.9-0.1,3.8-0.1,5.7,0c1.3,0.1,2,1,2,2.2c0,1,0,2,0,3.1c0,1.3-0.9,2.2-2.2,2.3C64.6,59.3,63.7,59.3,62.8,59.3
		C62.8,59.3,62.8,59.3,62.8,59.3z M62.8,57C62.8,57,62.8,57,62.8,57c0.7,0,1.3,0,2,0c0.4,0,0.6-0.2,0.6-0.6c0-0.6,0-1.3,0-1.9
		c0-0.4-0.2-0.5-0.6-0.5c-1.3,0-2.6,0-3.9,0c-0.4,0-0.6,0.2-0.6,0.6c0,0.6,0,1.2,0,1.8c0,0.5,0.2,0.7,0.7,0.6
		C61.6,57,62.2,57,62.8,57z"/>
	<path class="st0" d="M62.8,49.7c-0.9,0-1.7,0-2.6,0c-1.3,0-2.2-0.9-2.2-2.3c0-1,0-2,0-3.1c0-1.3,0.9-2.2,2.2-2.3c1.7,0,3.5,0,5.2,0
		c1.3,0,2.2,0.9,2.2,2.2c0,1.1,0,2.1,0,3.2c0,1.3-0.9,2.2-2.2,2.2C64.6,49.7,63.7,49.7,62.8,49.7z M62.8,47.4c0.6,0,1.3,0,1.9,0
		c0.4,0,0.6-0.2,0.6-0.6c0-0.6,0-1.2,0-1.7c0-0.4-0.2-0.7-0.6-0.7c-1.3,0-2.6,0-3.9,0c-0.4,0-0.6,0.2-0.6,0.6c0,0.6,0,1.2,0,1.7
		c0,0.4,0.2,0.6,0.6,0.6C61.5,47.4,62.2,47.4,62.8,47.4z"/>
	<path class="st0" d="M51.1,59.3c-0.9,0-1.7,0-2.6,0c-1.4,0-2.3-0.9-2.3-2.3c0-1,0-2,0-3c0-1.3,0.8-2.2,2.1-2.3
		c1.8-0.1,3.7-0.1,5.5,0c1.4,0.1,2.1,0.9,2.1,2.3c0,1,0,2,0,3c0,1.3-0.9,2.2-2.2,2.3c0,0-0.1,0-0.1,0C52.8,59.3,51.9,59.3,51.1,59.3
		z M51.1,57c0.7,0,1.4,0,2.1,0c0.4,0,0.6-0.2,0.6-0.6c0-0.6,0-1.3,0-1.9c0-0.4-0.1-0.6-0.6-0.6c-1.3,0-2.7,0-4,0
		c-0.4,0-0.6,0.1-0.6,0.5c0,0.6,0,1.3,0,1.9c0,0.4,0.2,0.6,0.6,0.6C49.8,57,50.4,57,51.1,57z"/>
	<path class="st0" d="M51.1,42.1c0.9,0,1.7,0,2.6,0c1.3,0,2.2,0.9,2.2,2.2c0,1.1,0,2.2,0,3.2c0,1.2-0.9,2.1-2.1,2.2
		c-1.8,0-3.6,0-5.4,0c-1.2,0-2.1-1-2.1-2.2c0-1.1,0-2.2,0-3.2c0-1.2,0.9-2.1,2.2-2.2C49.3,42.1,50.2,42.1,51.1,42.1z M51.2,44.4
		C51.2,44.4,51.2,44.4,51.2,44.4c-0.7,0-1.4,0-2.1,0c-0.4,0-0.6,0.2-0.6,0.6c0,0.6,0,1.2,0,1.8c0,0.4,0.2,0.6,0.6,0.6
		c1.3,0,2.7,0,4,0c0.4,0,0.6-0.2,0.6-0.6c0-0.6,0-1.2,0-1.8c0-0.5-0.2-0.6-0.6-0.6C52.4,44.4,51.8,44.4,51.2,44.4z"/>
</g>

</svg>
