<svg width="80" height="80" viewBox="0 0 80 80" fill="none" xmlns="http://www.w3.org/2000/svg">
<style type="text/css">
	.st0{fill:#003C71;}
</style>
<g>
	<g>
		<path class="st0" d="M60.7,67.5c-0.6,0-1-0.5-1-1c0-0.6,0-1.3,0-1.9c0.1-10.1,0.1-16.8-15.5-20.7c-0.5-0.1-0.9-0.7-0.7-1.2
			c0.1-0.5,0.7-0.9,1.2-0.7c17.1,4.3,17.1,12.4,17,22.6c0,0.6,0,1.2,0,1.9C61.7,67,61.3,67.5,60.7,67.5"/>
		<path class="st0" d="M60.7,67.5c-0.6,0-1-0.5-1-1c0-0.6,0-1.3,0-1.9c0.1-10.1,0.1-16.8-15.5-20.7c-0.5-0.1-0.9-0.7-0.7-1.2
			c0.1-0.5,0.7-0.9,1.2-0.7c17.1,4.3,17.1,12.4,17,22.6c0,0.6,0,1.2,0,1.9C61.7,67,61.3,67.5,60.7,67.5z"/>
		<path class="st0" d="M9.3,67.5c-0.6,0-1-0.5-1-1c0-0.6,0-1.3,0-1.9C8.2,53.9,8.1,45.4,28,41.3c0.1,0,0.1,0,0.2,0h0h0
			c0.6,0,1,0.5,1,1c0,0.5-0.4,0.9-0.9,1C10.2,47,10.2,54,10.3,64.6c0,0.6,0,1.2,0,1.9C10.3,67,9.8,67.5,9.3,67.5"/>
		<path class="st0" d="M9.3,67.5c-0.6,0-1-0.5-1-1c0-0.6,0-1.3,0-1.9C8.2,53.9,8.1,45.4,28,41.3c0.1,0,0.1,0,0.2,0h0h0
			c0.6,0,1,0.5,1,1c0,0.5-0.4,0.9-0.9,1C10.2,47,10.2,54,10.3,64.6c0,0.6,0,1.2,0,1.9C10.3,67,9.8,67.5,9.3,67.5z"/>
		<path class="st0" d="M51.8,21.2c-0.6,0-1-0.4-1-1c-0.1-7.3-5-14.7-15.8-14.7s-15.7,7.4-15.8,14.7c0,0.6-0.4,1-1,1
			c-0.6,0-1-0.5-1-1C17.3,10.4,24.7,3.5,35,3.5c10.3,0,17.7,6.9,17.8,16.7C52.8,20.7,52.3,21.2,51.8,21.2L51.8,21.2z"/>
		<path class="st0" d="M51.8,21.2c-0.6,0-1-0.4-1-1c-0.1-7.3-5-14.7-15.8-14.7s-15.7,7.4-15.8,14.7c0,0.6-0.4,1-1,1
			c-0.6,0-1-0.5-1-1C17.3,10.4,24.7,3.5,35,3.5c10.3,0,17.7,6.9,17.8,16.7C52.8,20.7,52.3,21.2,51.8,21.2L51.8,21.2z"/>
		<path class="st0" d="M47.1,26.5c-2,0-4.3-0.4-4.7-0.4c-2.8-0.5-9-1.9-12.4-5.8c-1.4,4.1-4.2,5-6.6,5.7l-0.3,0.1
			c-0.1,0-0.3,0.1-0.4,0c-0.1,0-0.3,0-0.3,0h0c-0.5,0.1-1-0.1-1.2-0.6c-0.2-0.5,0.1-1.1,0.6-1.3c0.2-0.1,0.5-0.1,0.6-0.1
			c0.1,0,0.3,0,0.3,0l0.1,0c2.7-0.9,5-1.6,5.8-6.4c0.1-0.4,0.4-0.8,0.8-0.8c0.4-0.1,0.9,0.2,1.1,0.5c3.3,6.5,16.5,7.5,18.1,7
			c0.4-0.3,1-0.2,1.3,0.1c0.4,0.4,0.4,1,0,1.4C49.5,26.4,48.4,26.5,47.1,26.5 M48.5,24.5C48.5,24.5,48.5,24.5,48.5,24.5
			C48.5,24.5,48.5,24.5,48.5,24.5"/>
		<path class="st0" d="M47.1,26.5c-2,0-4.3-0.4-4.7-0.4c-2.8-0.5-9-1.9-12.4-5.8c-1.4,4.1-4.2,5-6.6,5.7l-0.3,0.1
			c-0.1,0-0.3,0.1-0.4,0c-0.1,0-0.3,0-0.3,0h0c-0.5,0.1-1-0.1-1.2-0.6c-0.2-0.5,0.1-1.1,0.6-1.3c0.2-0.1,0.5-0.1,0.6-0.1
			c0.1,0,0.3,0,0.3,0l0.1,0c2.7-0.9,5-1.6,5.8-6.4c0.1-0.4,0.4-0.8,0.8-0.8c0.4-0.1,0.9,0.2,1.1,0.5c3.3,6.5,16.5,7.5,18.1,7
			c0.4-0.3,1-0.2,1.3,0.1c0.4,0.4,0.4,1,0,1.4C49.5,26.4,48.4,26.5,47.1,26.5z M48.5,24.5C48.5,24.5,48.5,24.5,48.5,24.5
			C48.5,24.5,48.5,24.5,48.5,24.5z M48.7,24.4"/>
		<path class="st0" d="M45.8,37.8c-0.1,0-0.3,0-0.4-0.1c-0.5-0.2-0.7-0.9-0.5-1.4c0.8-1.6,1.4-3.4,1.8-5.1c0.1-0.4,0.4-0.7,0.8-0.8
			l1.5-0.3c0.5-0.1,1.1,0.3,1.2,0.8c0.1,0.5-0.3,1.1-0.8,1.2l-0.9,0.2c-0.4,1.7-1,3.4-1.8,4.9C46.6,37.5,46.2,37.8,45.8,37.8"/>
		<path class="st0" d="M45.8,37.8c-0.1,0-0.3,0-0.4-0.1c-0.5-0.2-0.7-0.9-0.5-1.4c0.8-1.6,1.4-3.4,1.8-5.1c0.1-0.4,0.4-0.7,0.8-0.8
			l1.5-0.3c0.5-0.1,1.1,0.3,1.2,0.8c0.1,0.5-0.3,1.1-0.8,1.2l-0.9,0.2c-0.4,1.7-1,3.4-1.8,4.9C46.6,37.5,46.2,37.8,45.8,37.8z"/>
		<path class="st0" d="M35,46c-3.6-0.1-6.8-1.8-9.4-5c-1.9-2.4-3.4-5.6-4.2-8.9h-0.6c-0.6,0-1-0.5-1-1c0-0.6,0.5-1,1-1h1.4
			c0.5,0,0.9,0.3,1,0.8c1.3,6.2,5.6,13,11.8,13.1c0.4,0,0.9-0.1,1.3-0.1c0.5-0.1,1.1,0.3,1.2,0.8c0.1,0.6-0.3,1.1-0.8,1.2
			C36.2,46,35.6,46,35,46"/>
		<path class="st0" d="M35,46c-3.6-0.1-6.8-1.8-9.4-5c-1.9-2.4-3.4-5.6-4.2-8.9h-0.6c-0.6,0-1-0.5-1-1c0-0.6,0.5-1,1-1h1.4
			c0.5,0,0.9,0.3,1,0.8c1.3,6.2,5.6,13,11.8,13.1c0.4,0,0.9-0.1,1.3-0.1c0.5-0.1,1.1,0.3,1.2,0.8c0.1,0.6-0.3,1.1-0.8,1.2
			C36.2,46,35.6,46,35,46z"/>
		<path class="st0" d="M51.5,35.7c-0.6,0-1.2-0.2-1.8-0.5c-1-0.6-1.5-1.7-1.5-2.8v-9.6c0-1.3,0.7-2.4,1.8-3.1c1.1-0.6,2.4-0.7,3.5,0
			c2.8,1.6,4.5,4.5,4.5,7.7c0,3.4-2,6.6-5.2,8C52.4,35.6,52,35.7,51.5,35.7 M51.8,21.2c-0.3,0-0.5,0.1-0.8,0.2
			c-0.5,0.3-0.8,0.8-0.8,1.3v9.6c0,0.4,0.2,0.8,0.6,1.1c0.4,0.2,0.8,0.3,1.2,0.1c2.4-1.1,4-3.5,4-6.2c0-2.5-1.3-4.8-3.5-6
			C52.3,21.3,52,21.2,51.8,21.2"/>
		<path class="st0" d="M51.5,35.7c-0.6,0-1.2-0.2-1.8-0.5c-1-0.6-1.5-1.7-1.5-2.8v-9.6c0-1.3,0.7-2.4,1.8-3.1c1.1-0.6,2.4-0.7,3.5,0
			c2.8,1.6,4.5,4.5,4.5,7.7c0,3.4-2,6.6-5.2,8C52.4,35.6,52,35.7,51.5,35.7z M51.8,21.2c-0.3,0-0.5,0.1-0.8,0.2
			c-0.5,0.3-0.8,0.8-0.8,1.3v9.6c0,0.4,0.2,0.8,0.6,1.1c0.4,0.2,0.8,0.3,1.2,0.1c2.4-1.1,4-3.5,4-6.2c0-2.5-1.3-4.8-3.5-6
			C52.3,21.3,52,21.2,51.8,21.2z"/>
		<path class="st0" d="M18.5,35.7c-0.5,0-0.9-0.1-1.4-0.3C14,34,12,30.8,12,27.4c0-3.2,1.7-6.2,4.5-7.7c1.1-0.6,2.5-0.6,3.5,0
			c1.1,0.6,1.8,1.8,1.8,3.1v9.6c0,1.1-0.6,2.2-1.5,2.8C19.7,35.5,19.1,35.7,18.5,35.7 M18.2,21.2c-0.3,0-0.5,0.1-0.7,0.2
			c-2.2,1.2-3.5,3.5-3.5,6c0,2.7,1.6,5.1,4,6.2c0.4,0.2,0.9,0.1,1.2-0.1c0.4-0.2,0.6-0.6,0.6-1.1v-9.6c0-0.5-0.3-1.1-0.8-1.3
			C18.8,21.3,18.5,21.2,18.2,21.2"/>
		<path class="st0" d="M18.5,35.7c-0.5,0-0.9-0.1-1.4-0.3C14,34,12,30.8,12,27.4c0-3.2,1.7-6.2,4.5-7.7c1.1-0.6,2.5-0.6,3.5,0
			c1.1,0.6,1.8,1.8,1.8,3.1v9.6c0,1.1-0.6,2.2-1.5,2.8C19.7,35.5,19.1,35.7,18.5,35.7z M18.2,21.2c-0.3,0-0.5,0.1-0.7,0.2
			c-2.2,1.2-3.5,3.5-3.5,6c0,2.7,1.6,5.1,4,6.2c0.4,0.2,0.9,0.1,1.2-0.1c0.4-0.2,0.6-0.6,0.6-1.1v-9.6c0-0.5-0.3-1.1-0.8-1.3
			C18.8,21.3,18.5,21.2,18.2,21.2z"/>
		<path class="st0" d="M35,67.5c-0.2,0-0.4,0-0.5-0.1c-0.4-0.3-0.6-0.8-0.4-1.2l9.5-23.5c0.1-0.3,0.4-0.6,0.8-0.6
			c0.4,0,0.7,0.1,0.9,0.4l7.1,9.7c0.2,0.3,0.3,0.7,0.1,1.1c-0.2,0.3-0.5,0.6-0.9,0.6h-4.4L35.8,67.1C35.6,67.4,35.3,67.5,35,67.5
			 M44.7,45l-6.4,16l7.7-9.1c0.2-0.2,0.5-0.4,0.8-0.4h2.9L44.7,45z"/>
		<path class="st0" d="M35,67.5c-0.2,0-0.4,0-0.5-0.1c-0.4-0.3-0.6-0.8-0.4-1.2l9.5-23.5c0.1-0.3,0.4-0.6,0.8-0.6
			c0.4,0,0.7,0.1,0.9,0.4l7.1,9.7c0.2,0.3,0.3,0.7,0.1,1.1c-0.2,0.3-0.5,0.6-0.9,0.6h-4.4L35.8,67.1C35.6,67.4,35.3,67.5,35,67.5z
			 M44.7,45l-6.4,16l7.7-9.1c0.2-0.2,0.5-0.4,0.8-0.4h2.9L44.7,45z"/>
		<path class="st0" d="M35,67.5c-0.3,0-0.6-0.1-0.8-0.4L22.8,53.6h-4.4c-0.4,0-0.7-0.2-0.9-0.6c-0.2-0.3-0.1-0.8,0.1-1.1l7.1-9.7
			c0.2-0.3,0.6-0.5,0.9-0.4c0.4,0,0.7,0.3,0.8,0.6l9.5,23.5c0.2,0.5,0,1-0.4,1.2C35.4,67.5,35.2,67.5,35,67.5 M20.4,51.6h2.9
			c0.3,0,0.6,0.1,0.8,0.4l7.7,9.1l-6.4-16L20.4,51.6z"/>
		<path class="st0" d="M35,67.5c-0.3,0-0.6-0.1-0.8-0.4L22.8,53.6h-4.4c-0.4,0-0.7-0.2-0.9-0.6c-0.2-0.3-0.1-0.8,0.1-1.1l7.1-9.7
			c0.2-0.3,0.6-0.5,0.9-0.4c0.4,0,0.7,0.3,0.8,0.6l9.5,23.5c0.2,0.5,0,1-0.4,1.2C35.4,67.5,35.2,67.5,35,67.5z M20.4,51.6h2.9
			c0.3,0,0.6,0.1,0.8,0.4l7.7,9.1l-6.4-16L20.4,51.6z"/>
		<path class="st0" d="M39.6,43.6h-1.5c-2,0-3.6-1.6-3.6-3.6c0-2,1.6-3.6,3.6-3.6h1.5c2,0,3.6,1.6,3.6,3.6
			C43.2,42,41.6,43.6,39.6,43.6 M38.1,38.5c-0.9,0-1.6,0.7-1.6,1.5c0,0.9,0.7,1.6,1.6,1.6h1.5c0.9,0,1.6-0.7,1.6-1.6
			c0-0.9-0.7-1.5-1.6-1.5H38.1z"/>
		<path class="st0" d="M39.6,43.6h-1.5c-2,0-3.6-1.6-3.6-3.6c0-2,1.6-3.6,3.6-3.6h1.5c2,0,3.6,1.6,3.6,3.6
			C43.2,42,41.6,43.6,39.6,43.6z M38.1,38.5c-0.9,0-1.6,0.7-1.6,1.5c0,0.9,0.7,1.6,1.6,1.6h1.5c0.9,0,1.6-0.7,1.6-1.6
			c0-0.9-0.7-1.5-1.6-1.5H38.1z"/>
		<path class="st0" d="M43.9,41h-1.7c-0.6,0-1-0.5-1-1c0-0.6,0.5-1,1-1h1.7c0.6,0,1.2-0.1,1.7-0.4c1.6-0.7,2.6-2.2,2.6-3.9v-3.6
			c0-0.6,0.5-1,1-1c0.6,0,1,0.5,1,1v3.6c0,2.5-1.5,4.8-3.8,5.8C45.6,40.9,44.8,41,43.9,41"/>
		<path class="st0" d="M43.9,41h-1.7c-0.6,0-1-0.5-1-1c0-0.6,0.5-1,1-1h1.7c0.6,0,1.2-0.1,1.7-0.4c1.6-0.7,2.6-2.2,2.6-3.9v-3.6
			c0-0.6,0.5-1,1-1c0.6,0,1,0.5,1,1v3.6c0,2.5-1.5,4.8-3.8,5.8C45.6,40.9,44.8,41,43.9,41z"/>
		<path class="st0" d="M50.5,21.6c-0.6,0-1-0.5-1-1C49.5,11.8,39.9,9,35.3,9h-0.6c-4.6,0-14.2,2.8-14.2,11.5c0,0.6-0.5,1-1,1
			c-0.6,0-1-0.5-1-1C18.5,11.2,28,7,34.7,7h0.6c6.7,0,16.2,4.2,16.2,13.6C51.5,21.1,51,21.6,50.5,21.6"/>
		<path class="st0" d="M50.5,21.6c-0.6,0-1-0.5-1-1C49.5,11.8,39.9,9,35.3,9h-0.6c-4.6,0-14.2,2.8-14.2,11.5c0,0.6-0.5,1-1,1
			c-0.6,0-1-0.5-1-1C18.5,11.2,28,7,34.7,7h0.6c6.7,0,16.2,4.2,16.2,13.6C51.5,21.1,51,21.6,50.5,21.6z"/>
		<path class="st0" d="M52.5,67.5c-0.6,0-1-0.5-1-1v-5.8c0-0.6,0.5-1,1-1c0.6,0,1,0.5,1,1v5.8C53.5,67,53,67.5,52.5,67.5"/>
		<path class="st0" d="M52.5,67.5c-0.6,0-1-0.5-1-1v-5.8c0-0.6,0.5-1,1-1c0.6,0,1,0.5,1,1v5.8C53.5,67,53,67.5,52.5,67.5z"/>
		<path class="st0" d="M17.5,67.5c-0.6,0-1-0.5-1-1v-5.8c0-0.6,0.5-1,1-1c0.6,0,1,0.5,1,1v5.8C18.6,67,18.1,67.5,17.5,67.5"/>
		<path class="st0" d="M17.5,67.5c-0.6,0-1-0.5-1-1v-5.8c0-0.6,0.5-1,1-1c0.6,0,1,0.5,1,1v5.8C18.6,67,18.1,67.5,17.5,67.5z"/>
		<path class="st0" d="M52.5,46.8c-0.6,0-1-0.5-1-1V34.5c0-0.6,0.5-1,1-1c0.6,0,1,0.5,1,1v11.3C53.5,46.4,53,46.8,52.5,46.8"/>
		<path class="st0" d="M52.5,46.8c-0.6,0-1-0.5-1-1V34.5c0-0.6,0.5-1,1-1c0.6,0,1,0.5,1,1v11.3C53.5,46.4,53,46.8,52.5,46.8z"/>
		<path class="st0" d="M17.6,46.1c-0.6,0-1-0.5-1-1V34.5c0-0.6,0.5-1,1-1c0.6,0,1,0.5,1,1v10.6C18.6,45.6,18.1,46.1,17.6,46.1"/>
		<path class="st0" d="M17.6,46.1c-0.6,0-1-0.5-1-1V34.5c0-0.6,0.5-1,1-1c0.6,0,1,0.5,1,1v10.6C18.6,45.6,18.1,46.1,17.6,46.1z"/>
		<path class="st0" d="M42.3,30.7c-0.3,0-0.6-0.1-0.8-0.3c-0.4-0.4-0.8-0.6-1.3-0.6h0c-0.5,0-1,0.2-1.3,0.5c-0.4,0.4-1.1,0.4-1.6,0
			c-0.4-0.4-0.4-1.1,0-1.6c0.8-0.8,1.8-1.2,2.9-1.2c1.1,0,2.1,0.4,2.9,1.2c0.4,0.4,0.4,1.1,0,1.6C42.9,30.6,42.6,30.7,42.3,30.7"/>
		<path class="st0" d="M27.7,30.7c-0.3,0-0.6-0.1-0.8-0.3c-0.4-0.4-0.4-1.1,0-1.6c0.8-0.8,1.8-1.2,2.9-1.2h0c1.1,0,2.1,0.4,2.9,1.2
			c0.4,0.4,0.4,1.1,0,1.6c-0.4,0.4-1.1,0.4-1.6,0c-0.3-0.3-0.8-0.5-1.3-0.5h0c-0.5,0-1,0.2-1.3,0.6C28.3,30.6,28,30.7,27.7,30.7"/>
	</g>
</g>
<defs>
<clipPath id="clip0">
<rect width="80" height="80" fill="white"/>
</clipPath>
</defs>
</svg>
