<svg width="80" height="80" viewBox="0 0 80 80" fill="none" xmlns="http://www.w3.org/2000/svg">
<style type="text/css">
	.st0{fill:#003C71;}
</style>
<g>
	<path class="st0" d="M7.9,69.1c0-10.1,0-20.3,0-30.4c0.4-0.7,0.3-1.5,0.4-2.2c0.3-4.2,0.6-8.3,1-12.5c0.2-3,0.4-6,0.7-9
		c0.1-1.2,0.9-2.1,2.1-2.2c0.8,0,1.7,0,2.5,0c1.1,0.1,2,0.9,2.1,2c0.2,2.2,0.3,4.4,0.5,6.5c0.2,3.2,0.4,6.4,0.7,9.6
		c0.2,3.4,0.5,6.9,0.7,10.3c0,0.3,0,0.6,0.2,0.8c0.2,0.3,0.5,0.5,0.8,0.5c0.3-0.1,0.2-0.4,0.2-0.7c0-5.4,0-10.8,0-16.2
		c0-0.5-0.1-0.9-0.6-1.2c-0.6-0.4-0.7-1.3-0.1-1.7c0.6-0.4,0.7-0.8,0.8-1.4c0.5-2.5,2-4.2,4.5-5c0.6-0.2,0.8-0.4,0.7-1
		c0-0.4,0-0.8,0-1.2c0.1-2.4,1.6-4.3,4.1-4.4c3.1-0.2,6.2-0.2,9.3,0c2.2,0.1,3.8,2,3.8,4.1c0,0.6,0,1.1,0,1.7c0,0.4,0.2,0.6,0.6,0.7
		c2.7,0.8,4.3,2.6,4.7,5.4c0.1,0.6,0.3,0.8,0.9,0.8c0.8,0,1.3,0.4,1.3,1.1c0,0.6-0.4,1.1-1.2,1.2c-0.9,0.1-0.9,0.1-0.9,1
		c0,0.9,0,0.9,0.9,0.9c2.8,0,5.7,0,8.5,0c1.2,0,2.4,0.4,3.4,1.1c1.5,1.1,2.1,2.7,2.1,4.5c0,0.6,0.3,0.9,0.8,1c1.1,0.2,2,0.6,2.9,1.1
		c2.7,1.7,4.3,4.1,4.6,7.3c0.1,0.5,0.1,0.9,0.7,1.2c0.7,0.4,0.7,1.3,0,1.7c-0.5,0.3-0.6,0.7-0.6,1.2c0,7,0,14,0,21
		c0,2.2-1.3,3.6-3.5,3.6c-4.1,0.1-8.3,0-12.4,0c-2.1,0-3.3-1.2-3.4-3.3c0-0.4,0-0.7,0-1.1c0-6.1,0-12.3,0-18.4c0-0.7,0-1.5,0-2.2
		c0-0.3-0.1-0.6-0.4-0.8c-0.9-0.6-0.8-1.5,0-2c0.3-0.2,0.4-0.4,0.5-0.7c0.2-2.7,1.3-4.9,3.4-6.7c1.3-1.1,2.7-1.8,4.4-2.1
		c0.3-0.1,0.7,0,0.7-0.5c0.3-2-1.1-3.8-3.1-3.8c-2.9,0-5.9,0-8.8,0c-0.5,0-0.7,0.2-0.7,0.7c0,5.5,0,11,0,16.6c0,0.4,0.1,0.6,0.5,0.8
		c1.1,0.4,1.6,1.1,1.6,2.3c0,6.3,0,12.6,0,18.9c0,0.6-0.1,1.1-0.5,1.5c-0.6,0.8-1.4,0.9-2.3,0.9c-12,0-24.1,0-36.1,0
		C9.4,70.6,8.5,70.2,7.9,69.1z M68.6,56.4c0-3.5,0-7,0-10.6c0-0.8,0-0.9-0.9-0.9c-0.1,0-0.2,0-0.3,0c-0.6-0.1-0.8,0.2-0.8,0.8
		c0,1.6,0,3.3,0,4.9c0,0.3,0,0.6-0.1,0.9c-0.2,0.5-0.6,0.8-1.1,0.8c-0.6,0-0.9-0.4-1-0.9c-0.1-0.2,0-0.5,0-0.7c0-1.7,0-3.4,0-5.1
		c0-0.6-0.2-0.8-0.8-0.8c-3,0-6,0-9,0c-0.6,0-0.8,0.2-0.8,0.8c0,7,0,14,0,21.1c0,1.1,0.4,1.5,1.5,1.5c2.7,0,5.4,0,8.1,0
		c0.9,0,0.9,0,0.9-0.9c0-3.2,0-6.3,0-9.5c0-0.8,0.5-1.3,1.1-1.3c0.6,0,1.1,0.5,1.2,1.2c0,0.2,0,0.5,0,0.7c0,2.1,0,4.1,0,6.2
		c0,1,0,2,0,3c0,0.4,0.2,0.6,0.6,0.6c0.9,0,1.3-0.4,1.3-1.3C68.6,63.5,68.6,59.9,68.6,56.4z M28.6,68.3c5.9,0,11.8,0,17.7,0
		c0.9,0,0.9,0,0.9-0.9c0-4,0-7.9,0-11.9c0-0.9,0-0.9-0.9-0.9c-11.8,0-23.5,0-35.3,0c-0.8,0-0.9,0-0.9,0.9c0,4,0,8,0,11.9
		c0,0.9,0,0.9,0.9,0.9C16.9,68.3,22.7,68.3,28.6,68.3z M28.6,52.3c1,0,2,0,3,0c4.9,0,9.8,0,14.7,0c0.8,0,0.9,0,0.9-0.9
		c0-0.5,0-1,0-1.6c0-0.4-0.2-0.6-0.6-0.6c-0.9,0-1.7,0-2.6,0c-0.9,0.1-1.6-0.2-2.4-0.7c-4.6-2.9-9.3-5.8-13.9-8.7
		c-0.5-0.3-0.6-0.3-0.6,0.3c0,2,0,4,0,6.1c0,0.5,0.2,0.7,0.7,0.7c1.7,0,3.4,0,5.1,0c0.3,0,0.5,0,0.8,0.1c0.5,0.2,0.8,0.6,0.8,1.1
		c0,0.5-0.3,0.9-0.8,1c-0.3,0.1-0.6,0.1-0.9,0.1c-2.1,0-4.2,0-6.4,0c-0.6,0-1.1-0.2-1.6-0.5c-1.8-1.2-3.6-2.3-5.4-3.4
		c-2.9-1.8-5.8-3.6-8.6-5.4c-0.4-0.2-0.5-0.3-0.6,0.3c-0.2,2-0.2,3.9-0.2,5.9c0,0.8,0,0.8,0.9,0.8c1.1,0,2.3,0,3.4,0
		c0.7,0,1.4,0,2.1,0c0.7,0,1.1,0.5,1.1,1.1c0,0.6-0.4,1.1-1.1,1.1c-0.2,0-0.5,0-0.7,0c-1.7,0-3.3,0-5,0c-0.5,0-0.7,0.2-0.7,0.7
		c0,0.5,0,1,0,1.5c0,0.8,0,0.9,0.9,0.9C16.9,52.3,22.8,52.3,28.6,52.3z M45.1,35.8c0-3.4,0-6.9,0-10.3c0-0.8-0.1-0.8-0.8-0.8
		c-2.2,0-4.4,0-6.7,0c-0.8,0-0.8,0.1-0.8,0.8c0,5.5,0,11.1,0,16.6c0,0.5,0.2,0.8,0.6,1c1.8,1.1,3.6,2.2,5.3,3.3
		c0.5,0.3,1,0.5,1.6,0.4c0.8,0,0.8,0,0.9-0.9C45.1,42.6,45.1,39.2,45.1,35.8z M30.2,31.7c0-2.1,0-4.2,0-6.3c0-0.4-0.1-0.7-0.6-0.7
		c-2.4,0-4.8,0-7.2,0c-0.5,0-0.6,0.2-0.6,0.6c0,6.1,0,12.2,0,18.3c0,0.4,0.1,0.6,0.4,0.8c0.7,0.4,1.3,0.8,2,1.2
		c0.2,0.1,0.4,0.3,0.5,0.2c0.2-0.1,0.1-0.4,0.1-0.6c0-1.9,0-3.8,0-5.8c0-1.9,1.8-2.9,3.4-1.9c0.4,0.2,0.8,0.5,1.3,0.8
		c0.2,0.1,0.3,0.3,0.5,0.2c0.2-0.1,0.1-0.4,0.1-0.6C30.2,35.8,30.2,33.8,30.2,31.7z M13.3,15c-1,0-1.1,0-1.2,0.8
		c-0.2,3-0.4,6.1-0.7,9.1c-0.1,2-0.3,4-0.5,6c-0.1,1.8-0.3,3.7-0.4,5.5c0,0.3-0.1,0.6,0.3,0.8c1.6,1,3.2,1.9,4.7,2.9
		c0.1,0.1,0.3,0.3,0.4,0.1c0.1-0.1,0.1-0.3,0.1-0.5c-0.1-0.9-0.2-1.8-0.2-2.7c-0.2-3.2-0.4-6.4-0.7-9.6c-0.3-3.8-0.6-7.6-0.8-11.4
		C14.3,15.1,14.3,15,13.3,15z M61.1,42.6c2.2,0,4.5,0,6.7,0c0.7,0,0.8-0.1,0.7-0.8c-0.5-3.8-3.6-6.5-7.4-6.5c-3.7,0-6.8,2.8-7.2,6.5
		c-0.1,0.7-0.1,0.8,0.7,0.8C56.7,42.6,58.9,42.6,61.1,42.6z M27.2,14.6c0,0.3,0,0.5,0,0.8c0,0.4,0.2,0.6,0.6,0.7
		c2.7,0.9,4.3,2.7,4.7,5.5c0,0.2,0,0.5,0.3,0.6c0.5,0.1,1,0.1,1.5,0c0.4-0.1,0.3-0.6,0.3-0.9c0.4-2.3,1.7-3.8,3.7-4.9
		c0.5-0.3,1.3-0.1,1.5-0.8c0.1-0.6,0-1.2,0-1.8c0-0.1,0-0.2-0.1-0.4c-0.2-1-1-1.7-2-1.7c-2.8,0-5.7,0-8.5,0c-1.2,0-2,0.9-2.1,2.1
		C27.2,14.2,27.2,14.4,27.2,14.6z M34.5,33c0-2.5,0-5,0-7.6c0-0.3,0.1-0.6-0.2-0.7c-0.5-0.2-1-0.2-1.5,0c-0.4,0.2-0.3,0.6-0.3,1
		c0,4.3,0,8.6,0,12.9c0,1.2,0.3,1.9,1.3,2.3c0.2,0.1,0.3,0.3,0.5,0.2c0.2-0.1,0.1-0.4,0.1-0.6C34.5,38,34.5,35.5,34.5,33z M26,22.4
		c1.2,0,2.4,0,3.6,0c0.3,0,0.6,0,0.6-0.5c-0.2-2-2-3.6-4.1-3.6c-2-0.1-3.9,1.5-4.2,3.5c-0.1,0.5,0.1,0.6,0.5,0.6
		C23.6,22.3,24.8,22.4,26,22.4z M40.9,22.4c1.2,0,2.3,0,3.5,0c0.7,0,0.8-0.2,0.7-0.8c-0.4-1.9-2.1-3.3-4.1-3.3c-2,0-3.7,1.4-4.1,3.3
		c-0.1,0.6,0,0.8,0.6,0.8C38.6,22.4,39.7,22.4,40.9,22.4z"/>
	<path class="st0" d="M40.4,66.2c-0.9,0-1.7,0-2.6,0c-1.3,0-2.2-0.8-2.2-2c-0.1-1.9-0.1-3.8,0-5.7c0.1-1.1,1-1.9,2.1-1.9
		c1.8,0,3.7,0,5.5,0c1.2,0,2.1,0.9,2.1,2.1c0,1.8,0,3.6,0,5.4c0,1.3-0.9,2.1-2.2,2.1C42.2,66.2,41.3,66.2,40.4,66.2z M40.4,64
		c0.7,0,1.3,0,2,0c0.4,0,0.6-0.2,0.6-0.6c0-1.3,0-2.7,0-4c0-0.4-0.2-0.6-0.6-0.6c-1.3,0-2.7,0-4,0c-0.4,0-0.6,0.1-0.6,0.5
		c0,1.4,0,2.7,0,4.1c0,0.4,0.2,0.5,0.5,0.5C39,64,39.7,64,40.4,64z"/>
	<path class="st0" d="M16.9,66.2c-0.9,0-1.8,0-2.7,0c-1.2,0-2.1-0.9-2.1-2.1c0-1.8,0-3.6,0-5.4c0-1.2,0.9-2.2,2.1-2.2
		c1.8,0,3.7,0,5.5,0c1.2,0,2.1,1,2.1,2.2c0,1.8,0,3.5,0,5.3c0,1.3-0.9,2.2-2.2,2.2C18.7,66.2,17.8,66.2,16.9,66.2
		C16.9,66.2,16.9,66.2,16.9,66.2z M19.5,61.5C19.5,61.5,19.5,61.5,19.5,61.5c0-0.7,0-1.4,0-2.1c0-0.4-0.2-0.6-0.6-0.6
		c-1.3,0-2.6,0-3.9,0c-0.4,0-0.6,0.2-0.6,0.6c0,1.4,0,2.7,0,4.1c0,0.4,0.2,0.6,0.6,0.6c1.3,0,2.6,0,3.9,0c0.5,0,0.6-0.2,0.6-0.6
		C19.5,62.7,19.5,62.1,19.5,61.5z"/>
	<path class="st0" d="M28.7,66.2c-0.9,0-1.8,0-2.7,0c-1.2,0-2.1-0.9-2.1-2.2c0-1.8,0-3.6,0-5.4c0-1.2,0.9-2.2,2.1-2.2
		c1.8,0,3.6,0,5.4,0c1.2,0,2.1,0.9,2.2,2.2c0,1.8,0,3.6,0,5.4c0,1.2-0.9,2.1-2.1,2.1C30.5,66.2,29.6,66.2,28.7,66.2z M28.6,64
		c0.7,0,1.4,0,2.1,0c0.4,0,0.6-0.2,0.6-0.6c0-1.3,0-2.7,0-4c0-0.4-0.2-0.6-0.6-0.6c-1.3,0-2.7,0-4,0c-0.4,0-0.6,0.1-0.6,0.5
		c0,1.4,0,2.7,0,4.1c0,0.4,0.2,0.5,0.5,0.5C27.3,64,27.9,64,28.6,64z"/>
</g>
<defs>
<clipPath id="clip0">
<rect width="80" height="80" fill="white"/>
</clipPath>
</defs>
</svg>
