<svg width="70" height="70" viewBox="0 0 70 70" fill="none" xmlns="http://www.w3.org/2000/svg">
<style type="text/css">
	.st0{fill:#FF0024;}
</style>
<g>
	<path class="st0" d="M63.2,67.5H6.8V11h8.5v3.8h-4.8v49h49v-49h-4.9V11h8.6V67.5z M18,22.4V7.2h11.6c0.2-0.5,0.5-1,0.9-1.5
		c0.3-0.5,0.7-0.9,1.2-1.2c0.5-0.3,1-0.6,1.6-0.8c0.6-0.2,1.2-0.2,1.8-0.2c0.6,0,1.2,0.1,1.8,0.2c0.6,0.2,1.1,0.4,1.6,0.8
		c0.5,0.3,0.9,0.8,1.2,1.2c0.3,0.5,0.6,1,0.9,1.5H52v15.1H18z M36.9,11V9.1c0-0.2,0-0.5-0.1-0.7c-0.1-0.2-0.2-0.4-0.4-0.6
		c-0.2-0.2-0.4-0.4-0.6-0.4c-0.2-0.1-0.5-0.1-0.8-0.1s-0.5,0-0.8,0.1c-0.2,0.1-0.5,0.2-0.6,0.4c-0.2,0.2-0.3,0.4-0.4,0.6
		c-0.1,0.2-0.1,0.4-0.1,0.7V11H21.9v7.5h26.2V11H36.9z"/>
</g>
<defs>
<clipPath id="clip0">
<rect width="69.1892" height="69.1892" fill="white" transform="translate(0.810791)"/>
</clipPath>
</defs>
</svg>
