<svg width="70" height="70" viewBox="0 0 70 70" fill="none" xmlns="http://www.w3.org/2000/svg">
<style type="text/css">
	.st0{fill:#FF0024;}
</style>
<g>
	<path class="st0" d="M62,26.1c0.7,0.1,1.3,0.3,1.9,0.6c0.6,0.3,1.2,0.8,1.6,1.2c0.5,0.5,0.8,1.1,1.1,1.7S67,31,67,31.8v15
		c0,0.8-0.1,1.6-0.4,2.2c-0.3,0.7-0.7,1.2-1.2,1.8s-1.1,0.9-1.8,1.2c-0.7,0.3-1.4,0.5-2.2,0.5h-5.6v-3.9H52V29.9h3.8v-3.8H58
		c-0.8-2.8-2-5.4-3.6-7.7c-1.5-2.3-3.3-4.3-5.3-5.9c-2-1.7-4.2-3-6.6-3.9c-2.4-0.9-4.9-1.4-7.5-1.4c-2.6,0-5.1,0.5-7.5,1.4
		c-2.4,0.9-4.6,2.2-6.6,3.9c-2,1.7-3.8,3.6-5.3,5.9c-1.5,2.3-2.7,4.9-3.6,7.7h2.2v3.8H18v18.8h-3.8v3.9h-4c0.2,1,0.6,2,1.2,2.9
		c0.5,0.9,1.2,1.7,2.1,2.4c0.8,0.7,1.8,1.2,2.8,1.6s2.1,0.6,3.2,0.6h10.2c0.2-0.6,0.4-1.1,0.8-1.6c0.3-0.5,0.7-0.9,1.2-1.2
		c0.5-0.3,1-0.6,1.6-0.8c0.6-0.2,1.2-0.2,1.8-0.2h11.2c0.8,0,1.6,0.1,2.2,0.4c0.7,0.3,1.2,0.7,1.8,1.2s0.9,1.1,1.2,1.8
		c0.3,0.7,0.5,1.4,0.5,2.2c0,0.8-0.2,1.5-0.5,2.2c-0.3,0.7-0.8,1.3-1.2,1.8s-1.1,0.9-1.8,1.2c-0.7,0.3-1.4,0.4-2.2,0.4H35
		c-0.6,0-1.2-0.1-1.8-0.2c-0.6-0.2-1.1-0.4-1.6-0.8c-0.5-0.4-0.9-0.8-1.2-1.2c-0.3-0.5-0.6-0.9-0.8-1.4H19.5c-1.7,0-3.2-0.3-4.8-0.9
		s-2.8-1.5-4-2.5c-1.2-1-2.1-2.3-2.9-3.7c-0.8-1.4-1.2-3-1.4-4.6c-0.5-0.2-1-0.4-1.4-0.8c-0.5-0.4-0.8-0.8-1.1-1.2
		c-0.3-0.5-0.5-1-0.7-1.5C3.1,47.9,3,47.3,3,46.8v-15c0-0.8,0.1-1.4,0.4-2.1S4,28.5,4.4,28c0.5-0.5,1-0.9,1.6-1.2
		c0.6-0.3,1.3-0.5,1.9-0.6c0.9-3.3,2.2-6.4,4-9.2c1.8-2.8,3.8-5.2,6.2-7.1c2.4-2,5-3.5,7.9-4.6s5.9-1.7,8.9-1.7
		c3.1,0,6.1,0.6,8.9,1.7s5.5,2.7,7.9,4.6c2.4,2,4.4,4.3,6.2,7.1C59.8,19.7,61.1,22.8,62,26.1z M10.5,48.6V29.9H8.6
		c-0.2,0-0.5,0-0.7,0.1c-0.2,0.1-0.4,0.2-0.6,0.4C7.1,30.5,7,30.8,6.9,31c-0.1,0.2-0.1,0.5-0.1,0.8v15c0,0.2,0,0.5,0.1,0.8
		C7,47.8,7.1,48,7.3,48.1c0.2,0.2,0.4,0.3,0.6,0.4c0.2,0.1,0.4,0.1,0.7,0.1H10.5z M35,60c-0.2,0-0.5,0-0.8,0.1
		c-0.2,0.1-0.5,0.2-0.6,0.4c-0.2,0.2-0.3,0.4-0.4,0.6c-0.1,0.2-0.1,0.5-0.1,0.8s0,0.5,0.1,0.7c0.1,0.2,0.2,0.4,0.4,0.6
		c0.2,0.2,0.4,0.4,0.6,0.4s0.5,0.1,0.8,0.1h11.2c0.2,0,0.5,0,0.8-0.1s0.5-0.2,0.6-0.4c0.2-0.2,0.3-0.4,0.4-0.6
		c0.1-0.2,0.1-0.4,0.1-0.7s0-0.5-0.1-0.8c-0.1-0.2-0.2-0.5-0.4-0.6c-0.2-0.2-0.4-0.3-0.6-0.4C46.8,60,46.5,60,46.2,60H35z
		 M63.2,46.8v-15c0-0.2,0-0.5-0.1-0.8c-0.1-0.2-0.2-0.5-0.4-0.6c-0.2-0.2-0.4-0.3-0.6-0.4c-0.2-0.1-0.4-0.1-0.7-0.1h-1.9v18.8h1.9
		c0.2,0,0.5,0,0.7-0.1c0.2-0.1,0.4-0.2,0.6-0.4c0.2-0.2,0.4-0.4,0.4-0.6C63.2,47.2,63.2,47,63.2,46.8z"/>
</g>
<defs>
<clipPath id="clip0">
<rect width="69.1892" height="69.1892" fill="white" transform="translate(0.810791)"/>
</clipPath>
</defs>
</svg>
