<svg width="20" height="21" viewBox="0 0 20 21" fill="none" xmlns="http://www.w3.org/2000/svg">
<path fill="#BCBE02" d="M15.1,4l-0.6,0.3c-1.8,0.8-4.4,1.1-6.7,1.9C6.8,6.5,5.8,7.1,5,7.9s-1.2,2-1.2,3.5c0,1.5,0.9,2.6,1.7,3.2
	c0.4,0.3,0.7,0.4,1,0.6c-0.4,0.7-0.6,1.2-0.8,1.7c-0.3,0.9-0.4,1.6-0.3,2.1s0.1,0.9,0.1,0.9L6.6,20c0-0.4-0.1-0.6-0.1-1
	c0-0.4,0-0.9,0.3-1.7c0.5-1.6,2-4.2,5.9-8.3l-0.8-0.8c-2.3,2.5-3.8,4.4-4.8,6c-0.2-0.1-0.6-0.3-0.9-0.5c-0.7-0.5-1.3-1.2-1.3-2.3
	c0-1.3,0.4-2.1,0.9-2.7s1.4-1.1,2.5-1.5c1.8-0.7,4.1-1,6.1-1.7c0.2,0.7,0.8,3.1,0.8,6.8c0,2.1-0.5,3.3-1.1,4s-1.3,0.9-1.9,0.9
	c-0.6,0-1.3-0.3-1.9-0.7s-1-0.8-1.4-1.1l-0.6,1c0.1,0.1,0.7,0.6,1.3,1.1c0.7,0.5,1.5,0.9,2.5,0.9c0.9,0,1.9-0.3,2.8-1.2
	s1.3-2.4,1.3-4.7c0-4.5-0.9-7.7-0.9-7.7L15.1,4z"/>
</svg>
