<svg width="70" height="70" viewBox="0 0 70 70" fill="none" xmlns="http://www.w3.org/2000/svg">
<style type="text/css">
	.st0{fill:#BCBE02;}
</style>
<g>
	<g>
		<path class="st0" d="M16.2,21.6l-2.5,5.8c-0.1,0.1-0.1,0.3-0.2,0.3c-0.1,0.1-0.2,0.1-0.4,0.1c-0.2,0-0.4-0.1-0.5-0.2
			c-0.1-0.1-0.1-0.3-0.1-0.4c0-0.1,0-0.1,0-0.2l2.8-6.8c0.1-0.2,0.2-0.3,0.3-0.4c0.1-0.1,0.3-0.1,0.4-0.1c0.1,0,0.3,0,0.4,0.1
			c0.1,0.1,0.2,0.2,0.3,0.3l2.8,6.7c0,0.1,0.1,0.2,0.1,0.3c0,0.2-0.1,0.4-0.2,0.5c-0.1,0.1-0.3,0.2-0.4,0.2c-0.1,0-0.3,0-0.4-0.1
			c-0.1-0.1-0.2-0.2-0.3-0.3l-2.4-5.7L16.2,21.6z M14.1,26l0.6-1.3h3.1L18,26H14.1z"/>
		<path class="st0" d="M24.9,26.4c0.2,0,0.4,0.1,0.5,0.2c0.1,0.1,0.2,0.3,0.2,0.5c0,0.2-0.1,0.3-0.2,0.5c-0.1,0.1-0.3,0.2-0.5,0.2
			h-3.7c-0.2,0-0.4-0.1-0.5-0.2c-0.1-0.1-0.2-0.3-0.2-0.5v-6.6c0-0.2,0.1-0.4,0.2-0.5c0.1-0.1,0.3-0.2,0.5-0.2
			c0.2,0,0.3,0.1,0.5,0.2c0.1,0.1,0.2,0.3,0.2,0.5v6.1l-0.2-0.2H24.9z"/>
		<path class="st0" d="M33.5,19.8c0.5,0,1,0.1,1.5,0.3c0.4,0.2,0.8,0.5,1.1,0.9c0.3,0.4,0.5,0.8,0.7,1.3c0.1,0.5,0.2,1,0.2,1.5
			c0,0.7-0.1,1.4-0.4,2c-0.3,0.6-0.6,1.1-1.2,1.4c-0.5,0.4-1.1,0.5-1.9,0.5h-2.7c-0.2,0-0.4-0.1-0.5-0.2c-0.1-0.1-0.2-0.3-0.2-0.5
			v-6.6c0-0.2,0.1-0.4,0.2-0.5c0.1-0.1,0.3-0.2,0.5-0.2H33.5z M33.3,26.4c0.5,0,0.9-0.1,1.2-0.4c0.3-0.2,0.5-0.6,0.7-1
			c0.1-0.4,0.2-0.8,0.2-1.3c0-0.4,0-0.7-0.1-1c-0.1-0.3-0.2-0.6-0.4-0.9c-0.2-0.2-0.4-0.4-0.6-0.6c-0.3-0.1-0.6-0.2-0.9-0.2h-2
			l0.1-0.1v5.6l-0.1-0.1H33.3z"/>
		<path class="st0" d="M39.6,27.1c0,0.2-0.1,0.4-0.2,0.5c-0.1,0.1-0.3,0.2-0.5,0.2c-0.2,0-0.4-0.1-0.5-0.2c-0.1-0.1-0.2-0.3-0.2-0.5
			v-6.6c0-0.2,0.1-0.4,0.2-0.5c0.1-0.1,0.3-0.2,0.5-0.2c0.2,0,0.3,0.1,0.5,0.2c0.1,0.1,0.2,0.3,0.2,0.5V27.1z M38.9,19.4
			c-0.1,0-0.3,0-0.3-0.1c-0.1-0.1-0.1-0.2-0.1-0.3c0-0.1,0-0.1,0-0.2c0,0,0.1-0.1,0.1-0.2l1-0.9c0.1-0.1,0.2-0.1,0.3-0.2
			c0.1,0,0.2-0.1,0.3-0.1c0.1,0,0.3,0,0.4,0.1c0.1,0.1,0.2,0.2,0.2,0.4c0,0.1,0,0.2-0.1,0.3c-0.1,0.1-0.2,0.2-0.3,0.3l-1.1,0.6
			c0,0-0.1,0-0.1,0.1C39,19.4,39,19.4,38.9,19.4z"/>
		<path class="st0" d="M44.2,21.6l-2.5,5.8c-0.1,0.1-0.1,0.3-0.2,0.3c-0.1,0.1-0.2,0.1-0.4,0.1c-0.2,0-0.4-0.1-0.5-0.2
			c-0.1-0.1-0.1-0.3-0.1-0.4c0-0.1,0-0.1,0-0.2l2.8-6.8c0.1-0.2,0.2-0.3,0.3-0.4c0.1-0.1,0.3-0.1,0.4-0.1c0.1,0,0.3,0,0.4,0.1
			c0.1,0.1,0.2,0.2,0.3,0.3l2.8,6.7c0,0.1,0.1,0.2,0.1,0.3c0,0.2-0.1,0.4-0.2,0.5c-0.1,0.1-0.3,0.2-0.4,0.2c-0.1,0-0.3,0-0.4-0.1
			c-0.1-0.1-0.2-0.2-0.3-0.3l-2.4-5.7L44.2,21.6z M42.1,26l0.6-1.3h3.1L46,26H42.1z"/>
	</g>
	<g>
		<path class="st0" d="M18.2,5.5c14.6,0,29.2,0,43.8,0c1.5,0.5,2.6,1.5,3,3c0,17.3,0,34.6,0,52c-0.1,0.2-0.1,0.5-0.2,0.7
			c-0.8,2.5-3.1,4.2-5.6,4.2c-16.1,0-32.1,0-48.2,0c-3.2,0-5.9-2.7-5.9-5.9c0-13.7,0-27.4,0-41.1c0-1.9,1.3-3.5,3.1-3.9
			c0.5-0.1,1-0.1,1.5-0.1c1.4,0,2.9,0,4.3,0c1,0,1,0,1-1c0-1.1,0-2.3,0-3.4C15,7.6,15.9,6.3,18.2,5.5z M54.2,63.3c0-0.1,0-0.1,0-0.2
			c-1-1.4-1.3-3-1.3-4.6c0-13.1,0-26.1,0-39.2c0-0.3,0-0.6,0-0.9c0-0.8-0.6-1.5-1.4-1.7c-0.3-0.1-0.7-0.1-1-0.1c-13.7,0-27.3,0-41,0
			c-0.2,0-0.4,0-0.6,0c-0.9,0.1-1.6,0.7-1.8,1.6c-0.1,0.3-0.1,0.7-0.1,1c0,6,0,12,0,18c0,7.2,0,14.4,0,21.7c0,0.9,0.1,1.8,0.6,2.6
			c0.9,1.5,2.3,1.9,4,1.9c14,0,27.9,0,41.9,0C53.8,63.4,54,63.5,54.2,63.3z M62.9,34.5c0-6.9,0-13.8,0-20.7c0-1.3,0-2.6,0-3.9
			c0-0.7-0.2-1.4-0.8-1.9c-0.5-0.4-1.1-0.4-1.7-0.4c-13.6,0-27.2,0-40.8,0c-0.4,0-0.7,0-1,0.1c-0.8,0.2-1.4,0.9-1.4,1.7
			c0,1.5,0,3,0,4.5c0,0.4,0.2,0.6,0.6,0.6c0.2,0,0.5,0,0.7,0c10.6,0,21.2,0,31.8,0c0.6,0,1.2,0,1.7,0.1c1.9,0.5,3.1,2.1,3.1,4.2
			c0,9.2,0,18.5,0,27.7c0,4.3,0,8.7,0,13c0,1.7,1.2,3.2,2.8,3.7c1.7,0.5,3.4-0.2,4.4-1.6c0.5-0.8,0.7-1.8,0.7-2.7
			C62.9,50.7,62.9,42.6,62.9,34.5z"/>
		<path class="st0" d="M18,48.5c-2.3,0-4.5,0-6.8,0c-1.4,0-2.2-0.8-2.2-2.3c0-3.2,0-6.4,0-9.6c0-1.4,0.8-2.3,2.2-2.3
			c4.5,0,9,0,13.6,0c1.5,0,2.3,0.9,2.3,2.3c0,3.2,0,6.4,0,9.5c0,1.5-0.8,2.3-2.3,2.3C22.6,48.5,20.3,48.5,18,48.5z M18,36.6
			c-2,0-4.1,0-6.1,0c-0.7,0-0.8,0.1-0.8,0.8c0,2.7,0,5.5,0,8.2c0,0.7,0.1,0.8,0.8,0.8c4.1,0,8.1,0,12.2,0c0.7,0,0.8-0.1,0.8-0.8
			c0-2.7,0-5.5,0-8.2c0-0.7,0-0.8-0.8-0.8C22.1,36.6,20.1,36.6,18,36.6z"/>
		<path class="st0" d="M30.1,30.4c6.5,0,12.9,0,19.4,0c0.3,0,0.6,0,0.8,0.1c0.5,0.1,0.8,0.5,0.8,1c0,0.5-0.3,0.9-0.8,1
			c-0.2,0.1-0.5,0.1-0.8,0.1c-13,0-26,0-39,0c-1,0-1.6-0.4-1.6-1.1c0-0.7,0.5-1.1,1.6-1.1C17.1,30.4,23.6,30.4,30.1,30.4z"/>
		<path class="st0" d="M30,50.4c6.5,0,13,0,19.5,0c1,0,1.5,0.3,1.5,1c0,0.7-0.5,1.1-1.5,1.1c-13,0-26,0-39,0c-0.2,0-0.3,0-0.5,0
			c-0.6,0-1-0.4-1.1-1c0-0.6,0.4-1,1.1-1c0.2,0,0.4,0,0.6,0C17.2,50.4,23.6,50.4,30,50.4z"/>
		<path class="st0" d="M39.9,42.5c-3.1,0-6.3,0-9.4,0c-0.2,0-0.5,0-0.7,0c-0.5-0.1-0.8-0.5-0.8-1c0-0.5,0.3-0.9,0.8-1
			c0.3-0.1,0.6-0.1,0.9-0.1c6.2,0,12.4,0,18.7,0c0.3,0,0.6,0,0.9,0.1c0.5,0.2,0.8,0.5,0.8,1c0,0.5-0.4,0.9-0.9,1c-0.2,0-0.5,0-0.7,0
			C46.3,42.5,43.1,42.5,39.9,42.5z"/>
		<path class="st0" d="M19.6,54.4c3,0,6,0,8.9,0c0.2,0,0.4,0,0.6,0c0.5,0.1,0.9,0.5,0.9,1c0,0.5-0.3,1-0.8,1.1
			c-0.3,0.1-0.5,0.1-0.8,0.1c-5.9,0-11.8,0-17.8,0c-0.3,0-0.6,0-0.9-0.1C9.3,56.3,9,55.9,9,55.4c0-0.5,0.4-0.9,0.9-1
			c0.2,0,0.4,0,0.6,0C13.6,54.4,16.6,54.4,19.6,54.4z"/>
		<path class="st0" d="M36,46.5c-1.9,0-3.9,0-5.8,0c-0.5,0-0.9-0.1-1.2-0.6c-0.3-0.6,0-1.3,0.7-1.4c0.3-0.1,0.6-0.1,0.9-0.1
			c3.6,0,7.1,0,10.7,0c0.3,0,0.5,0,0.8,0.1c0.6,0.1,0.9,0.5,0.9,1.1c0,0.6-0.4,1-1,1c-0.9,0-1.8,0-2.7,0
			C38.2,46.5,37.1,46.5,36,46.5z"/>
		<path class="st0" d="M46,38.6c-1.2,0-2.4,0-3.6,0c-0.3,0-0.5,0-0.8-0.1c-0.4-0.2-0.6-0.5-0.6-1c0-0.5,0.2-0.8,0.7-1
			c0.3-0.1,0.6-0.1,0.9-0.1c2.3,0,4.7,0,7,0c1,0,1.6,0.4,1.6,1.1c0,0.7-0.5,1.1-1.5,1.1C48.4,38.6,47.2,38.6,46,38.6z"/>
		<path class="st0" d="M34.1,36.4c1.2,0,2.3,0,3.5,0c0.2,0,0.4,0,0.6,0.1c0.6,0.1,0.9,0.5,0.8,1.1c0,0.6-0.4,0.9-0.9,1
			c-0.1,0-0.3,0-0.4,0c-2.5,0-4.9,0-7.4,0c-0.7,0-1.2-0.3-1.3-0.8c-0.2-0.7,0.3-1.3,1.2-1.4C31.5,36.4,32.8,36.4,34.1,36.4
			C34.1,36.4,34.1,36.4,34.1,36.4z"/>
	</g>
</g>
<defs>
<clipPath id="clip0">
<rect width="69.1892" height="69.1892" fill="white" transform="translate(0.810791)"/>
</clipPath>
</defs>
</svg>
