<svg width="20" height="21" viewBox="0 0 20 21" fill="none" xmlns="http://www.w3.org/2000/svg">
<path fill="#38AFC7" d="M12.9,4h0.7h3.6H18v0.7v14.5V20h-0.7h-2.9h-2.9H7.8H6.4H2.7H2v-0.7v-8.7v-0.4l0.4-0.2L6,7.7l1.1-0.6v1.3v0.9
	l2.5-1.5l1.1-0.6v1.3v0.9L12.9,8V4.7V4z M14.4,5.5v2.9v0.4L14,9l-3.6,2.2l-1.1,0.6v-1.3V9.6l-2.5,1.5l-1.1,0.6v-1.3V9.6l-2.2,1.3
	v7.6h2.9h1.5h3.6h2.9h2.2V5.5H14.4z M4.9,12.7h1.5v1.5H4.9V12.7z M4.9,15.6h1.5v1.5H4.9V15.6z M7.8,12.7h1.5v1.5H7.8V12.7z
	 M7.8,15.6h1.5v1.5H7.8V15.6z M10.7,12.7h1.5v1.5h-1.5V12.7z M10.7,15.6h1.5v1.5h-1.5V15.6z M13.6,12.7h1.5v1.5h-1.5V12.7z
	 M13.6,15.6h1.5v1.5h-1.5V15.6z"/>
</svg>
