<svg width="36" height="36" viewBox="0 0 36 36" fill="none" xmlns="http://www.w3.org/2000/svg">
<path fill="#38AFC7" d="M30.7,13.6c0.3,0,0.6,0.1,0.9,0.3s0.5,0.4,0.8,0.6c0.2,0.2,0.4,0.5,0.5,0.8s0.2,0.6,0.2,1v7
		c0,0.4-0.1,0.7-0.2,1.1c-0.1,0.3-0.3,0.6-0.6,0.8s-0.5,0.4-0.8,0.6c-0.3,0.2-0.7,0.2-1,0.2h-2.6v-1.8H26v-8.8h1.8v-1.8h1.1
		c-0.4-1.3-0.9-2.5-1.7-3.6c-0.7-1.1-1.6-2-2.5-2.8s-2-1.4-3.1-1.8C20.4,5,19.2,4.8,18,4.8c-1.2,0-2.4,0.2-3.5,0.6
		c-1.1,0.4-2.2,1-3.1,1.8S9.6,8.9,8.9,10c-0.7,1.1-1.3,2.3-1.7,3.6h1.1v1.8H10v8.8H8.3V26H6.4c0.1,0.5,0.3,0.9,0.6,1.3
		c0.3,0.4,0.6,0.8,1,1.1c0.4,0.3,0.8,0.6,1.3,0.8s1,0.3,1.5,0.3h4.8c0.1-0.3,0.2-0.5,0.4-0.7c0.2-0.2,0.3-0.4,0.6-0.6
		c0.2-0.2,0.5-0.3,0.7-0.4c0.3-0.1,0.5-0.1,0.8-0.1h5.3c0.4,0,0.7,0.1,1.1,0.2c0.3,0.1,0.6,0.3,0.8,0.6s0.4,0.5,0.6,0.8
		c0.2,0.3,0.2,0.7,0.2,1.1c0,0.4-0.1,0.7-0.2,1c-0.2,0.3-0.4,0.6-0.6,0.8s-0.5,0.4-0.8,0.6C24,32.9,23.7,33,23.3,33H18
		c-0.3,0-0.5,0-0.8-0.1c-0.3-0.1-0.5-0.2-0.7-0.4c-0.2-0.2-0.4-0.4-0.6-0.6c-0.2-0.2-0.3-0.4-0.4-0.7h-4.8c-0.8,0-1.5-0.1-2.2-0.4
		s-1.3-0.7-1.9-1.2c-0.5-0.5-1-1.1-1.3-1.7s-0.6-1.4-0.6-2.2c-0.2-0.1-0.5-0.2-0.7-0.4c-0.2-0.2-0.4-0.4-0.5-0.6
		c-0.1-0.2-0.2-0.4-0.3-0.7C3,23.8,3,23.5,3,23.3v-7c0-0.4,0.1-0.7,0.2-1s0.3-0.6,0.5-0.8c0.2-0.2,0.5-0.4,0.8-0.6s0.6-0.3,0.9-0.3
		c0.4-1.6,1.1-3,1.9-4.3S9,6.9,10.1,6s2.3-1.6,3.7-2.2S16.6,3,18,3c1.4,0,2.8,0.3,4.2,0.8S24.8,5,25.9,6s2.1,2,2.9,3.3
		S30.2,12,30.7,13.6z M6.5,24.2v-8.8H5.6c-0.1,0-0.2,0-0.3,0.1c-0.1,0-0.2,0.1-0.3,0.2c-0.1,0.1-0.2,0.2-0.2,0.3
		c0,0.1-0.1,0.2-0.1,0.4v7c0,0.1,0,0.2,0.1,0.4c0,0.1,0.1,0.2,0.2,0.3c0.1,0.1,0.2,0.1,0.3,0.2c0.1,0,0.2,0.1,0.3,0.1H6.5z M18,29.5
		c-0.1,0-0.2,0-0.4,0.1s-0.2,0.1-0.3,0.2c-0.1,0.1-0.1,0.2-0.2,0.3c0,0.1-0.1,0.2-0.1,0.4s0,0.2,0.1,0.3c0,0.1,0.1,0.2,0.2,0.3
		c0.1,0.1,0.2,0.2,0.3,0.2c0.1,0,0.2,0.1,0.4,0.1h5.3c0.1,0,0.2,0,0.4-0.1c0.1,0,0.2-0.1,0.3-0.2c0.1-0.1,0.1-0.2,0.2-0.3
		c0-0.1,0.1-0.2,0.1-0.3s0-0.2-0.1-0.4c0-0.1-0.1-0.2-0.2-0.3c-0.1-0.1-0.2-0.1-0.3-0.2s-0.2-0.1-0.4-0.1H18z M31.2,23.3v-7
		c0-0.1,0-0.2-0.1-0.4s-0.1-0.2-0.2-0.3c-0.1-0.1-0.2-0.1-0.3-0.2c-0.1,0-0.2-0.1-0.3-0.1h-0.9v8.8h0.9c0.1,0,0.2,0,0.3-0.1
		c0.1,0,0.2-0.1,0.3-0.2c0.1-0.1,0.2-0.2,0.2-0.3S31.2,23.4,31.2,23.3z"/>
</svg>
