<?xml version="1.0" encoding="utf-8"?>
<!-- Generator: Adobe Illustrator 27.7.0, SVG Export Plug-In . SVG Version: 6.00 Build 0)  -->
<svg version="1.1" id="Capa_1" xmlns="http://www.w3.org/2000/svg" xmlns:xlink="http://www.w3.org/1999/xlink" x="0px" y="0px"
	 viewBox="0 0 36 36" style="enable-background:new 0 0 36 36;" xml:space="preserve">
<style type="text/css">
	.st0{fill:#38AFC7;}
</style>
<g>
	<path class="st0" d="M33,18c0,4.1-1.5,7.7-4.4,10.6C25.7,31.5,22.1,33,18,33c-4.1,0-7.7-1.5-10.6-4.4S3,22.1,3,18s1.5-7.7,4.4-10.6
		S13.9,3,18,3c4.1,0,7.7,1.5,10.6,4.4C31.5,10.3,33,13.9,33,18z M31.1,18c0-3.6-1.3-6.7-3.8-9.3c-2.6-2.6-5.7-3.8-9.3-3.8
		c-3.6,0-6.7,1.3-9.3,3.8c-2.6,2.6-3.8,5.7-3.8,9.3c0,3.6,1.3,6.7,3.8,9.3c2.6,2.6,5.7,3.9,9.3,3.9c3.6,0,6.7-1.3,9.3-3.9
		C29.8,24.7,31.1,21.6,31.1,18z M20.5,24.8c0.2,0.2,0.3,0.4,0.3,0.7c0,0.3-0.1,0.5-0.3,0.7c-0.2,0.2-0.4,0.3-0.7,0.3h-3.8
		c-0.3,0-0.5-0.1-0.7-0.3c-0.2-0.2-0.3-0.4-0.3-0.7c0-0.3,0.1-0.5,0.3-0.7c0.2-0.2,0.4-0.3,0.7-0.3h0.9v-7.5h-0.9
		c-0.3,0-0.5-0.1-0.7-0.3c-0.2-0.2-0.3-0.4-0.3-0.7c0-0.3,0.1-0.5,0.3-0.7s0.4-0.3,0.7-0.3H18c0.3,0,0.5,0.1,0.7,0.3
		c0.2,0.2,0.3,0.4,0.3,0.7v0.1v8.4h0.9C20.1,24.6,20.4,24.7,20.5,24.8z M16.1,11.4c0-0.5,0.2-0.9,0.6-1.3c0.4-0.4,0.8-0.6,1.3-0.6
		c0.5,0,0.9,0.2,1.3,0.6c0.4,0.4,0.6,0.8,0.6,1.3c0,0.5-0.2,0.9-0.6,1.3c-0.4,0.4-0.8,0.6-1.3,0.6c-0.5,0-0.9-0.2-1.3-0.6
		C16.3,12.4,16.1,11.9,16.1,11.4z"/>
</g>
</svg>
