<svg width="36" height="36" viewBox="0 0 36 36" fill="none" xmlns="http://www.w3.org/2000/svg">
<path fill="#003C71" d="M33.5,8.6c0.4,0.4,0.6,0.9,0.6,1.4v21c0,0.5-0.2,1-0.6,1.4c-0.4,0.4-0.9,0.6-1.4,0.6H3.9
		c-0.5,0-1-0.2-1.4-0.6C2.1,32,1.9,31.5,1.9,31V19v-2v-7c0-0.5,0.2-1,0.6-1.4C2.9,8.2,3.4,8,3.9,8h8V6c0-0.8,0.3-1.5,0.9-2.1
		C13.4,3.3,14.1,3,15,3h6c0.8,0,1.5,0.3,2.1,0.9C23.7,4.5,24,5.2,24,6V8h8C32.6,8,33.1,8.2,33.5,8.6z M3.9,17h11v-1.1
		c0-0.5,0.2-1,0.6-1.4c0.4-0.4,0.9-0.6,1.4-0.6h2c0.5,0,1,0.2,1.4,0.6c0.4,0.4,0.6,0.9,0.6,1.4V17h11v-7H3.9V17z M32.1,31V19H21v2
		c0,0.5-0.2,1-0.6,1.4C20,22.8,19.5,23,19,23h-2c-0.5,0-1-0.2-1.4-0.6C15.2,22,15,21.6,15,21v-2h-11v12H32.1z M14,8h8V6
		c0-0.3-0.1-0.5-0.3-0.7C21.5,5.1,21.3,5,21,5h-6c-0.3,0-0.5,0.1-0.7,0.3C14.1,5.5,14,5.7,14,6V8z M19,15.9h-2V21h2V15.9z"/>
</svg>
