<svg width="70" height="70" viewBox="0 0 70 70" fill="none" xmlns="http://www.w3.org/2000/svg">
<style type="text/css">
	.st0{fill:#FF0024;}
</style>
<g>
	<path class="st0" d="M35,3.5c4.4,0,8.6,0.8,12.4,2.5c3.9,1.7,7.3,4,10.2,6.9c2.9,2.9,5.2,6.3,6.9,10.2c1.7,3.9,2.5,8,2.5,12.4
		c0,4.4-0.8,8.6-2.5,12.4c-1.7,3.9-4,7.3-6.9,10.2c-2.9,2.9-6.3,5.2-10.2,6.9c-3.9,1.7-8,2.5-12.4,2.5c-4.4,0-8.6-0.8-12.4-2.5
		c-3.9-1.7-7.3-4-10.2-6.9c-2.9-2.9-5.2-6.3-6.9-10.2C3.8,44.1,3,39.9,3,35.5c0-4.4,0.8-8.6,2.5-12.4c1.7-3.9,4-7.3,6.9-10.2
		C15.3,10,18.7,7.7,22.6,6C26.4,4.3,30.6,3.5,35,3.5z M35,63.8c3.9,0,7.6-0.8,11-2.2c3.4-1.5,6.4-3.5,8.9-6.1
		c2.5-2.5,4.6-5.5,6.1-8.9c1.5-3.4,2.2-7.1,2.2-11c0-3.9-0.8-7.6-2.2-11c-1.5-3.4-3.5-6.4-6.1-8.9C52.4,13,49.4,11,46,9.5
		C42.6,8,38.9,7.2,35,7.2c-3.9,0-7.6,0.8-11,2.2c-3.4,1.5-6.4,3.5-8.9,6.1c-2.5,2.5-4.6,5.5-6.1,8.9c-1.5,3.4-2.2,7.1-2.2,11
		c0,3.9,0.8,7.6,2.2,11c1.5,3.4,3.5,6.4,6.1,8.9c2.5,2.5,5.5,4.6,8.9,6.1C27.4,63,31.1,63.8,35,63.8z M36.9,50.1V29.6h-7.4v3.8h3.6
		v16.8h-3.8v3.8h11.2v-3.8H36.9z M30,22.2c0,0.5,0.1,1,0.3,1.4c0.2,0.5,0.5,0.9,0.8,1.2c0.3,0.3,0.7,0.6,1.2,0.8
		c0.5,0.2,0.9,0.3,1.4,0.3s1-0.1,1.4-0.3c0.5-0.2,0.9-0.5,1.2-0.8c0.3-0.3,0.6-0.7,0.8-1.2c0.2-0.5,0.3-0.9,0.3-1.4s-0.1-1-0.3-1.4
		c-0.2-0.5-0.5-0.9-0.8-1.2c-0.3-0.3-0.7-0.6-1.2-0.8c-0.5-0.2-0.9-0.3-1.4-0.3s-1,0.1-1.4,0.3c-0.5,0.2-0.9,0.5-1.2,0.8
		c-0.3,0.3-0.6,0.7-0.8,1.2C30.1,21.3,30,21.8,30,22.2z"/>
</g>
<defs>
<clipPath id="clip0">
<rect width="69.1892" height="69.1892" fill="white" transform="translate(0.810791)"/>
</clipPath>
</defs>
</svg>
