<svg version="1.1" id="pse" xmlns="http://www.w3.org/2000/svg" xmlns:xlink="http://www.w3.org/1999/xlink" x="0px" y="0px"
	 viewBox="0 0 64 64" style="enable-background:new 0 0 64 64;" xml:space="preserve">
<style type="text/css">
	.st0{fill:#003C71;}
	.st1{fill:#FFFFFF;}
	.st2{fill:#FFB700;}
</style>
<g>
	<circle class="st0" cx="32" cy="32" r="31"/>
	<g>
		<g>
			<g>
				<path class="st1" d="M13.9,45.8c0,0-0.1,0-0.1,0c-0.4-0.1-0.7-0.5-0.6-0.8l1.7-9.1c0,0,0,0,0,0c0,0,0,0,0,0l1.2-6.4
					c0.4-2.4,2.5-4.1,4.9-4.1h3.5c1,0,1.9,0.4,2.5,1.2c0.6,0.8,0.9,1.7,0.7,2.7l-1.2,6.4C26,38,24,39.7,21.6,39.7h-3.5
					c-0.9,0-1.7-0.3-2.3-0.9l-1.2,6.5C14.5,45.5,14.2,45.8,13.9,45.8z M16.3,36.1C16.3,36.1,16.3,36.1,16.3,36.1
					c-0.1,0.5,0,1.1,0.4,1.5c0.3,0.4,0.9,0.7,1.4,0.7h3.5c1.7,0,3.2-1.2,3.5-2.9l1.2-6.4c0.1-0.5,0-1.1-0.4-1.5
					c-0.3-0.4-0.9-0.7-1.4-0.7H21c-1.7,0-3.2,1.2-3.5,2.9L16.3,36.1z"/>
			</g>
			<g>
				<path class="st1" d="M34.7,39.7h-6.5c-0.4,0-0.7-0.3-0.7-0.7c0-0.4,0.3-0.7,0.7-0.7h6.5c1.5,0,2.8-1.1,3.1-2.5l0.1-0.5
					c0.1-0.5,0-1.1-0.4-1.5C37.1,33.3,36.6,33,36,33h-3.9c-1,0-1.9-0.4-2.5-1.2c-0.6-0.8-0.9-1.7-0.7-2.7l0-0.1
					c0.4-2.2,2.3-3.7,4.5-3.7h6.1c0.4,0,0.7,0.3,0.7,0.7c0,0.4-0.3,0.7-0.7,0.7h-6.1c-1.5,0-2.8,1.1-3.1,2.5l0,0.1
					c-0.1,0.5,0,1.1,0.4,1.5c0.3,0.4,0.9,0.7,1.4,0.7H36c1,0,1.9,0.4,2.5,1.2c0.6,0.8,0.9,1.7,0.7,2.7L39.1,36
					C38.7,38.1,36.8,39.7,34.7,39.7z"/>
			</g>
			<g>
				<path class="st1" d="M50.8,39.7h-7c-1,0-2-0.5-2.7-1.2s-0.9-1.8-0.7-2.8l0.6-3c0,0,0,0,0,0l0.6-3.1c0.4-2.4,2.5-4.1,4.9-4.1h3.6
					c1,0,2,0.5,2.7,1.2c0.7,0.8,0.9,1.8,0.7,2.8l-0.6,3.4c-0.1,0.3-0.4,0.6-0.7,0.6h-9.9l-0.4,2.4c-0.1,0.6,0,1.2,0.4,1.6
					c0.4,0.5,0.9,0.7,1.5,0.7h7c0.4,0,0.7,0.3,0.7,0.7C51.5,39.4,51.2,39.7,50.8,39.7z M42.5,32h9l0.5-2.8c0.1-0.6,0-1.2-0.4-1.6
					c-0.4-0.5-0.9-0.7-1.5-0.7h-3.6c-1.7,0-3.2,1.2-3.5,2.9L42.5,32z"/>
			</g>
			<path class="st2" d="M3.6,20.9c0.8,0,1.5-0.7,1.5-1.5c0-0.6-0.3-1-0.8-1.3c-0.4,0.9-0.8,1.7-1.2,2.6C3.3,20.9,3.4,20.9,3.6,20.9z
				"/>
			<path class="st2" d="M5.1,45.4c0-0.8-0.7-1.5-1.5-1.5c-0.1,0-0.1,0-0.2,0c0.4,0.8,0.8,1.7,1.2,2.5C4.9,46.2,5.1,45.8,5.1,45.4z"
				/>
			<g>
				<g>
					<g>
						<circle class="st2" cx="6.6" cy="23.8" r="1.5"/>
					</g>
					<g>
						<circle class="st2" cx="6.6" cy="41.1" r="1.5"/>
					</g>
				</g>
			</g>
			<path class="st2" d="M7.9,32.1l-3.6-4.4h-3c0,0.3-0.1,0.6-0.1,0.9H4l2.9,3.5H1.1c0,0.3,0,0.6,0,0.9h8.5l-1.9,3.4H5
				c-0.2-0.6-0.7-1-1.4-1c-0.8,0-1.5,0.7-1.5,1.5c0,0.8,0.7,1.5,1.5,1.5c0.7,0,1.2-0.4,1.4-1h3.1l2.4-4.2h4.1l0.2-0.9H7.9z"/>
			<g>
				<path class="st1" d="M24.7,21.2c-0.1-0.2-0.4-0.3-0.6-0.3h-0.5c-0.2,0-0.4,0.1-0.6,0.2l0.2-1.2c0-0.1,0-0.2-0.1-0.2
					c-0.1,0-0.2,0-0.2,0.1l-0.3,2c0,0,0,0,0,0l-0.1,0.9l-0.2,0.9c0,0.1,0,0.2,0.1,0.2c0,0,0,0,0,0c0.1,0,0.2-0.1,0.2-0.1l0.2-0.9v0
					l0-0.1l0.1-0.9c0.1-0.4,0.4-0.6,0.8-0.6h0.5c0.1,0,0.2,0.1,0.3,0.2c0.1,0.1,0.1,0.2,0.1,0.3l-0.3,1.9c0,0.1,0,0.2,0.1,0.2
					c0,0,0,0,0,0c0.1,0,0.2-0.1,0.2-0.1l0.3-1.9C24.9,21.6,24.9,21.4,24.7,21.2z"/>
			</g>
			<g>
				<path class="st1" d="M21.9,23.9h-1.2c-0.2,0-0.4-0.1-0.6-0.3c-0.1-0.2-0.2-0.4-0.2-0.6l0.2-1.1c0.1-0.5,0.6-0.9,1.1-0.9h1.1
					c0.1,0,0.2,0.1,0.2,0.2c0,0.1-0.1,0.2-0.2,0.2h-1.1c-0.4,0-0.7,0.3-0.8,0.6L20.2,23c0,0.1,0,0.3,0.1,0.3
					c0.1,0.1,0.2,0.2,0.3,0.2h1.2c0.1,0,0.2,0.1,0.2,0.2C22,23.8,22,23.9,21.9,23.9z"/>
			</g>
			<g>
				<g>
					<path class="st1" d="M18.9,23.9h-0.7c-0.2,0-0.4-0.1-0.6-0.3c-0.1-0.2-0.2-0.4-0.2-0.6l0-0.1c0.1-0.4,0.4-0.7,0.8-0.7h1.2
						l0.1-0.4c0-0.1,0-0.3-0.1-0.3c-0.1-0.1-0.2-0.2-0.3-0.2H18c-0.1,0-0.2-0.1-0.2-0.2c0-0.1,0.1-0.2,0.2-0.2h1.1
						c0.2,0,0.4,0.1,0.6,0.3c0.1,0.2,0.2,0.4,0.2,0.6l-0.1,0.5c0,0,0,0,0,0l-0.1,0.9C19.6,23.6,19.2,23.9,18.9,23.9z M18.2,22.5
						c-0.3,0-0.5,0.2-0.5,0.4l0,0.1c0,0.1,0,0.3,0.1,0.3c0.1,0.1,0.2,0.2,0.3,0.2h0.7c0.2,0,0.4-0.1,0.4-0.4l0.1-0.7H18.2z"/>
				</g>
				<g>
					<path class="st1" d="M18.9,23.9h-0.7c-0.2,0-0.4-0.1-0.6-0.3c-0.1-0.2-0.2-0.4-0.2-0.6l0-0.1c0.1-0.4,0.4-0.7,0.8-0.7h1.2
						l0.1-0.4c0-0.1,0-0.3-0.1-0.3c-0.1-0.1-0.2-0.2-0.3-0.2H18c-0.1,0-0.2-0.1-0.2-0.2c0-0.1,0.1-0.2,0.2-0.2h1.1
						c0.2,0,0.4,0.1,0.6,0.3c0.1,0.2,0.2,0.4,0.2,0.6l-0.1,0.5c0,0,0,0,0,0l-0.1,0.9C19.6,23.6,19.2,23.9,18.9,23.9z M18.2,22.5
						c-0.3,0-0.5,0.2-0.5,0.4l0,0.1c0,0.1,0,0.3,0.1,0.3c0.1,0.1,0.2,0.2,0.3,0.2h0.7c0.2,0,0.4-0.1,0.4-0.4l0.1-0.7H18.2z"/>
				</g>
			</g>
		</g>
	</g>
	<path class="st1" d="M32,64C14.4,64,0,49.6,0,32C0,14.4,14.4,0,32,0c17.6,0,32,14.4,32,32C64,49.6,49.6,64,32,64z M32,1
		C14.9,1,1,14.9,1,32s13.9,31,31,31s31-13.9,31-31S49.1,1,32,1z"/>
</g>
</svg>
