<svg width="20" height="21" viewBox="0 0 20 21" fill="none" xmlns="http://www.w3.org/2000/svg">
<path fill="#38AFC7" d="M5.4,6h9.1c0.5,0,0.9,0.1,1.2,0.4c0.4,0.3,0.6,0.6,0.8,1.1l1,3.2l1.4-0.5l0.4,1.3L18,12l0.4,1.5
	c0,0,0,0.1,0,0.1v0v4.9c0,0,0,0.1,0,0.1v0.6c0,0.2-0.1,0.4-0.2,0.5S17.9,20,17.7,20h-2.1l-0.3-0.7H4.7L4.4,20H2.3
	c-0.2,0-0.4-0.1-0.5-0.2s-0.2-0.3-0.2-0.5v-0.6c0,0,0-0.1,0-0.1v-4.9v0c0-0.1,0-0.1,0-0.1L2,12l-1.4-0.5l0.4-1.3l1.4,0.5l1-3.2
	c0.1-0.4,0.4-0.8,0.8-1.1C4.6,6.1,5,6,5.4,6z M3.4,12.3L3,13.8v4.1h2.1H17v-4.1l-0.4-1.5H3.4z M4,13.3C4.2,13.1,4.5,13,4.8,13
	c0.3,0,0.5,0.1,0.7,0.3c0.2,0.2,0.3,0.5,0.3,0.7c0,0.3-0.1,0.5-0.3,0.7C5.3,15,5,15.1,4.8,15.1c-0.3,0-0.5-0.1-0.7-0.3
	c-0.2-0.2-0.3-0.5-0.3-0.7C3.7,13.8,3.8,13.5,4,13.3z M5.4,7.4c-0.3,0-0.6,0.2-0.7,0.5l-0.9,3h12.2l-0.9-3c-0.1-0.4-0.4-0.5-0.7-0.5
	H5.4z M12.8,17.2H7.2l-0.9-2.1h1.5l0.4,0.7h3.7l0.4-0.7h1.5L12.8,17.2z M14.5,13.3c0.2-0.2,0.5-0.3,0.7-0.3c0.3,0,0.5,0.1,0.7,0.3
	c0.2,0.2,0.3,0.5,0.3,0.7c0,0.3-0.1,0.5-0.3,0.7c-0.2,0.2-0.5,0.3-0.7,0.3c-0.3,0-0.5-0.1-0.7-0.3c-0.2-0.2-0.3-0.5-0.3-0.7
	C14.2,13.8,14.3,13.5,14.5,13.3z"/>
</svg>
