<svg width="20" height="21" viewBox="0 0 20 21" fill="none" xmlns="http://www.w3.org/2000/svg">
<path fill="#38AFC7" d="M2.6,4.2h0.6h13.5h0.6v0.6v14.8v0.6h-0.6h-5.5h-0.6v-0.6v-1.8H9.4v1.8v0.6H8.8H3.2H2.6v-0.6V4.8V4.2z
	 M3.8,5.5V19h4.3v-1.8v-0.6h0.6h2.5h0.6v0.6V19h4.3V5.5H3.8z M5.1,6.7h2.5v1.2H5.1V6.7z M5.1,9.2h2.5v1.2H5.1V9.2z M5.1,11.6h2.5
	v1.2H5.1V11.6z M5.1,14.1h2.5v1.2H5.1V14.1z M5.1,16.5h2.5v1.2H5.1V16.5z M8.8,6.7h2.5v1.2H8.8V6.7z M8.8,9.2h2.5v1.2H8.8V9.2z
	 M8.8,11.6h2.5v1.2H8.8V11.6z M8.8,14.1h2.5v1.2H8.8V14.1z M12.5,6.7h2.5v1.2h-2.5V6.7z M12.5,9.2h2.5v1.2h-2.5V9.2z M12.5,11.6h2.5
	v1.2h-2.5V11.6z M12.5,14.1h2.5v1.2h-2.5V14.1z M12.5,16.5h2.5v1.2h-2.5V16.5z"/>
</svg>
