<svg width="70" height="70" viewBox="0 0 70 70" fill="none" xmlns="http://www.w3.org/2000/svg">
<style type="text/css">
	.st0{fill:#FF0024;}
</style>
<g>
	<path class="st0" d="M35,5.5c2.8,0,5.4,0.5,7.9,1.6c2.5,1.1,4.7,2.5,6.5,4.3s3.3,4,4.3,6.4c1.1,2.4,1.6,5.1,1.6,8
		c0,4-1,8.2-2.9,12.6c-1.9,4.4-4,8.4-6.3,12.1c-2.3,3.7-4.4,6.8-6.4,9.2c-2,2.5-3.1,3.9-3.4,4.1L35,65.5l-1.3-1.6
		c-0.2-0.2-1.4-1.6-3.4-4.1c-2-2.5-4.1-5.6-6.4-9.2c-2.3-3.7-4.4-7.7-6.3-12.1c-1.9-4.4-2.9-8.6-2.9-12.6c0-2.9,0.5-5.5,1.6-8
		c1.1-2.4,2.5-4.6,4.3-6.4s4-3.3,6.5-4.3C29.6,6,32.2,5.5,35,5.5z M35,59.7c1.1-1.3,2.5-3.2,4.4-5.8c1.9-2.5,3.7-5.4,5.5-8.6
		c1.8-3.2,3.4-6.5,4.7-9.9s2-6.7,2-9.7c0-2.3-0.4-4.4-1.3-6.5c-0.9-2-2.1-3.8-3.6-5.3c-1.5-1.5-3.3-2.7-5.3-3.6
		c-2-0.9-4.1-1.3-6.4-1.3c-2.3,0-4.4,0.5-6.4,1.3c-2,0.9-3.8,2.1-5.3,3.6c-1.5,1.5-2.7,3.2-3.6,5.3c-0.9,2-1.3,4.2-1.3,6.5
		c0,3,0.7,6.2,2,9.7c1.3,3.4,2.9,6.7,4.7,9.9c1.8,3.2,3.6,6,5.5,8.6C32.5,56.5,33.9,58.4,35,59.7z M35,15.3c1.5,0,3,0.3,4.3,0.9
		c1.3,0.6,2.5,1.3,3.5,2.3s1.8,2.1,2.3,3.5c0.6,1.3,0.9,2.8,0.9,4.3c0,1.6-0.3,3-0.9,4.3c-0.6,1.3-1.3,2.5-2.3,3.5
		c-1,1-2.1,1.8-3.5,2.4c-1.3,0.6-2.8,0.9-4.3,0.9c-1.6,0-3-0.3-4.3-0.9c-1.3-0.6-2.5-1.4-3.5-2.4c-1-1-1.8-2.2-2.3-3.5
		c-0.6-1.3-0.9-2.7-0.9-4.3c0-1.5,0.3-3,0.9-4.3c0.6-1.3,1.3-2.5,2.3-3.5s2.1-1.8,3.5-2.3C32,15.6,33.4,15.3,35,15.3z M35,33.7
		c1,0,1.9-0.2,2.8-0.6c0.9-0.4,1.7-0.9,2.4-1.6c0.7-0.7,1.2-1.5,1.6-2.4c0.4-0.9,0.6-1.8,0.6-2.8c0-1.1-0.2-2-0.6-2.9
		c-0.4-0.9-0.9-1.7-1.6-2.3c-0.7-0.7-1.5-1.2-2.4-1.5C36.9,19.2,36,19,35,19s-1.9,0.2-2.8,0.6c-0.9,0.4-1.7,0.9-2.4,1.5
		c-0.7,0.7-1.2,1.4-1.6,2.3c-0.4,0.9-0.6,1.9-0.6,2.9c0,1,0.2,1.9,0.6,2.8c0.4,0.9,0.9,1.7,1.6,2.4c0.7,0.7,1.5,1.2,2.4,1.6
		C33.1,33.5,34,33.7,35,33.7z"/>
</g>
<defs>
<clipPath id="clip0">
<rect width="69.1892" height="69.1892" fill="white" transform="translate(0.810791)"/>
</clipPath>
</defs>
</svg>
