<svg width="20" height="21" viewBox="0 0 20 21" fill="none" xmlns="http://www.w3.org/2000/svg">
<path fill="#38AFC7" d="M2,4.1v2.4L0,9.2v0.2c0,1.1,0.9,2,2,2v8.7h10.7v-6H14v6h4v-8.7c1.1,0,2-0.9,2-2V9.2l-2-2.7V4.1H2z M3.3,5.5
	h13.3v0.7H3.3V5.5z M3,7.5h14l1.6,2.1c-0.1,0.3-0.3,0.5-0.6,0.5c-0.4,0-0.7-0.3-0.7-0.7H16c0,0.4-0.3,0.7-0.7,0.7
	c-0.4,0-0.7-0.3-0.7-0.7h-1.3c0,0.4-0.3,0.7-0.7,0.7c-0.4,0-0.7-0.3-0.7-0.7h-1.3c0,0.4-0.3,0.7-0.7,0.7c-0.4,0-0.7-0.3-0.7-0.7H8
	c0,0.4-0.3,0.7-0.7,0.7c-0.4,0-0.7-0.3-0.7-0.7H5.3c0,0.4-0.3,0.7-0.7,0.7C4.3,10.1,4,9.8,4,9.5H2.7c0,0.4-0.3,0.7-0.7,0.7
	c-0.3,0-0.5-0.2-0.6-0.5L3,7.5z M3.3,10.9c0.4,0.3,0.8,0.5,1.3,0.5s1-0.2,1.3-0.5c0.4,0.3,0.8,0.5,1.3,0.5s1-0.2,1.3-0.5
	c0.4,0.3,0.8,0.5,1.3,0.5s1-0.2,1.3-0.5c0.4,0.3,0.8,0.5,1.3,0.5c0.5,0,1-0.2,1.3-0.5c0.4,0.3,0.8,0.5,1.3,0.5c0.5,0,1-0.2,1.3-0.5
	v7.9h-1.3v-6h-4v6h-8V10.9z M4.7,12.8v4.7H10v-4.7H4.7z M6,14.1h2.7v2H6V14.1z"/>
</svg>
