<svg width="78" height="60" viewBox="0 0 78 60" fill="none" xmlns="http://www.w3.org/2000/svg">
<g clip-path="url(#clip0)">
<style type="text/css">
	.st0{fill:#BCBE02;}
	.st1{fill:#36AEC7;}
	.st2{fill:#0571CC;}
	.st3{fill:#FFFFFF;}
	.st4{fill:#17759F;}
</style>
<path class="st0" d="M23.3,18.6c0,0,0.4,3.1,3.4,5.7c-3,8.2-4.1,14.8-3.5,19.6c1,10.5,13.2,13.3,15.9,13.4l0.3,0.1
	c-7.3,3.4-26.4,3.2-16.2-37.9L23.3,18.6z"/>
<path class="st1" d="M34.6,27.8c-14.3,19.2-3,27.8,4.4,29.6c-2.7-0.1-14.9-2.9-15.9-13.4c-0.6-4.8,0.4-11.5,3.5-19.6
	c1.6,1.4,3.9,2.7,7.2,3.3C34.1,27.7,34.3,27.7,34.6,27.8"/>
<path class="st2" d="M38.1,1.6c0,0-1.3,8,5.8,15.7c-3.9,3.8-7,7.3-9.4,10.4c-0.3-0.1-0.5-0.1-0.8-0.2c-3.3-0.6-5.6-1.9-7.2-3.3
	c2.4-6.4,6-13.7,11.1-21.6L38.1,1.6z"/>
<path class="st3" d="M39,57.4c-7.4-1.8-18.7-10.4-4.4-29.6c13,3.1,14.5,21.3,6.6,28.4c-0.4,0.4-1,0.8-1.7,1.1
	C39.4,57.4,39.2,57.4,39,57.4"/>
<path class="st1" d="M34.6,27.8C37,24.6,40,21.1,44,17.3c0.3,0.3,0.7,0.7,1,1c11.9,11.4,4.3,34.4-5.5,39c0.7-0.4,1.3-0.7,1.7-1.1
	C49.1,49,47.6,30.8,34.6,27.8"/>
<path class="st0" d="M50.6,11.3c0,0-3.8,7.3,3.9,15.1c11.1,11.1,0.4,29.7-11.9,31.3c-0.9,0.1-2.1,0-3.4-0.3l0.2-0.1
	c9.8-4.6,17.4-27.5,5.5-39c-0.4-0.3-0.7-0.7-1-1c1.8-1.7,3.7-3.5,5.8-5.3L50.6,11.3z"/>
<path class="st4" d="M39.2,57.3c-0.6-0.5-4.9-4.5-1.3-15C37.9,42.4,39.8,57.8,39.2,57.3"/></g>
<defs>
<clipPath id="clip0">
<rect width="78.0001" height="60" fill="white"/>
</clipPath>
</defs>
</svg>
