<svg version="1.1" baseProfile="tiny" xmlns="http://www.w3.org/2000/svg" xmlns:xlink="http://www.w3.org/1999/xlink"
	 x="0px" y="0px" viewBox="0 0 215 116" overflow="visible" xml:space="preserve">
<g>
	<path style="clip-path:url(#SVGID_00000010275068031185983420000000598709194826971067_);fill:#BCBE02;" d="M20.4,32
		c0,0,0.6,4.2,4.5,7.7c-4.1,11.1-5.5,20.1-4.7,26.6c1.3,14.2,17.8,18.1,21.5,18.2l0.3,0.1c-9.9,4.6-35.8,4.3-21.9-51.3L20.4,32z"/>
	<path style="clip-path:url(#SVGID_00000010275068031185983420000000598709194826971067_);fill:#36AEC7;" d="M35.7,44.4
		c-19.3,26-4.1,37.7,6,40.1c-3.7-0.1-20.2-4-21.5-18.2c-0.8-6.5,0.6-15.5,4.7-26.6c2.1,1.9,5.2,3.6,9.7,4.4
		C35,44.3,35.4,44.3,35.7,44.4"/>
	<path style="clip-path:url(#SVGID_00000010275068031185983420000000598709194826971067_);fill:#0571CC;" d="M40.5,9
		c0,0-1.7,10.9,7.9,21.3c-5.3,5.1-9.5,9.8-12.7,14.1c-0.3-0.1-0.7-0.2-1-0.2c-4.5-0.8-7.6-2.5-9.7-4.4c3.2-8.6,8.1-18.5,15-29.3
		L40.5,9z"/>
	<path style="clip-path:url(#SVGID_00000010275068031185983420000000598709194826971067_);fill:#FFFFFF;" d="M41.7,84.5
		c-10.1-2.5-25.3-14.1-6-40.1c17.6,4.1,19.6,28.8,9,38.5c-0.6,0.5-1.4,1.1-2.4,1.5C42.3,84.5,42,84.5,41.7,84.5"/>
	<path style="clip-path:url(#SVGID_00000010275068031185983420000000598709194826971067_);fill:#36AEC7;" d="M35.7,44.4
		c3.2-4.3,7.4-9,12.7-14.1c0.4,0.5,0.9,0.9,1.4,1.4c16.1,15.5,5.8,46.6-7.4,52.8c1-0.5,1.8-1,2.4-1.5C55.4,73.2,53.3,48.6,35.7,44.4
		"/>
	<path style="clip-path:url(#SVGID_00000010275068031185983420000000598709194826971067_);fill:#BCBE02;" d="M57.4,22.1
		c0,0-5.2,9.9,5.3,20.5c15,15.1,0.5,40.2-16.1,42.4c-1.2,0.2-2.8,0-4.6-0.3l0.3-0.1c13.3-6.2,23.5-37.3,7.4-52.8
		c-0.5-0.5-0.9-0.9-1.4-1.4c2.4-2.3,5-4.7,7.9-7.2L57.4,22.1z"/>
	<path style="clip-path:url(#SVGID_00000010275068031185983420000000598709194826971067_);fill:#17759F;" d="M42,84.5
		c-0.8-0.6-6.6-6.1-1.8-20.3C40.2,64.2,42.8,85.1,42,84.5"/>
	<polygon style="clip-path:url(#SVGID_00000010275068031185983420000000598709194826971067_);fill:#0571CC;" points="80.6,74.3 
		100.3,74.3 100.3,68.8 87.9,68.8 87.9,61.5 99.3,61.5 99.3,56 87.9,56 87.9,50.9 100.3,50.9 100.3,45.4 80.6,45.4 	"/>
	<path style="clip-path:url(#SVGID_00000010275068031185983420000000598709194826971067_);fill:#0571CC;" d="M112.3,43.9
		c-2.9,0-5,0.7-6.4,2c-1.4,1.3-2.1,3.3-2.1,6v0.6h-2.7v4.7h2.7v17.1h6.9V57.2h5.2v-4.7h-5.5v-0.2c0-1.4,0.3-2.3,0.8-2.8
		c0.5-0.5,1.4-0.8,2.8-0.8c0.5,0,1,0.1,1.6,0.2c0.6,0.1,1,0.2,1.2,0.3h0.5v-4.9c-0.6-0.1-1.4-0.2-2.2-0.3
		C114.2,43.9,113.3,43.9,112.3,43.9"/>
	
		<rect x="118.4" y="44.1" style="clip-path:url(#SVGID_00000010275068031185983420000000598709194826971067_);fill:#0571CC;" width="7.3" height="5.3"/>
	
		<rect x="118.6" y="52.5" style="clip-path:url(#SVGID_00000010275068031185983420000000598709194826971067_);fill:#0571CC;" width="6.9" height="21.8"/>
	<path style="clip-path:url(#SVGID_00000010275068031185983420000000598709194826971067_);fill:#0571CC;" d="M142.2,53.5
		c-0.7-0.5-1.5-0.9-2.4-1.1c-0.9-0.3-1.9-0.4-3-0.4c-1.2,0-2.4,0.2-3.6,0.7c-1.2,0.5-2.1,1.2-2.9,2.1c-0.8,1-1.5,2.1-2,3.5
		c-0.5,1.4-0.7,2.9-0.7,4.6c0,3.8,0.8,6.6,2.3,8.4c1.5,1.8,3.7,2.8,6.6,2.8c1.1,0,2.1-0.2,3.1-0.6c1-0.4,1.9-0.9,2.7-1.6v0.4
		c0,0.9-0.1,1.7-0.2,2.3c-0.2,0.6-0.4,1.2-0.8,1.6c-0.4,0.4-1,0.8-1.8,1c-0.8,0.2-1.7,0.4-2.9,0.4c-0.6,0-1.1,0-1.6-0.1
		c-0.5-0.1-1.1-0.2-1.6-0.3c-0.5-0.1-0.9-0.3-1.4-0.4c-0.5-0.2-0.9-0.3-1.2-0.4h-0.8v5.5c1,0.2,2.1,0.5,3.4,0.7
		c1.3,0.2,2.7,0.3,4.2,0.3c1.7,0,3.3-0.2,4.7-0.5c1.4-0.4,2.6-0.9,3.7-1.7c1-0.8,1.8-1.9,2.4-3.3c0.6-1.4,0.9-3.1,0.9-5.2V52.5h-6.6
		L142.2,53.5z M142.3,67.4c-0.5,0.4-1.1,0.7-1.7,0.9c-0.6,0.2-1.2,0.3-1.8,0.3c-0.8,0-1.5-0.1-2-0.4c-0.5-0.3-1-0.6-1.3-1.1
		c-0.3-0.5-0.6-1.1-0.7-1.7c-0.1-0.7-0.2-1.5-0.2-2.4c0-1.9,0.4-3.4,1.2-4.4c0.8-1.1,2.1-1.6,3.7-1.6c0.5,0,1,0.1,1.5,0.2
		c0.5,0.1,0.9,0.2,1.3,0.4V67.4z"/>
	<path style="clip-path:url(#SVGID_00000010275068031185983420000000598709194826971067_);fill:#0571CC;" d="M169.1,53.8
		c-1.7-1.3-4.5-1.9-8.3-1.9c-1.5,0-3.1,0.1-4.6,0.4c-1.5,0.3-2.6,0.5-3.3,0.7v5.3h0.6c1-0.5,2.1-0.8,3.2-1.1c1.1-0.3,2-0.4,2.8-0.4
		c1.8,0,3.1,0.2,4,0.7c0.9,0.5,1.3,1.3,1.3,2.5V60c-2,0.1-3.8,0.3-5.6,0.5c-1.7,0.2-3.2,0.6-4.5,1.2c-1.2,0.6-2.2,1.4-2.8,2.4
		c-0.7,1-1,2.3-1,3.9c0,2,0.6,3.6,1.9,4.9c1.3,1.3,2.9,1.9,4.9,1.9c1,0,1.9-0.1,2.4-0.2c0.6-0.2,1.2-0.4,1.8-0.7
		c0.6-0.3,1.1-0.6,1.5-0.9c0.4-0.3,0.8-0.7,1.3-1v2.3h6.8V59.5C171.7,56.9,170.9,55,169.1,53.8 M164.9,68.6
		c-0.5,0.5-1.1,0.9-1.7,1.1c-0.6,0.3-1.2,0.4-1.8,0.4c-1.1,0-1.9-0.2-2.5-0.6c-0.6-0.4-0.8-1.1-0.8-2.1c0-0.7,0.2-1.3,0.5-1.7
		c0.3-0.4,0.8-0.7,1.4-0.9c0.7-0.2,1.4-0.4,2.1-0.5c0.7-0.1,1.7-0.2,2.8-0.3V68.6z"/>
	<path style="clip-path:url(#SVGID_00000010275068031185983420000000598709194826971067_);fill:#0571CC;" d="M191.4,63.6
		c-0.8-1-2-1.7-3.6-2.2c-0.7-0.2-1.4-0.4-2.2-0.6c-0.8-0.1-1.4-0.3-2-0.4c-1.1-0.3-1.9-0.6-2.2-0.8c-0.3-0.3-0.5-0.7-0.5-1.2
		c0-0.6,0.3-1,1-1.3c0.7-0.3,1.5-0.5,2.5-0.5c0.7,0,1.5,0.1,2.2,0.3c0.7,0.2,1.4,0.4,1.9,0.6c0.5,0.2,1,0.5,1.5,0.8
		c0.5,0.3,0.9,0.5,1.1,0.7h0.5v-5.5c-0.9-0.4-2-0.8-3.3-1.1c-1.3-0.3-2.7-0.5-4.3-0.5c-1.6,0-3.1,0.2-4.4,0.6
		c-1.3,0.4-2.4,0.9-3.2,1.6c-0.9,0.7-1.5,1.4-2,2.3c-0.5,0.9-0.7,1.8-0.7,2.8c0,1.7,0.4,3.1,1.3,4.1c0.9,1,2.2,1.8,3.9,2.4
		c0.6,0.2,1.3,0.4,2.1,0.5c0.8,0.1,1.5,0.3,2,0.4c1,0.2,1.6,0.5,2,0.7c0.3,0.3,0.5,0.6,0.5,1.1c0,0.6-0.4,1.1-1.1,1.4
		c-0.7,0.3-1.6,0.4-2.6,0.4c-0.9,0-1.8-0.1-2.6-0.3c-0.8-0.2-1.5-0.5-2.2-0.8c-0.7-0.3-1.3-0.6-1.7-0.9c-0.4-0.3-0.8-0.6-1.1-0.8
		h-0.6v5.8c0.9,0.5,2.1,0.9,3.6,1.2c1.4,0.4,3,0.5,4.6,0.5c1.8,0,3.3-0.2,4.6-0.6c1.3-0.4,2.4-0.9,3.3-1.6c0.9-0.6,1.6-1.4,2.1-2.3
		c0.5-0.9,0.7-1.9,0.7-2.9C192.6,65.9,192.2,64.6,191.4,63.6"/>
	<path style="clip-path:url(#SVGID_00000010275068031185983420000000598709194826971067_);fill:#0571CC;" d="M114.2,97.5h-3.1
		c-0.1,0-0.1-0.1-0.2-0.1l-0.5-1.7h-3.5l-0.6,1.7c0,0.1-0.1,0.1-0.2,0.1h-3.1c-0.1,0-0.1,0-0.1-0.1c0,0,0-0.1,0-0.2l4.4-12.1
		c0-0.1,0.1-0.1,0.2-0.1h2.3c0.1,0,0.1,0,0.2,0.1l4.4,12.1c0,0.1,0,0.1,0,0.2C114.3,97.5,114.2,97.5,114.2,97.5 M111.2,97.1h2.7
		l-4.3-11.7h-2l-4.3,11.7h2.7l0.6-1.7c0-0.1,0.1-0.1,0.2-0.1h3.7c0.1,0,0.1,0.1,0.2,0.1L111.2,97.1z M109.7,93.2h-2.1
		c-0.1,0-0.1,0-0.1-0.1c0,0,0-0.1,0-0.2l1.1-3.2c0-0.1,0.1-0.1,0.2-0.1c0.1,0,0.1,0.1,0.2,0.1l1,3.2c0,0.1,0,0.1,0,0.2
		C109.8,93.2,109.8,93.2,109.7,93.2 M107.9,92.9h1.6l-0.8-2.5L107.9,92.9z"/>
	<path style="clip-path:url(#SVGID_00000010275068031185983420000000598709194826971067_);fill:#0571CC;" d="M122.3,97.5h-2.8
		c-0.1,0-0.2-0.1-0.2-0.2v-5.5c0-0.4-0.1-0.6-0.3-0.8c-0.2-0.1-0.3-0.2-0.6-0.2c-0.2,0-0.4,0.1-0.6,0.2c-0.2,0.2-0.3,0.4-0.3,0.8
		v5.5c0,0.1-0.1,0.2-0.2,0.2h-2.8c-0.1,0-0.2-0.1-0.2-0.2V85.2c0-0.1,0.1-0.2,0.2-0.2h2.8c0.1,0,0.2,0.1,0.2,0.2v3.3
		c0.5-0.4,1.1-0.6,1.8-0.6c1,0,1.8,0.3,2.3,1c0.5,0.6,0.8,1.4,0.8,2.5v5.9C122.5,97.4,122.4,97.5,122.3,97.5 M119.7,97.1h2.4v-5.7
		c0-0.9-0.2-1.7-0.7-2.2c-0.5-0.6-1.2-0.9-2.1-0.9c-0.7,0-1.3,0.3-1.9,0.8c-0.1,0.1-0.1,0.1-0.2,0c-0.1,0-0.1-0.1-0.1-0.2v-3.5h-2.4
		v11.7h2.4v-5.4c0-0.5,0.2-0.9,0.5-1.1c0.2-0.2,0.5-0.3,0.8-0.3c0.3,0,0.5,0.1,0.8,0.3c0.3,0.3,0.5,0.6,0.5,1.1V97.1z"/>
	<path style="clip-path:url(#SVGID_00000010275068031185983420000000598709194826971067_);fill:#0571CC;" d="M126.2,97.5h-2.8
		c-0.1,0-0.2-0.1-0.2-0.2v-9.1c0-0.1,0.1-0.2,0.2-0.2h2.8c0.1,0,0.2,0.1,0.2,0.2v9.1C126.4,97.4,126.3,97.5,126.2,97.5 M123.6,97.1
		h2.4v-8.8h-2.4V97.1z M125.2,87.1h-1.7c-0.1,0-0.1,0-0.1-0.1c0,0,0-0.1,0-0.2l0.8-3.1c0-0.1,0.1-0.1,0.2-0.1h2.9
		c0.1,0,0.1,0,0.2,0.1c0,0.1,0,0.1,0,0.2l-2,3.1C125.3,87.1,125.3,87.1,125.2,87.1 M123.8,86.8h1.4l1.8-2.7h-2.4L123.8,86.8z"/>
	<path style="clip-path:url(#SVGID_00000010275068031185983420000000598709194826971067_);fill:#0571CC;" d="M138,94.3
		c0,1-0.4,1.8-1.2,2.4c-0.7,0.5-1.6,0.7-2.8,0.7c-0.9,0-1.6-0.1-2-0.2c-0.7-0.2-1.4-0.6-1.9-1.1l1.8-1.8c0.5,0.5,1.3,0.8,2.2,0.8
		c0.8,0,1.2-0.2,1.2-0.6c0-0.3-0.2-0.5-0.7-0.6l-1.4-0.1c-1.8-0.2-2.7-1.1-2.7-2.6c0-1,0.4-1.7,1.1-2.3c0.7-0.5,1.5-0.7,2.5-0.7
		c1.7,0,2.9,0.4,3.6,1.1l-1.7,1.7c-0.4-0.4-1-0.5-1.9-0.5c-0.6,0-0.9,0.2-0.9,0.5c0,0.3,0.2,0.5,0.6,0.5l1.4,0.1
		c0.9,0.1,1.6,0.4,2.1,0.9C137.7,92.9,138,93.6,138,94.3"/>
	<path style="clip-path:url(#SVGID_00000010275068031185983420000000598709194826971067_);fill:#0571CC;" d="M141.7,86.1
		c0,0.5-0.2,0.9-0.5,1.2c-0.3,0.3-0.7,0.5-1.2,0.5s-0.9-0.2-1.2-0.5c-0.3-0.3-0.5-0.7-0.5-1.2c0-0.5,0.2-0.9,0.5-1.2
		c0.3-0.3,0.7-0.5,1.2-0.5s0.9,0.2,1.2,0.5C141.5,85.2,141.7,85.6,141.7,86.1 M141.3,97.3h-2.8v-8.8h2.8V97.3z"/>
	<path style="clip-path:url(#SVGID_00000010275068031185983420000000598709194826971067_);fill:#0571CC;" d="M150.3,93.7h-5.5
		c0,0.4,0.1,0.7,0.4,1c0.3,0.3,0.7,0.4,1.2,0.4c0.7,0,1.4-0.3,1.9-0.8L150,96c-0.5,0.5-1,0.9-1.5,1.1c-0.6,0.2-1.3,0.4-2.1,0.4
		c-2.9,0-4.3-1.6-4.3-4.7c0-1.5,0.4-2.6,1.2-3.5c0.7-0.8,1.7-1.2,2.9-1.2c1.3,0,2.3,0.4,3.1,1.3c0.7,0.8,1.1,1.8,1.1,3.1V93.7z
		 M147.6,91.8c0-0.4-0.1-0.8-0.4-1c-0.2-0.3-0.6-0.4-1-0.4c-0.6,0-1,0.2-1.2,0.7c-0.1,0.2-0.2,0.5-0.2,0.7H147.6z"/>
	<path style="clip-path:url(#SVGID_00000010275068031185983420000000598709194826971067_);fill:#0571CC;" d="M164,97.3h-2.8v-5.5
		c0-0.5-0.1-0.8-0.4-1c-0.2-0.2-0.4-0.2-0.7-0.2c-0.3,0-0.5,0.1-0.7,0.2c-0.3,0.2-0.4,0.6-0.4,1v5.5h-2.8v-5.5c0-0.5-0.1-0.8-0.4-1
		c-0.2-0.2-0.4-0.2-0.7-0.2c-0.3,0-0.5,0.1-0.7,0.2c-0.3,0.2-0.4,0.6-0.4,1v5.5h-2.8v-9.1h2.7v0.7c0.6-0.6,1.3-0.8,2.1-0.8
		c0.9,0,1.7,0.3,2.2,1c0.7-0.6,1.6-1,2.6-1c0.9,0,1.7,0.3,2.2,0.8c0.7,0.7,1,1.5,1,2.6V97.3z"/>
	<path style="clip-path:url(#SVGID_00000010275068031185983420000000598709194826971067_);fill:#0571CC;" d="M173,92.8
		c0,1,0,1.7-0.1,2.1c-0.1,0.8-0.4,1.4-0.8,1.7c-0.6,0.6-1.3,0.8-2.2,0.8c-0.8,0-1.5-0.3-2-0.8v3.6h-2.8V88.2h2.7v0.7
		c0.6-0.6,1.3-0.8,2.1-0.8c0.9,0,1.7,0.3,2.2,0.8c0.4,0.4,0.7,1,0.8,1.7C173,91.1,173,91.8,173,92.8 M170.2,92.8
		c0-0.8-0.1-1.3-0.2-1.6c-0.2-0.4-0.5-0.6-1-0.6s-0.8,0.2-1,0.6c-0.1,0.3-0.2,0.8-0.2,1.6c0,0.8,0.1,1.3,0.2,1.6
		c0.2,0.4,0.5,0.6,1,0.6s0.8-0.2,1-0.6C170.1,94,170.2,93.5,170.2,92.8"/>
	<path style="clip-path:url(#SVGID_00000010275068031185983420000000598709194826971067_);fill:#0571CC;" d="M181,88.9l-2.1,2.1
		c-0.3-0.3-0.7-0.5-1-0.5c-0.3,0-0.5,0.1-0.7,0.2c-0.3,0.2-0.4,0.6-0.4,1v5.5H174v-9.1h2.7v0.7c0.6-0.6,1.3-0.8,2.2-0.8
		C179.7,88.1,180.4,88.4,181,88.9"/>
	<path style="clip-path:url(#SVGID_00000010275068031185983420000000598709194826971067_);fill:#0571CC;" d="M188.7,93.7h-5.5
		c0,0.4,0.1,0.7,0.4,1c0.3,0.3,0.7,0.4,1.2,0.4c0.7,0,1.4-0.3,1.9-0.8l1.7,1.7c-0.5,0.5-1,0.9-1.5,1.1c-0.6,0.2-1.3,0.4-2.1,0.4
		c-2.9,0-4.3-1.6-4.3-4.7c0-1.5,0.4-2.6,1.2-3.5c0.7-0.8,1.7-1.2,2.9-1.2c1.3,0,2.3,0.4,3.1,1.3c0.7,0.8,1.1,1.8,1.1,3.1V93.7z
		 M185.9,91.8c0-0.4-0.1-0.8-0.4-1c-0.2-0.3-0.6-0.4-1-0.4c-0.6,0-1,0.2-1.2,0.7c-0.1,0.2-0.2,0.5-0.2,0.7H185.9z"/>
	<path style="clip-path:url(#SVGID_00000010275068031185983420000000598709194826971067_);fill:#0571CC;" d="M192.7,95.6
		c0,0.5-0.2,0.9-0.5,1.3c-0.3,0.4-0.8,0.5-1.3,0.5c-0.5,0-0.9-0.2-1.3-0.5c-0.4-0.4-0.5-0.8-0.5-1.3c0-0.5,0.2-0.9,0.5-1.3
		c0.4-0.3,0.8-0.5,1.3-0.5c0.5,0,0.9,0.2,1.3,0.5C192.5,94.7,192.7,95.1,192.7,95.6"/>
</g>
</svg>