<?xml version="1.0" encoding="utf-8"?>
<svg version="1.1" id="Capa_1" xmlns="http://www.w3.org/2000/svg" xmlns:xlink="http://www.w3.org/1999/xlink" x="0px" y="0px"
	 viewBox="0 0 260 80" style="enable-background:new 0 0 260 80;" xml:space="preserve">
<style type="text/css">
	.st0{fill:#FFFFFF;}
	.st1{clip-path:url(#SVGID_00000168825878773165451610000000790343572532034953_);fill:#FFFFFF;}
	.st2{fill-rule:evenodd;clip-rule:evenodd;fill:#FFFFFF;}
</style>
<g>
	<g>
		<path class="st0" d="M151.1,69.7c-0.2,0-0.3-0.1-0.3-0.3V15.9c0-0.2,0.1-0.3,0.3-0.3s0.3,0.1,0.3,0.3v53.5
			C151.4,69.6,151.3,69.7,151.1,69.7z"/>
	</g>
	<g>
		<g>
			<defs>
				<rect id="SVGID_11_" y="0.4" width="145.3" height="79.2"/>
			</defs>
			<clipPath id="SVGID_00000112600388852446520560000007775418714220829358_">
				<use xlink:href="#SVGID_11_"  style="overflow:visible;"/>
			</clipPath>
			<path style="clip-path:url(#SVGID_00000112600388852446520560000007775418714220829358_);fill:#FFFFFF;" d="M15.3,24.1
				c0,0,0.4,2.8,3.1,5.3c-2.8,7.6-3.8,13.7-3.2,18.2C16,57.3,27.3,59.9,29.8,60l0.2,0.1C23.3,63.2,5.6,63,15.1,25L15.3,24.1z"/>
			<path style="clip-path:url(#SVGID_00000112600388852446520560000007775418714220829358_);fill:#FFFFFF;" d="M29,8.4
				c0,0-1.2,7.5,5.4,14.5c-3.6,3.5-6.5,6.7-8.7,9.7c-0.2-0.1-0.5-0.1-0.7-0.1c-3.1-0.6-5.2-1.7-6.7-3c2.2-5.9,5.6-12.6,10.3-20
				L29,8.4z"/>
			<path style="clip-path:url(#SVGID_00000112600388852446520560000007775418714220829358_);fill:#FFFFFF;" d="M40.5,17.3
				c0,0-3.6,6.8,3.6,14c10.2,10.3,0.3,27.5-11,28.9c-0.8,0.1-1.9,0-3.1-0.2l0.2-0.1c9.1-4.2,16.1-25.5,5.1-36.1
				c-0.3-0.3-0.6-0.6-0.9-0.9c1.6-1.6,3.4-3.2,5.4-4.9L40.5,17.3z"/>
			<path style="clip-path:url(#SVGID_00000112600388852446520560000007775418714220829358_);fill:#FFFFFF;" d="M25.7,32.6
				C12.5,50.3,22.9,58.3,29.8,60c0.2,0,0.4,0,0.4,0c0.7-0.3,1.2-0.7,1.6-1C39.2,52.3,37.8,35.4,25.7,32.6 M30,60
				c-0.5-0.4-4.5-4.2-1.2-13.9C28.8,46.1,30.5,60.4,30,60"/>
			<polygon style="clip-path:url(#SVGID_00000112600388852446520560000007775418714220829358_);fill:#FFFFFF;" points="56.4,53 
				69.9,53 69.9,49.3 61.3,49.3 61.3,44.3 69.2,44.3 69.2,40.5 61.3,40.5 61.3,37 69.9,37 69.9,33.3 56.4,33.3 			"/>
			<path style="clip-path:url(#SVGID_00000112600388852446520560000007775418714220829358_);fill:#FFFFFF;" d="M78.1,32.2
				c-2,0-3.4,0.5-4.4,1.4c-1,0.9-1.4,2.3-1.4,4.1v0.4h-1.9v3.2h1.9V53h4.7V41.4h3.6v-3.2h-3.7V38c0-0.9,0.2-1.6,0.5-1.9
				c0.3-0.3,1-0.5,1.9-0.5c0.3,0,0.7,0,1.1,0.1c0.4,0.1,0.7,0.2,0.8,0.2h0.4v-3.4c-0.4-0.1-0.9-0.1-1.5-0.2
				C79.4,32.3,78.7,32.2,78.1,32.2"/>
			
				<rect x="82.2" y="32.4" style="clip-path:url(#SVGID_00000112600388852446520560000007775418714220829358_);fill:#FFFFFF;" width="5" height="3.6"/>
			
				<rect x="82.4" y="38.1" style="clip-path:url(#SVGID_00000112600388852446520560000007775418714220829358_);fill:#FFFFFF;" width="4.7" height="14.9"/>
			<path style="clip-path:url(#SVGID_00000112600388852446520560000007775418714220829358_);fill:#FFFFFF;" d="M98.5,38.8
				c-0.5-0.3-1.1-0.6-1.7-0.8c-0.6-0.2-1.3-0.3-2.1-0.3c-0.8,0-1.7,0.2-2.5,0.5c-0.8,0.3-1.5,0.8-2,1.5c-0.6,0.7-1,1.4-1.4,2.4
				c-0.3,0.9-0.5,2-0.5,3.1c0,2.6,0.5,4.5,1.6,5.7c1.1,1.3,2.6,1.9,4.5,1.9c0.7,0,1.4-0.1,2.1-0.4c0.7-0.3,1.3-0.6,1.8-1.1v0.3
				c0,0.6-0.1,1.2-0.2,1.6c-0.1,0.4-0.3,0.8-0.6,1.1c-0.3,0.3-0.7,0.5-1.2,0.7c-0.5,0.2-1.2,0.2-2,0.2c-0.4,0-0.8,0-1.1-0.1
				c-0.4-0.1-0.7-0.1-1.1-0.2c-0.3-0.1-0.6-0.2-1-0.3c-0.3-0.1-0.6-0.2-0.8-0.3H90V58c0.7,0.2,1.4,0.3,2.3,0.4
				c0.9,0.1,1.8,0.2,2.8,0.2c1.2,0,2.3-0.1,3.2-0.4c1-0.2,1.8-0.6,2.5-1.2c0.7-0.5,1.2-1.3,1.6-2.3c0.4-1,0.6-2.1,0.6-3.5V38.1h-4.5
				L98.5,38.8z M98.5,48.3c-0.4,0.3-0.8,0.5-1.2,0.6c-0.4,0.1-0.8,0.2-1.2,0.2c-0.6,0-1-0.1-1.4-0.3c-0.4-0.2-0.7-0.4-0.9-0.8
				c-0.2-0.3-0.4-0.7-0.5-1.2c-0.1-0.4-0.1-1-0.1-1.6c0-1.3,0.3-2.3,0.9-3c0.6-0.7,1.4-1.1,2.5-1.1c0.3,0,0.7,0,1,0.1
				c0.3,0.1,0.6,0.2,0.9,0.3V48.3z"/>
			<path style="clip-path:url(#SVGID_00000112600388852446520560000007775418714220829358_);fill:#FFFFFF;" d="M116.9,39
				c-1.2-0.9-3.1-1.3-5.7-1.3c-1.1,0-2.1,0.1-3.1,0.3c-1,0.2-1.8,0.3-2.3,0.5V42h0.4c0.7-0.3,1.4-0.6,2.2-0.8
				c0.7-0.2,1.4-0.3,1.9-0.3c1.2,0,2.1,0.2,2.8,0.5c0.6,0.3,0.9,0.9,0.9,1.7v0.1c-1.4,0.1-2.6,0.2-3.8,0.4c-1.2,0.2-2.2,0.4-3,0.9
				c-0.8,0.4-1.5,0.9-1.9,1.6c-0.4,0.7-0.7,1.6-0.7,2.7c0,1.3,0.4,2.5,1.3,3.3c0.9,0.9,2,1.3,3.3,1.3c0.7,0,1.3-0.1,1.7-0.2
				c0.4-0.1,0.8-0.3,1.2-0.5c0.4-0.2,0.8-0.4,1-0.6c0.3-0.2,0.5-0.5,0.9-0.7V53h4.7V42.9C118.7,41.1,118.1,39.8,116.9,39 M114,49.1
				c-0.3,0.3-0.7,0.6-1.2,0.8c-0.4,0.2-0.8,0.3-1.3,0.3c-0.7,0-1.3-0.1-1.7-0.4c-0.4-0.3-0.6-0.7-0.6-1.4c0-0.5,0.1-0.9,0.3-1.1
				c0.2-0.3,0.5-0.5,1-0.6c0.5-0.2,1-0.3,1.4-0.3c0.5-0.1,1.1-0.1,1.9-0.2V49.1z"/>
			<path style="clip-path:url(#SVGID_00000112600388852446520560000007775418714220829358_);fill:#FFFFFF;" d="M132.1,45.7
				c-0.6-0.7-1.4-1.2-2.5-1.5c-0.5-0.2-1-0.3-1.5-0.4c-0.5-0.1-1-0.2-1.4-0.3c-0.8-0.2-1.3-0.4-1.5-0.6c-0.2-0.2-0.3-0.5-0.3-0.8
				c0-0.4,0.2-0.7,0.7-0.9c0.5-0.2,1-0.3,1.7-0.3c0.5,0,1,0.1,1.5,0.2c0.5,0.1,0.9,0.3,1.3,0.4c0.3,0.2,0.7,0.3,1,0.5
				c0.3,0.2,0.6,0.4,0.8,0.5h0.4v-3.8c-0.6-0.3-1.4-0.5-2.2-0.8c-0.9-0.2-1.9-0.3-2.9-0.3c-1.1,0-2.1,0.1-3,0.4
				c-0.9,0.3-1.6,0.6-2.2,1.1c-0.6,0.5-1.1,1-1.4,1.6c-0.3,0.6-0.5,1.2-0.5,1.9c0,1.2,0.3,2.1,0.9,2.8c0.6,0.7,1.5,1.2,2.7,1.6
				c0.4,0.1,0.9,0.3,1.4,0.4c0.5,0.1,1,0.2,1.4,0.3c0.7,0.2,1.1,0.3,1.4,0.5c0.2,0.2,0.3,0.4,0.3,0.8c0,0.4-0.3,0.8-0.8,1
				c-0.5,0.2-1.1,0.3-1.7,0.3c-0.6,0-1.2-0.1-1.8-0.2c-0.5-0.1-1-0.3-1.5-0.5c-0.5-0.2-0.9-0.4-1.2-0.6c-0.3-0.2-0.5-0.4-0.8-0.6
				H120v3.9c0.6,0.3,1.5,0.6,2.4,0.8c1,0.2,2,0.4,3.1,0.4c1.2,0,2.3-0.1,3.1-0.4c0.9-0.3,1.6-0.6,2.3-1.1c0.6-0.4,1.1-1,1.4-1.6
				c0.3-0.6,0.5-1.3,0.5-2C132.9,47.3,132.6,46.4,132.1,45.7"/>
			<path style="clip-path:url(#SVGID_00000112600388852446520560000007775418714220829358_);fill:#FFFFFF;" d="M79.3,68.9h-2.1
				c-0.1,0-0.1,0-0.1-0.1l-0.4-1.1h-2.4L74,68.8c0,0-0.1,0.1-0.1,0.1h-2.1c0,0-0.1,0-0.1-0.1c0,0,0-0.1,0-0.1l3-8.3
				c0,0,0.1-0.1,0.1-0.1h1.6c0.1,0,0.1,0,0.1,0.1l3,8.3C79.4,68.7,79.4,68.8,79.3,68.9C79.4,68.8,79.4,68.9,79.3,68.9 M77.3,68.6
				h1.9l-2.9-8h-1.4l-2.9,8h1.9l0.4-1.1c0,0,0.1-0.1,0.1-0.1h2.5c0.1,0,0.1,0,0.1,0.1L77.3,68.6z M76.3,65.9h-1.4c0,0-0.1,0-0.1-0.1
				c0,0,0-0.1,0-0.1l0.7-2.2c0,0,0.1-0.1,0.1-0.1c0.1,0,0.1,0,0.1,0.1l0.7,2.2C76.4,65.8,76.4,65.9,76.3,65.9
				C76.4,65.9,76.3,65.9,76.3,65.9 M75,65.7h1.1L75.6,64L75,65.7z"/>
			<path style="clip-path:url(#SVGID_00000112600388852446520560000007775418714220829358_);fill:#FFFFFF;" d="M84.9,68.9H83
				c-0.1,0-0.1-0.1-0.1-0.1V65c0-0.3-0.1-0.4-0.2-0.6c-0.1-0.1-0.2-0.1-0.4-0.1c-0.1,0-0.3,0-0.4,0.1c-0.2,0.1-0.2,0.3-0.2,0.6v3.8
				c0,0.1-0.1,0.1-0.1,0.1h-1.9c-0.1,0-0.1-0.1-0.1-0.1v-8.3c0-0.1,0.1-0.1,0.1-0.1h1.9c0.1,0,0.1,0.1,0.1,0.1v2.3
				c0.4-0.3,0.8-0.4,1.2-0.4c0.7,0,1.2,0.2,1.6,0.7c0.3,0.4,0.5,1,0.5,1.7v4C85,68.8,84.9,68.9,84.9,68.9 M83.1,68.6h1.7v-3.9
				c0-0.6-0.2-1.1-0.5-1.5c-0.3-0.4-0.8-0.6-1.4-0.6c-0.5,0-0.9,0.2-1.3,0.5c0,0-0.1,0-0.1,0c0,0-0.1-0.1-0.1-0.1v-2.4h-1.7v8h1.7
				V65c0-0.3,0.1-0.6,0.3-0.8c0.2-0.1,0.3-0.2,0.5-0.2c0.2,0,0.4,0.1,0.5,0.2c0.2,0.2,0.3,0.4,0.3,0.8V68.6z"/>
			<path style="clip-path:url(#SVGID_00000112600388852446520560000007775418714220829358_);fill:#FFFFFF;" d="M87.6,68.9h-1.9
				c-0.1,0-0.1-0.1-0.1-0.1v-6.2c0-0.1,0.1-0.1,0.1-0.1h1.9c0.1,0,0.1,0.1,0.1,0.1v6.2C87.7,68.8,87.6,68.9,87.6,68.9 M85.8,68.6
				h1.7v-6h-1.7V68.6z M86.9,61.8h-1.1c0,0-0.1,0-0.1,0c0,0,0-0.1,0-0.1l0.6-2.1c0-0.1,0.1-0.1,0.1-0.1h1.9c0,0,0.1,0,0.1,0.1
				c0,0,0,0.1,0,0.1L87,61.7C87,61.8,86.9,61.8,86.9,61.8 M85.9,61.5h0.9l1.2-1.8h-1.6L85.9,61.5z"/>
			<path style="clip-path:url(#SVGID_00000112600388852446520560000007775418714220829358_);fill:#FFFFFF;" d="M95.6,66.7
				c0,0.7-0.3,1.2-0.8,1.6c-0.5,0.3-1.1,0.5-1.9,0.5c-0.6,0-1.1,0-1.4-0.1c-0.5-0.1-0.9-0.4-1.3-0.8l1.2-1.2
				c0.3,0.3,0.9,0.5,1.5,0.5c0.5,0,0.8-0.1,0.8-0.4c0-0.2-0.2-0.4-0.5-0.4l-1-0.1c-1.2-0.1-1.8-0.7-1.8-1.8c0-0.6,0.3-1.2,0.8-1.6
				c0.5-0.3,1-0.5,1.7-0.5c1.1,0,1.9,0.3,2.5,0.8l-1.2,1.2C94,64.1,93.6,64,93,64c-0.4,0-0.6,0.1-0.6,0.4c0,0.2,0.1,0.3,0.4,0.3
				l1,0.1c0.6,0.1,1.1,0.3,1.4,0.6C95.4,65.7,95.6,66.2,95.6,66.7"/>
			<path style="clip-path:url(#SVGID_00000112600388852446520560000007775418714220829358_);fill:#FFFFFF;" d="M98.1,61.1
				c0,0.3-0.1,0.6-0.3,0.8c-0.2,0.2-0.5,0.3-0.8,0.3c-0.3,0-0.6-0.1-0.8-0.3c-0.2-0.2-0.3-0.5-0.3-0.8c0-0.3,0.1-0.6,0.3-0.8
				c0.2-0.2,0.5-0.3,0.8-0.3c0.3,0,0.6,0.1,0.8,0.3C98,60.5,98.1,60.7,98.1,61.1 M97.9,68.7H96v-6h1.9V68.7z"/>
			<path style="clip-path:url(#SVGID_00000112600388852446520560000007775418714220829358_);fill:#FFFFFF;" d="M104,66.2h-3.7
				c0,0.3,0.1,0.5,0.3,0.7c0.2,0.2,0.5,0.3,0.8,0.3c0.5,0,0.9-0.2,1.3-0.5l1.1,1.1c-0.3,0.3-0.7,0.6-1,0.7c-0.4,0.2-0.9,0.3-1.4,0.3
				c-2,0-3-1.1-3-3.2c0-1,0.3-1.8,0.8-2.4c0.5-0.5,1.2-0.8,2-0.8c0.9,0,1.6,0.3,2.1,0.9c0.5,0.5,0.7,1.2,0.7,2.1V66.2z M102.1,65
				c0-0.3-0.1-0.5-0.2-0.7c-0.2-0.2-0.4-0.3-0.7-0.3c-0.4,0-0.7,0.2-0.8,0.5c-0.1,0.2-0.1,0.3-0.1,0.5H102.1z"/>
			<path style="clip-path:url(#SVGID_00000112600388852446520560000007775418714220829358_);fill:#FFFFFF;" d="M113.3,68.7h-1.9V65
				c0-0.3-0.1-0.5-0.3-0.7c-0.1-0.1-0.3-0.2-0.5-0.2c-0.2,0-0.3,0.1-0.5,0.2c-0.2,0.1-0.3,0.4-0.3,0.7v3.7H108V65
				c0-0.3-0.1-0.5-0.3-0.7c-0.1-0.1-0.3-0.2-0.5-0.2c-0.2,0-0.3,0.1-0.5,0.2c-0.2,0.1-0.3,0.4-0.3,0.7v3.7h-1.9v-6.2h1.8V63
				c0.4-0.4,0.9-0.6,1.5-0.6c0.6,0,1.1,0.2,1.5,0.7c0.5-0.4,1.1-0.7,1.8-0.7c0.6,0,1.1,0.2,1.5,0.5c0.5,0.5,0.7,1.1,0.7,1.8V68.7z"
				/>
			<path style="clip-path:url(#SVGID_00000112600388852446520560000007775418714220829358_);fill:#FFFFFF;" d="M119.5,65.6
				c0,0.7,0,1.2-0.1,1.4c-0.1,0.5-0.3,0.9-0.5,1.2c-0.4,0.4-0.9,0.6-1.5,0.6c-0.6,0-1-0.2-1.4-0.5v2.5h-1.9v-8.3h1.8V63
				c0.4-0.4,0.9-0.6,1.4-0.6c0.6,0,1.1,0.2,1.5,0.6c0.3,0.3,0.4,0.7,0.5,1.2C119.5,64.5,119.5,64.9,119.5,65.6 M117.6,65.6
				c0-0.5,0-0.9-0.1-1.1c-0.1-0.3-0.3-0.4-0.7-0.4c-0.3,0-0.5,0.1-0.7,0.4c-0.1,0.2-0.1,0.6-0.1,1.1c0,0.5,0,0.9,0.1,1.1
				c0.1,0.3,0.3,0.4,0.7,0.4c0.3,0,0.5-0.1,0.7-0.4C117.6,66.5,117.6,66.1,117.6,65.6"/>
			<path style="clip-path:url(#SVGID_00000112600388852446520560000007775418714220829358_);fill:#FFFFFF;" d="M124.9,63l-1.4,1.5
				c-0.2-0.2-0.4-0.3-0.7-0.3c-0.2,0-0.3,0.1-0.5,0.2c-0.2,0.2-0.3,0.4-0.3,0.7v3.7h-1.9v-6.2h1.8V63c0.4-0.4,0.9-0.6,1.5-0.6
				C124.1,62.4,124.6,62.6,124.9,63"/>
			<path style="clip-path:url(#SVGID_00000112600388852446520560000007775418714220829358_);fill:#FFFFFF;" d="M130.2,66.2h-3.7
				c0,0.3,0.1,0.5,0.3,0.7c0.2,0.2,0.5,0.3,0.8,0.3c0.5,0,0.9-0.2,1.3-0.5l1.1,1.1c-0.3,0.3-0.7,0.6-1,0.7c-0.4,0.2-0.9,0.3-1.4,0.3
				c-2,0-3-1.1-3-3.2c0-1,0.3-1.8,0.8-2.4c0.5-0.5,1.2-0.8,2-0.8c0.9,0,1.6,0.3,2.1,0.9c0.5,0.5,0.7,1.2,0.7,2.1V66.2z M128.4,65
				c0-0.3-0.1-0.5-0.2-0.7c-0.2-0.2-0.4-0.3-0.7-0.3c-0.4,0-0.7,0.2-0.8,0.5c-0.1,0.2-0.1,0.3-0.1,0.5H128.4z"/>
			<path style="clip-path:url(#SVGID_00000112600388852446520560000007775418714220829358_);fill:#FFFFFF;" d="M133,67.6
				c0,0.3-0.1,0.6-0.4,0.9c-0.2,0.2-0.5,0.4-0.9,0.4c-0.3,0-0.6-0.1-0.9-0.4c-0.2-0.2-0.4-0.5-0.4-0.9c0-0.3,0.1-0.6,0.4-0.9
				c0.2-0.2,0.5-0.4,0.9-0.4c0.3,0,0.6,0.1,0.9,0.4C132.8,66.9,133,67.2,133,67.6"/>
		</g>
	</g>
	<g>
		<g>
			<g>
				<g>
					<g>
						<path class="st0" d="M204.2,30.8c-5.9-1-11.2-3.4-14.4-6.7l-1-1l-1,1c-3.3,3.2-8.5,5.7-14.4,6.7l-1.2,0.2v18.4
							c0,9.2,15.4,15.9,16,16.2l0.5,0.2l0.5-0.2c0.7-0.3,16-7,16-16.2V31L204.2,30.8z M188.8,63.3l-0.2-0.1
							c-5.2-2.4-14.1-8-14.1-13.8V33l0.4-0.1c5.4-1.1,10.2-3.3,13.6-6.2l0.3-0.3l0.3,0.3c3.4,2.9,8.2,5.1,13.6,6.2l0.4,0.1v16.5
							c0,5.8-8.8,11.4-14.1,13.8L188.8,63.3z"/>
					</g>
				</g>
				<path class="st2" d="M183.4,41c-2.7,2.4-2.7,6.5-0.1,9.4c1.8,2.1,3.4,4.6,2.3,5.5c3.1,0.1,3.4-1.9,3-4.1
					C188.1,48.7,182.7,45.1,183.4,41 M189.5,30.9c-4.6,2.5-7,9.8-2.4,15c4.7,5.2,3.7,8.6,1.7,10.3c5.5-1.4,8-5.7,7.4-9.4
					c-0.9-5.2-6.6-6.8-7.7-11.4C188.3,34.2,188.5,32.6,189.5,30.9z"/>
			</g>
		</g>
		<g>
			<g>
				<path class="st0" d="M225.7,37.3v2.2c0,0.7-0.1,1.4-0.4,2.1c-0.2,0.7-0.6,1.3-1,1.8c-0.5-0.6-1.1-1-1.8-1.4
					c-0.7-0.4-1.4-0.6-2.1-0.7c0.7-0.4,1-1,1-1.8v-2.2c0-0.6-0.2-1.1-0.6-1.5c-0.4-0.4-0.9-0.6-1.5-0.6h-6.1H213
					c-0.6,0-1.1-0.1-1.6-0.3c-0.5-0.2-0.9-0.5-1.3-0.9c-0.4-0.4-0.6-0.8-0.9-1.3c-0.2-0.5-0.3-1-0.3-1.6v-0.2h10.3
					c0.9,0,1.7,0.2,2.5,0.5c0.8,0.3,1.5,0.8,2,1.4c0.6,0.6,1,1.2,1.4,2C225.5,35.6,225.7,36.4,225.7,37.3z M225.7,48.4v4.3h-1.1
					c-0.4,0-0.8-0.1-1.2-0.2c-0.4-0.2-0.7-0.4-1-0.7c-0.3-0.3-0.5-0.6-0.7-1c-0.2-0.4-0.2-0.8-0.2-1.3v-1c0-0.6-0.2-1.1-0.6-1.5
					c-0.4-0.4-0.9-0.6-1.5-0.6h-6.1v6.4H213c-0.6,0-1.1-0.1-1.6-0.3c-0.5-0.2-0.9-0.5-1.3-0.9c-0.4-0.4-0.6-0.8-0.9-1.3
					c-0.2-0.5-0.3-1-0.3-1.6V33.5c0.4,0.8,0.9,1.4,1.7,1.9c0.7,0.5,1.5,0.7,2.4,0.7h0.2v6h6.1c0.9,0,1.7,0.2,2.5,0.5
					c0.8,0.3,1.5,0.8,2,1.4c0.6,0.6,1,1.3,1.4,2C225.5,46.7,225.7,47.5,225.7,48.4z"/>
				<path class="st0" d="M240.9,30.9v0.2c0,0.6-0.1,1.1-0.3,1.6c-0.2,0.5-0.5,0.9-0.9,1.3c-0.4,0.4-0.8,0.7-1.3,0.9
					c-0.5,0.2-1,0.3-1.6,0.3H226V35c0-0.6,0.1-1.1,0.3-1.6c0.2-0.5,0.5-0.9,0.9-1.3c0.4-0.4,0.8-0.7,1.3-0.9c0.5-0.2,1-0.3,1.6-0.3
					H240.9z M235.6,48.6c0,0.6-0.1,1.1-0.3,1.6c-0.2,0.5-0.5,0.9-0.9,1.3c-0.4,0.4-0.8,0.6-1.3,0.9c-0.5,0.2-1,0.3-1.6,0.3h-0.2V36
					h4.3V48.6z"/>
				<path class="st0" d="M258.3,37.3v2.2c0,0.7-0.1,1.4-0.4,2.1c-0.2,0.7-0.6,1.3-1,1.8c-0.5-0.6-1.1-1-1.8-1.4
					c-0.7-0.4-1.4-0.6-2.1-0.7c0.7-0.4,1-1,1-1.8v-2.2c0-0.6-0.2-1.1-0.6-1.5c-0.4-0.4-0.9-0.6-1.5-0.6h-6.1h-0.2
					c-0.6,0-1.1-0.1-1.6-0.3c-0.5-0.2-0.9-0.5-1.3-0.9c-0.4-0.4-0.6-0.8-0.9-1.3c-0.2-0.5-0.3-1-0.3-1.6v-0.2h10.3
					c0.9,0,1.7,0.2,2.5,0.5c0.8,0.3,1.5,0.8,2,1.4c0.6,0.6,1,1.2,1.4,2C258.1,35.6,258.3,36.4,258.3,37.3z M258.3,48.4v4.3h-1.1
					c-0.4,0-0.8-0.1-1.2-0.2c-0.4-0.2-0.7-0.4-1-0.7c-0.3-0.3-0.5-0.6-0.7-1c-0.2-0.4-0.2-0.8-0.2-1.3v-1c0-0.6-0.2-1.1-0.6-1.5
					c-0.4-0.4-0.9-0.6-1.5-0.6h-6.1v6.4h-0.2c-0.6,0-1.1-0.1-1.6-0.3c-0.5-0.2-0.9-0.5-1.3-0.9c-0.4-0.4-0.6-0.8-0.9-1.3
					c-0.2-0.5-0.3-1-0.3-1.6V33.5c0.4,0.8,0.9,1.4,1.7,1.9c0.7,0.5,1.5,0.7,2.4,0.7h0.2v6h6.1c0.9,0,1.7,0.2,2.5,0.5
					c0.8,0.3,1.5,0.8,2,1.4c0.6,0.6,1,1.3,1.4,2C258.1,46.7,258.3,47.5,258.3,48.4z"/>
			</g>
			<g>
				<g>
					<g>
						<path class="st0" d="M211.1,60.5l-0.8-1.6H210v1.6h-1.1v-4.3h1.7c1,0,1.5,0.7,1.5,1.4c0,0.6-0.4,1-0.7,1.1l0.9,1.8H211.1z
							 M210.6,57.1H210V58h0.6c0.3,0,0.5-0.2,0.5-0.4C211,57.3,210.9,57.1,210.6,57.1z"/>
						<path class="st0" d="M212.7,60.5v-4.3h2.9v0.9h-1.9v0.7h1.6v0.9h-1.6v0.8h1.9v0.9H212.7z"/>
						<path class="st0" d="M218.1,60.5h-0.8l-1.4-4.3h1.1l0.7,2.4l0.7-2.4h1.1L218.1,60.5z"/>
						<path class="st0" d="M219.9,60.5v-4.3h1.1v4.3H219.9z"/>
						<path class="st0" d="M223,60.5c-0.7,0-1.2-0.1-1.6-0.6l0.7-0.7c0.2,0.2,0.6,0.3,1,0.3c0.4,0,0.6-0.1,0.6-0.4
							c0-0.1,0-0.2-0.1-0.3c-0.1-0.1-0.1-0.1-0.3-0.1l-0.5-0.1c-0.4-0.1-0.7-0.2-0.9-0.4c-0.2-0.2-0.3-0.5-0.3-0.9
							c0-0.8,0.6-1.4,1.6-1.4c0.6,0,1.1,0.1,1.5,0.5l-0.7,0.7c-0.3-0.3-0.6-0.3-0.8-0.3c-0.4,0-0.5,0.2-0.5,0.4c0,0.1,0,0.1,0.1,0.2
							c0.1,0.1,0.1,0.1,0.3,0.1l0.5,0.1c0.4,0.1,0.7,0.2,0.8,0.4c0.2,0.2,0.3,0.5,0.3,0.9C224.6,60,223.9,60.5,223,60.5z"/>
						<path class="st0" d="M225.1,60.5v-4.3h1.1v4.3H225.1z"/>
						<path class="st0" d="M229.6,60c-0.3,0.3-0.7,0.5-1.2,0.5c-0.5,0-0.9-0.2-1.2-0.5c-0.5-0.5-0.4-1.1-0.4-1.7s0-1.3,0.4-1.7
							c0.3-0.3,0.7-0.5,1.2-0.5c0.5,0,0.9,0.2,1.2,0.5c0.5,0.5,0.4,1.1,0.4,1.7S230.1,59.6,229.6,60z M228.8,57.2
							c-0.1-0.1-0.2-0.2-0.4-0.2s-0.3,0.1-0.4,0.2c-0.1,0.1-0.2,0.3-0.2,1.1s0.1,0.9,0.2,1.1c0.1,0.1,0.2,0.2,0.4,0.2
							s0.3-0.1,0.4-0.2c0.1-0.1,0.2-0.3,0.2-1.1S228.9,57.4,228.8,57.2z M228.7,55.7h-0.6l0.3-1.1h1L228.7,55.7z"/>
						<path class="st0" d="M233.1,60.5l-1.4-2.2v2.2h-1.1v-4.3h0.9l1.4,2.2v-2.2h1.1v4.3H233.1z"/>
						<path class="st0" d="M237.8,57.1v3.4h-1.1v-3.4h-1.1v-0.9h3.2v0.9H237.8z"/>
						<path class="st0" d="M239.3,60.5v-4.3h2.9v0.9h-1.9v0.7h1.6v0.9h-1.6v0.8h1.9v0.9H239.3z M241,55.7h-0.6l0.3-1.1h1L241,55.7z"
							/>
						<path class="st0" d="M244.3,60.5c-0.5,0-0.9-0.2-1.2-0.5c-0.5-0.5-0.4-1.1-0.4-1.7s0-1.3,0.4-1.7c0.3-0.3,0.7-0.5,1.2-0.5
							c0.6,0,0.9,0.2,1.2,0.5l-0.7,0.7c-0.1-0.1-0.2-0.2-0.5-0.2c-0.2,0-0.3,0.1-0.4,0.2c-0.1,0.1-0.2,0.3-0.2,1.1s0.1,0.9,0.2,1.1
							c0.1,0.1,0.2,0.2,0.4,0.2c0.2,0,0.4-0.1,0.5-0.2l0.7,0.7C245.2,60.3,244.9,60.5,244.3,60.5z"/>
						<path class="st0" d="M248.4,60.5l-1.4-2.2v2.2h-1.1v-4.3h0.9l1.4,2.2v-2.2h1.1v4.3H248.4z"/>
						<path class="st0" d="M250,60.5v-4.3h1.1v4.3H250z"/>
						<path class="st0" d="M253.3,60.5c-0.5,0-0.9-0.2-1.2-0.5c-0.5-0.5-0.4-1.1-0.4-1.7s0-1.3,0.4-1.7c0.3-0.3,0.7-0.5,1.2-0.5
							c0.6,0,0.9,0.2,1.2,0.5l-0.7,0.7c-0.1-0.1-0.2-0.2-0.5-0.2c-0.2,0-0.3,0.1-0.4,0.2c-0.1,0.1-0.2,0.3-0.2,1.1s0.1,0.9,0.2,1.1
							c0.1,0.1,0.2,0.2,0.4,0.2c0.2,0,0.4-0.1,0.5-0.2l0.7,0.7C254.2,60.3,253.8,60.5,253.3,60.5z"/>
						<path class="st0" d="M257.5,60.5l-0.2-0.6h-1.3l-0.2,0.6h-1.1l1.6-4.3h0.8l1.6,4.3H257.5z M256.6,57.8l-0.4,1.2h0.8
							L256.6,57.8z"/>
					</g>
				</g>
				<g>
					<path class="st0" d="M211.2,65.8l-0.8-1.7H210v1.7h-1.1v-4.6h1.8c1,0,1.6,0.7,1.6,1.5c0,0.6-0.4,1-0.7,1.2l1,1.9H211.2z
						 M210.7,62.3H210v0.9h0.6c0.3,0,0.5-0.2,0.5-0.5C211.2,62.5,211,62.3,210.7,62.3z"/>
					<path class="st0" d="M213,65.8v-4.6h3.1v1h-2V63h1.7v1h-1.7v0.8h2v1H213z"/>
					<path class="st0" d="M219.5,65.4c-0.3,0.3-0.8,0.5-1.3,0.5c-0.5,0-0.9-0.2-1.3-0.5c-0.5-0.5-0.5-1.1-0.5-1.8s0-1.3,0.5-1.8
						c0.3-0.3,0.7-0.5,1.3-0.5c0.7,0,1,0.2,1.4,0.6l-0.8,0.8c-0.2-0.2-0.4-0.3-0.7-0.3c-0.2,0-0.4,0.1-0.4,0.2
						c-0.1,0.1-0.2,0.3-0.2,1.1s0.1,1,0.2,1.1c0.1,0.1,0.2,0.2,0.4,0.2c0.2,0,0.4-0.1,0.5-0.2c0.1-0.1,0.2-0.3,0.2-0.5v-0.1h-0.6
						v-0.9h1.8v0.6C220,64.6,219.9,65,219.5,65.4z"/>
					<path class="st0" d="M220.5,65.8v-4.6h1.1v3.6h1.9v1H220.5z"/>
					<path class="st0" d="M226.9,65.8l-0.2-0.7h-1.4l-0.2,0.7h-1.2l1.7-4.6h0.9l1.7,4.6H226.9z M226,63l-0.4,1.2h0.8L226,63z"/>
					<path class="st0" d="M231.6,65.8v-2.2l-0.7,1.1h-0.7l-0.7-1.1v2.2h-1.1v-4.6h1.1l1,2l1-2h1.1v4.6H231.6z"/>
					<path class="st0" d="M233.4,65.8v-4.6h3.1v1h-2V63h1.7v1h-1.7v0.8h2v1H233.4z"/>
					<path class="st0" d="M239.8,65.8l-1.5-2.3v2.3h-1.1v-4.6h1l1.5,2.3v-2.3h1.1v4.6H239.8z"/>
					<path class="st0" d="M243.5,62.3v3.6h-1.1v-3.6h-1.1v-1h3.4v1H243.5z"/>
					<path class="st0" d="M247.3,65.8l-0.2-0.7h-1.4l-0.2,0.7h-1.2l1.7-4.6h0.9l1.7,4.6H247.3z M246.4,63l-0.4,1.2h0.8L246.4,63z"/>
					<path class="st0" d="M251.2,65.8l-0.8-1.7H250v1.7h-1.1v-4.6h1.8c1,0,1.6,0.7,1.6,1.5c0,0.6-0.4,1-0.7,1.2l1,1.9H251.2z
						 M250.6,62.3H250v0.9h0.6c0.3,0,0.5-0.2,0.5-0.5C251.1,62.5,250.9,62.3,250.6,62.3z"/>
					<path class="st0" d="M252.9,65.8v-4.6h1.1v4.6H252.9z"/>
					<path class="st0" d="M257.4,65.8l-0.2-0.7h-1.4l-0.2,0.7h-1.2l1.7-4.6h0.9l1.7,4.6H257.4z M256.5,63l-0.4,1.2h0.8L256.5,63z"/>
				</g>
			</g>
		</g>
	</g>
</g>
</svg>
