<svg version="1.1" id="Capa_1" xmlns="http://www.w3.org/2000/svg" xmlns:xlink="http://www.w3.org/1999/xlink" x="0px" y="0px"
	 viewBox="0 0 215 116" style="enable-background:new 0 0 215 116;" xml:space="preserve">
<style type="text/css">
	.st0{fill:#FFFFFF;}
</style>
<g>
	<path class="st0" d="M21.7,34.9c0,0,0.6,4.2,4.6,7.8c-4.2,11.2-5.6,20.4-4.8,27c1.3,14.4,18.1,18.4,21.8,18.4l0.3,0.1
		C33.6,93,7.3,92.7,21.4,36.2L21.7,34.9z"/>
	<path class="st0" d="M42.1,11.5c0,0-1.8,11.1,8,21.6c-5.4,5.2-9.6,10-12.9,14.4c-0.3-0.1-0.7-0.2-1.1-0.2c-4.6-0.8-7.7-2.6-9.9-4.5
		C29.6,34,34.6,24,41.6,13L42.1,11.5z"/>
	<path class="st0" d="M59.3,24.8c0,0-5.3,10.1,5.4,20.8c15.2,15.3,0.5,40.9-16.3,43c-1.2,0.2-2.8,0-4.6-0.4l0.3-0.1
		c13.5-6.3,23.9-37.9,7.6-53.6c-0.5-0.5-0.9-0.9-1.4-1.4c2.4-2.4,5.1-4.8,8-7.3L59.3,24.8z"/>
	<path class="st0" d="M37.3,47.5c-19.6,26.4-4.2,38.2,6.1,40.7c0.3,0,0.6,0,0.7-0.1c1-0.5,1.8-1,2.4-1.6
		C57.2,76.8,55.2,51.7,37.3,47.5 M43.7,88.2c-0.8-0.6-6.7-6.2-1.9-20.6C41.8,67.6,44.4,88.8,43.7,88.2"/>
	<polygon class="st0" points="82.8,77.9 102.9,77.9 102.9,72.3 90.2,72.3 90.2,64.8 101.9,64.8 101.9,59.2 90.2,59.2 90.2,54.1 
		102.9,54.1 102.9,48.5 82.8,48.5 	"/>
	<path class="st0" d="M115.1,47c-2.9,0-5.1,0.7-6.5,2c-1.4,1.4-2.2,3.4-2.2,6.1v0.6h-2.8v4.8h2.8v17.4h7V60.5h5.3v-4.8h-5.5v-0.2
		c0-1.4,0.3-2.4,0.8-2.9c0.5-0.5,1.5-0.8,2.9-0.8c0.5,0,1,0.1,1.6,0.2c0.6,0.1,1,0.2,1.2,0.3h0.5v-5c-0.6-0.1-1.4-0.2-2.3-0.3
		C117,47,116.1,47,115.1,47"/>
	<rect x="121.3" y="47.2" class="st0" width="7.4" height="5.4"/>
	<rect x="121.5" y="55.7" class="st0" width="7" height="22.2"/>
	<path class="st0" d="M145.5,56.7c-0.7-0.5-1.6-0.9-2.5-1.2c-0.9-0.3-1.9-0.4-3.1-0.4c-1.3,0-2.5,0.3-3.6,0.8
		c-1.2,0.5-2.2,1.2-3,2.2c-0.9,1-1.5,2.2-2,3.5c-0.5,1.4-0.7,2.9-0.7,4.7c0,3.8,0.8,6.7,2.4,8.5c1.6,1.9,3.8,2.8,6.7,2.8
		c1.1,0,2.1-0.2,3.2-0.6c1-0.4,1.9-1,2.7-1.6v0.4c0,0.9-0.1,1.7-0.2,2.4c-0.2,0.6-0.4,1.2-0.8,1.6c-0.4,0.4-1,0.8-1.8,1
		c-0.8,0.2-1.8,0.4-3,0.4c-0.6,0-1.1,0-1.7-0.1c-0.5-0.1-1.1-0.2-1.7-0.4c-0.5-0.1-1-0.3-1.4-0.4c-0.5-0.2-0.9-0.3-1.2-0.4h-0.8v5.5
		c1,0.2,2.1,0.5,3.5,0.7c1.3,0.2,2.7,0.3,4.2,0.3c1.8,0,3.4-0.2,4.8-0.5c1.4-0.4,2.7-1,3.7-1.8c1-0.8,1.9-1.9,2.4-3.4
		c0.6-1.4,0.9-3.2,0.9-5.2V55.7h-6.8L145.5,56.7z M145.5,70.9c-0.5,0.4-1.1,0.7-1.7,0.9c-0.6,0.2-1.2,0.3-1.8,0.3
		c-0.8,0-1.5-0.1-2.1-0.4c-0.5-0.3-1-0.6-1.3-1.1c-0.3-0.5-0.6-1.1-0.7-1.8c-0.1-0.7-0.2-1.5-0.2-2.4c0-1.9,0.4-3.4,1.3-4.5
		c0.8-1.1,2.1-1.6,3.8-1.6c0.5,0,1,0.1,1.5,0.2c0.5,0.1,0.9,0.2,1.3,0.4V70.9z"/>
	<path class="st0" d="M172.8,57c-1.8-1.3-4.6-1.9-8.4-1.9c-1.6,0-3.1,0.1-4.7,0.4c-1.5,0.3-2.7,0.5-3.3,0.7v5.4h0.6
		c1-0.5,2.1-0.8,3.2-1.1c1.1-0.3,2.1-0.4,2.9-0.4c1.8,0,3.2,0.2,4.1,0.7c0.9,0.5,1.4,1.3,1.4,2.5v0.1c-2,0.1-3.9,0.3-5.7,0.6
		c-1.8,0.2-3.3,0.7-4.5,1.3c-1.2,0.6-2.2,1.4-2.9,2.4c-0.7,1-1,2.3-1,4c0,2,0.7,3.7,2,5c1.3,1.3,3,2,4.9,2c1.1,0,1.9-0.1,2.5-0.2
		c0.6-0.2,1.2-0.4,1.8-0.7c0.6-0.3,1.1-0.6,1.5-0.9c0.4-0.3,0.8-0.7,1.3-1.1v2.3h6.9V62.8C175.4,60.2,174.6,58.3,172.8,57
		 M168.5,72.1c-0.5,0.5-1.1,0.9-1.7,1.2c-0.6,0.3-1.3,0.4-1.9,0.4c-1.1,0-1.9-0.2-2.5-0.6c-0.6-0.4-0.8-1.1-0.8-2.1
		c0-0.7,0.2-1.3,0.5-1.7c0.3-0.4,0.8-0.7,1.4-1c0.7-0.3,1.4-0.4,2.2-0.5c0.7-0.1,1.7-0.2,2.9-0.3V72.1z"/>
	<path class="st0" d="M195.4,67c-0.8-1-2-1.7-3.7-2.3c-0.7-0.2-1.5-0.4-2.2-0.6c-0.8-0.1-1.5-0.3-2.1-0.4c-1.2-0.3-1.9-0.6-2.3-0.8
		c-0.3-0.3-0.5-0.7-0.5-1.2c0-0.6,0.3-1,1-1.4c0.7-0.3,1.6-0.5,2.6-0.5c0.8,0,1.5,0.1,2.2,0.3c0.7,0.2,1.4,0.4,2,0.7
		c0.5,0.2,1,0.5,1.5,0.8c0.5,0.3,0.9,0.6,1.1,0.7h0.6v-5.6c-0.9-0.4-2-0.8-3.3-1.1c-1.3-0.3-2.8-0.5-4.3-0.5c-1.6,0-3.1,0.2-4.4,0.6
		c-1.3,0.4-2.4,0.9-3.3,1.6c-0.9,0.7-1.6,1.5-2,2.3c-0.5,0.9-0.7,1.8-0.7,2.8c0,1.7,0.4,3.1,1.3,4.2c0.9,1.1,2.2,1.9,4,2.4
		c0.6,0.2,1.3,0.4,2.2,0.5c0.8,0.2,1.5,0.3,2,0.4c1,0.2,1.7,0.5,2,0.8c0.3,0.3,0.5,0.7,0.5,1.2c0,0.7-0.4,1.1-1.1,1.4
		c-0.8,0.3-1.6,0.5-2.6,0.5c-1,0-1.8-0.1-2.7-0.3c-0.8-0.2-1.6-0.5-2.2-0.8c-0.8-0.3-1.3-0.6-1.8-0.9c-0.4-0.3-0.8-0.6-1.1-0.8h-0.6
		v5.8c1,0.5,2.2,0.9,3.6,1.2c1.5,0.4,3,0.5,4.7,0.5c1.8,0,3.4-0.2,4.7-0.6c1.3-0.4,2.4-0.9,3.4-1.6c0.9-0.6,1.6-1.4,2.1-2.4
		c0.5-0.9,0.7-1.9,0.7-3C196.6,69.3,196.2,68,195.4,67"/>
	<path class="st0" d="M116.9,101.4h-3.2c-0.1,0-0.1-0.1-0.2-0.1l-0.5-1.7h-3.5l-0.6,1.7c0,0.1-0.1,0.1-0.2,0.1h-3.2
		c-0.1,0-0.1,0-0.1-0.1c0,0,0-0.1,0-0.2l4.5-12.3c0-0.1,0.1-0.1,0.2-0.1h2.3c0.1,0,0.1,0,0.2,0.1l4.5,12.3c0,0.1,0,0.1,0,0.2
		C117.1,101.4,117,101.4,116.9,101.4 M113.9,101.1h2.8l-4.3-11.9h-2.1l-4.3,11.9h2.8l0.6-1.7c0-0.1,0.1-0.1,0.2-0.1h3.8
		c0.1,0,0.1,0.1,0.2,0.1L113.9,101.1z M112.4,97.1h-2.1c-0.1,0-0.1,0-0.1-0.1c0,0,0-0.1,0-0.2l1.1-3.3c0-0.1,0.1-0.1,0.2-0.1
		c0.1,0,0.1,0.1,0.2,0.1l1,3.3c0,0.1,0,0.1,0,0.2C112.5,97,112.5,97.1,112.4,97.1 M110.5,96.7h1.6l-0.8-2.5L110.5,96.7z"/>
	<path class="st0" d="M125.2,101.4h-2.8c-0.1,0-0.2-0.1-0.2-0.2v-5.6c0-0.4-0.1-0.7-0.3-0.8c-0.2-0.1-0.3-0.2-0.6-0.2
		c-0.2,0-0.4,0.1-0.6,0.2c-0.2,0.2-0.3,0.5-0.3,0.8v5.6c0,0.1-0.1,0.2-0.2,0.2h-2.8c-0.1,0-0.2-0.1-0.2-0.2V89
		c0-0.1,0.1-0.2,0.2-0.2h2.8c0.1,0,0.2,0.1,0.2,0.2v3.4c0.5-0.4,1.2-0.6,1.9-0.6c1,0,1.8,0.4,2.4,1c0.5,0.6,0.8,1.5,0.8,2.5v6
		C125.4,101.3,125.3,101.4,125.2,101.4 M122.5,101.1h2.5v-5.8c0-0.9-0.2-1.7-0.7-2.3c-0.5-0.6-1.2-0.9-2.1-0.9
		c-0.7,0-1.4,0.3-1.9,0.8c-0.1,0.1-0.1,0.1-0.2,0c-0.1,0-0.1-0.1-0.1-0.2v-3.6h-2.5v11.9h2.5v-5.4c0-0.5,0.2-0.9,0.5-1.1
		c0.2-0.2,0.5-0.3,0.8-0.3c0.3,0,0.6,0.1,0.8,0.3c0.3,0.3,0.5,0.6,0.5,1.1V101.1z"/>
	<path class="st0" d="M129.2,101.4h-2.8c-0.1,0-0.2-0.1-0.2-0.2V92c0-0.1,0.1-0.2,0.2-0.2h2.8c0.1,0,0.2,0.1,0.2,0.2v9.3
		C129.4,101.3,129.3,101.4,129.2,101.4 M126.5,101.1h2.5v-8.9h-2.5V101.1z M128.2,90.9h-1.7c-0.1,0-0.1,0-0.1-0.1c0,0,0-0.1,0-0.2
		l0.8-3.1c0-0.1,0.1-0.1,0.2-0.1h2.9c0.1,0,0.1,0,0.2,0.1c0,0.1,0,0.1,0,0.2l-2,3.1C128.3,90.9,128.2,90.9,128.2,90.9 M126.7,90.5
		h1.4l1.8-2.7h-2.4L126.7,90.5z"/>
	<path class="st0" d="M141.1,98.2c0,1-0.4,1.8-1.2,2.4c-0.7,0.5-1.6,0.7-2.8,0.7c-0.9,0-1.6-0.1-2.1-0.2c-0.7-0.2-1.4-0.6-2-1.2
		l1.8-1.8c0.5,0.5,1.3,0.8,2.3,0.8c0.8,0,1.2-0.2,1.2-0.6c0-0.3-0.2-0.5-0.7-0.6l-1.4-0.1c-1.8-0.2-2.7-1.1-2.7-2.7
		c0-1,0.4-1.7,1.2-2.3c0.7-0.5,1.5-0.8,2.5-0.8c1.7,0,2.9,0.4,3.7,1.1l-1.7,1.7c-0.4-0.4-1-0.6-2-0.6c-0.6,0-0.9,0.2-0.9,0.5
		c0,0.3,0.2,0.5,0.6,0.5l1.4,0.1c0.9,0.1,1.6,0.4,2.1,0.9C140.9,96.8,141.1,97.4,141.1,98.2"/>
	<path class="st0" d="M144.9,89.8c0,0.5-0.2,0.9-0.5,1.2c-0.3,0.3-0.7,0.5-1.2,0.5c-0.5,0-0.9-0.2-1.2-0.5c-0.3-0.3-0.5-0.7-0.5-1.2
		c0-0.5,0.2-0.9,0.5-1.2c0.3-0.3,0.7-0.5,1.2-0.5c0.5,0,0.9,0.2,1.2,0.5C144.7,88.9,144.9,89.4,144.9,89.8 M144.6,101.2h-2.8v-8.9
		h2.8V101.2z"/>
	<path class="st0" d="M153.7,97.5h-5.6c0,0.4,0.1,0.7,0.4,1c0.3,0.3,0.7,0.4,1.2,0.4c0.8,0,1.4-0.3,1.9-0.8l1.7,1.7
		c-0.5,0.5-1,0.9-1.5,1.1c-0.6,0.3-1.3,0.4-2.1,0.4c-2.9,0-4.4-1.6-4.4-4.7c0-1.5,0.4-2.7,1.2-3.5c0.7-0.8,1.7-1.2,3-1.2
		c1.3,0,2.3,0.4,3.1,1.3c0.7,0.8,1.1,1.8,1.1,3.1V97.5z M150.9,95.6c0-0.4-0.1-0.8-0.4-1.1c-0.2-0.3-0.6-0.4-1-0.4
		c-0.6,0-1,0.2-1.2,0.7c-0.1,0.2-0.2,0.5-0.2,0.7H150.9z"/>
	<path class="st0" d="M167.5,101.2h-2.8v-5.6c0-0.5-0.1-0.8-0.4-1c-0.2-0.2-0.4-0.2-0.7-0.2c-0.3,0-0.5,0.1-0.7,0.2
		c-0.3,0.2-0.4,0.6-0.4,1v5.6h-2.8v-5.6c0-0.5-0.1-0.8-0.4-1c-0.2-0.2-0.4-0.2-0.7-0.2c-0.3,0-0.5,0.1-0.7,0.2
		c-0.3,0.2-0.4,0.6-0.4,1v5.6h-2.8V92h2.7v0.8c0.6-0.6,1.3-0.9,2.2-0.9c0.9,0,1.7,0.3,2.3,1c0.7-0.7,1.6-1,2.6-1
		c1,0,1.7,0.3,2.2,0.8c0.7,0.7,1,1.6,1,2.7V101.2z"/>
	<path class="st0" d="M176.7,96.6c0,1,0,1.7-0.1,2.1c-0.1,0.8-0.4,1.4-0.8,1.8c-0.6,0.6-1.3,0.8-2.2,0.8c-0.9,0-1.6-0.3-2.1-0.8v3.7
		h-2.8V92h2.7v0.8c0.6-0.6,1.3-0.9,2.1-0.9c0.9,0,1.7,0.3,2.3,0.8c0.4,0.4,0.7,1,0.8,1.8C176.7,94.9,176.7,95.6,176.7,96.6
		 M173.9,96.6c0-0.8-0.1-1.3-0.2-1.6c-0.2-0.4-0.5-0.6-1-0.6c-0.5,0-0.8,0.2-1,0.6c-0.1,0.3-0.2,0.8-0.2,1.6c0,0.8,0.1,1.3,0.2,1.6
		c0.2,0.4,0.5,0.6,1,0.6c0.5,0,0.8-0.2,1-0.6C173.8,97.9,173.9,97.4,173.9,96.6"/>
	<path class="st0" d="M184.8,92.7l-2.1,2.2c-0.3-0.3-0.7-0.5-1-0.5c-0.3,0-0.5,0.1-0.7,0.2c-0.3,0.2-0.4,0.6-0.4,1v5.6h-2.8V92h2.7
		v0.8c0.6-0.6,1.3-0.9,2.2-0.9C183.5,91.9,184.2,92.1,184.8,92.7"/>
	<path class="st0" d="M192.6,97.5h-5.6c0,0.4,0.1,0.7,0.4,1c0.3,0.3,0.7,0.4,1.2,0.4c0.8,0,1.4-0.3,1.9-0.8l1.7,1.7
		c-0.5,0.5-1,0.9-1.5,1.1c-0.6,0.3-1.3,0.4-2.1,0.4c-2.9,0-4.4-1.6-4.4-4.7c0-1.5,0.4-2.7,1.2-3.5c0.7-0.8,1.7-1.2,3-1.2
		c1.3,0,2.3,0.4,3.1,1.3c0.7,0.8,1.1,1.8,1.1,3.1V97.5z M189.9,95.6c0-0.4-0.1-0.8-0.4-1.1c-0.2-0.3-0.6-0.4-1-0.4
		c-0.6,0-1,0.2-1.2,0.7c-0.1,0.2-0.2,0.5-0.2,0.7H189.9z"/>
	<path class="st0" d="M196.7,99.5c0,0.5-0.2,0.9-0.5,1.3c-0.4,0.4-0.8,0.5-1.3,0.5c-0.5,0-0.9-0.2-1.3-0.5c-0.4-0.4-0.5-0.8-0.5-1.3
		c0-0.5,0.2-0.9,0.5-1.3c0.4-0.4,0.8-0.5,1.3-0.5c0.5,0,0.9,0.2,1.3,0.5C196.5,98.5,196.7,99,196.7,99.5"/>
</g>
</svg>
