<svg version="1.1" baseProfile="tiny" xmlns="http://www.w3.org/2000/svg" xmlns:xlink="http://www.w3.org/1999/xlink"
	 x="0px" y="0px" viewBox="0 0 215 116" overflow="visible" xml:space="preserve">
<g>
	<path fill="none" d="M117.3,89.1c-0.1,0-0.1-0.1-0.1-0.2v-3.5h-2.4v11.7h2.4v-5.4c0-0.5,0.2-0.9,0.5-1.1c0.2-0.2,0.5-0.3,0.8-0.3
		c0.3,0,0.5,0.1,0.8,0.3c0.3,0.3,0.5,0.6,0.5,1.1v5.4h2.4v-5.7c0-0.9-0.2-1.7-0.7-2.2c-0.5-0.6-1.2-0.9-2.1-0.9
		c-0.7,0-1.3,0.3-1.9,0.8C117.4,89.1,117.4,89.1,117.3,89.1z"/>
	<path fill="none" d="M35.7,44.4C35.7,44.4,35.7,44.4,35.7,44.4c-10.3,13.8-10.8,23.6-7.5,30C24.9,68,25.5,58.2,35.7,44.4z"/>
	<path fill="none" d="M42.5,84.4c-0.1,0-0.1,0.1-0.2,0.1c0.2-0.1,0.3-0.2,0.5-0.2c-0.1,0.1-0.3,0.2-0.5,0.2c-0.1,0-0.3,0.1-0.6,0.1
		c0,0,0,0,0,0c-1.8,0-6.5-1-11.1-3.5c4.6,2.5,9.4,3.5,11.1,3.5l0.3,0.1l0.3-0.1C42.4,84.4,42.5,84.4,42.5,84.4z"/>
	<path fill="none" d="M107.6,85.4l-4.3,11.7h2.7l0.6-1.7c0-0.1,0.1-0.1,0.2-0.1h3.7c0.1,0,0.1,0.1,0.2,0.1l0.5,1.7h2.7l-4.3-11.7
		H107.6z M109.9,93.1c0,0-0.1,0.1-0.1,0.1h-2.1c-0.1,0-0.1,0-0.1-0.1c0,0,0-0.1,0-0.2l1.1-3.2c0-0.1,0.1-0.1,0.2-0.1
		c0.1,0,0.1,0.1,0.2,0.1l1,3.2C109.9,93,109.9,93.1,109.9,93.1z"/>
	<polygon fill="none" points="123.8,86.8 125.1,86.8 126.9,84.1 124.5,84.1 	"/>
	<polygon fill="none" points="107.9,92.9 109.5,92.9 108.7,90.4 	"/>
	<rect x="123.6" y="88.4" fill="none" width="2.4" height="8.8"/>
	<path fill="none" d="M48.4,30.3c-3.4,3.2-6.3,6.3-8.8,9.2C42.1,36.6,45.1,33.5,48.4,30.3z"/>
	<path fill="none" d="M47,52c0.4,0.6,0.9,1.3,1.2,2C47.8,53.3,47.4,52.6,47,52z"/>
	<path fill="none" d="M34.7,44.2c-0.3-0.1-0.5-0.1-0.8-0.2C34.1,44.1,34.4,44.1,34.7,44.2c0.4,0.1,0.7,0.1,1,0.2v0
		C35.4,44.3,35,44.3,34.7,44.2z"/>
	<path fill="none" d="M45.7,82c6.2-6.6,7.3-18.7,2.8-27.4C53,63.3,51.9,75.3,45.7,82z"/>
	<path fill="none" d="M139.5,57c-1.6,0-2.9,0.5-3.7,1.6c-0.8,1.1-1.2,2.5-1.2,4.4c0,0.9,0.1,1.7,0.2,2.4c0.1,0.7,0.4,1.2,0.7,1.7
		c0.3,0.5,0.8,0.9,1.3,1.1c0.5,0.3,1.2,0.4,2,0.4c0.6,0,1.2-0.1,1.8-0.3c0.6-0.2,1.2-0.5,1.7-0.9v-9.9c-0.3-0.2-0.8-0.3-1.3-0.4
		C140.5,57.1,140,57,139.5,57z"/>
	<path fill="none" d="M43.1,84.1c0.2-0.1,0.4-0.3,0.6-0.4C43.5,83.8,43.3,84,43.1,84.1C43.1,84.1,43.1,84.1,43.1,84.1z"/>
	<path fill="none" d="M45.7,82.3c-0.8,0.7-1.7,1.3-2.6,1.7c0,0,0,0,0,0C43.9,83.6,44.8,83,45.7,82.3z"/>
	<path fill="none" d="M146.2,90.4c-0.6,0-1,0.2-1.2,0.7c-0.1,0.2-0.2,0.5-0.2,0.7h2.7c0-0.4-0.1-0.8-0.4-1
		C147,90.5,146.6,90.4,146.2,90.4z"/>
	<path fill="none" d="M184.6,90.4c-0.6,0-1,0.2-1.2,0.7c-0.1,0.2-0.2,0.5-0.2,0.7h2.7c0-0.4-0.1-0.8-0.4-1
		C185.3,90.5,185,90.4,184.6,90.4z"/>
	<path fill="none" d="M169,94.9c0.5,0,0.8-0.2,1-0.6c0.1-0.3,0.2-0.8,0.2-1.6c0-0.8-0.1-1.3-0.2-1.6c-0.2-0.4-0.5-0.6-1-0.6
		c-0.5,0-0.8,0.2-1,0.6c-0.1,0.3-0.2,0.8-0.2,1.6c0,0.8,0.1,1.3,0.2,1.6C168.3,94.7,168.6,94.9,169,94.9z"/>
	<path fill="none" d="M160,64.9c-0.6,0.2-1.1,0.5-1.4,0.9c-0.3,0.4-0.5,1-0.5,1.7c0,1,0.3,1.7,0.8,2.1c0.6,0.4,1.4,0.6,2.5,0.6
		c0.6,0,1.2-0.1,1.8-0.4c0.6-0.3,1.2-0.7,1.7-1.1v-4.5c-1.2,0.1-2.1,0.2-2.8,0.3C161.4,64.5,160.7,64.6,160,64.9z"/>
	<path fill="#BCBE02" d="M30.6,81c-4.9-2.7-9.7-7.3-10.4-14.6c-0.7-6.2,0.5-14.7,4.2-25.1c0.2-0.5,0.4-1,0.5-1.5
		c-4-3.6-4.5-7.7-4.5-7.7l-0.3,1.2c-13.9,55.6,12,56,21.9,51.3l-0.3-0.1C40,84.5,35.2,83.5,30.6,81z"/>
	<path fill="#36AEC7" d="M20.2,66.3c0.7,7.3,5.4,11.9,10.4,14.6c4.6,2.5,9.4,3.5,11.1,3.5c-4.7-1.1-10.6-4.3-13.5-10.1
		c-3.3-6.5-2.8-16.3,7.5-30c-0.3-0.1-0.7-0.2-1-0.2c-0.3-0.1-0.5-0.1-0.8-0.2c-4.1-0.9-6.9-2.5-8.9-4.3c-0.2,0.5-0.4,1-0.5,1.5
		C20.7,51.6,19.5,60.2,20.2,66.3z"/>
	<path fill="#0571CC" d="M34.7,44.2c0.4,0.1,0.7,0.1,1,0.2c1.2-1.6,2.5-3.2,3.9-4.9c2.5-2.9,5.4-6,8.8-9.2c0,0,0,0,0,0
		C38.8,19.9,40.5,9,40.5,9L40,10.4c-6.9,10.8-11.8,20.7-15,29.3l0,0c2,1.8,4.9,3.4,8.9,4.3C34.1,44.1,34.4,44.1,34.7,44.2z"/>
	<path fill="#FFFFFF" d="M42.4,84.4c0.2-0.1,0.3-0.2,0.5-0.2c0.1,0,0.2-0.1,0.2-0.1c0.2-0.1,0.4-0.3,0.6-0.4c0.4-0.3,0.7-0.5,1-0.8
		c0.3-0.3,0.7-0.6,1-1c6.2-6.6,7.3-18.7,2.8-27.4c-0.1-0.2-0.2-0.4-0.3-0.5c-0.4-0.7-0.8-1.4-1.2-2c-2.6-3.6-6.3-6.4-11.2-7.6
		c-10.3,13.8-10.8,23.6-7.5,30c2.9,5.7,8.8,8.9,13.5,10.1c0,0,0,0,0,0C42,84.5,42.3,84.5,42.4,84.4z M40.2,64.2
		c0,0,2.6,20.9,1.8,20.3C41.3,83.9,35.4,78.3,40.2,64.2z"/>
	<path fill="#36AEC7" d="M39.7,39.5c-1.4,1.7-2.7,3.3-3.9,4.9v0c0,0,0,0,0,0c4.9,1.2,8.7,4,11.2,7.6c0.4,0.6,0.9,1.3,1.2,2
		c0.1,0.2,0.2,0.4,0.3,0.5c4.5,8.8,3.4,20.8-2.8,27.4c-0.3,0.3-0.6,0.6-1,1c-0.3,0.3-0.6,0.5-1,0.8c-0.2,0.1-0.4,0.3-0.6,0.4
		c0.9-0.5,1.8-1.1,2.6-1.7c6.8-5.5,12.1-17.2,12.4-28.8c0-1.3,0-2.7-0.1-4c-0.6-6.7-3.1-13-8.1-17.9c-0.5-0.5-0.9-0.9-1.4-1.4l0,0
		c0,0,0,0,0,0C45.1,33.5,42.1,36.6,39.7,39.5z"/>
	<path fill="#36AEC7" d="M42.8,84.2c-0.2,0.1-0.3,0.2-0.5,0.2c0.1,0,0.1-0.1,0.2-0.1c0.2-0.1,0.4-0.2,0.5-0.3c0,0,0,0,0,0
		c0,0,0,0,0,0C43,84.1,42.9,84.2,42.8,84.2z"/>
	<path fill="#BCBE02" d="M45.7,82.3c-0.8,0.7-1.7,1.3-2.6,1.7c-0.2,0.1-0.4,0.2-0.5,0.3c-0.1,0-0.1,0.1-0.2,0.1l-0.3,0.1
		c1.8,0.4,3.4,0.5,4.6,0.3c16.6-2.1,31.1-27.3,16.1-42.4C52.2,32,57.4,22.1,57.4,22.1l-1.1,1c-2.9,2.5-5.5,4.9-7.9,7.2
		c0.4,0.5,0.9,0.9,1.4,1.4c5,4.8,7.5,11.2,8.1,17.9c0.1,1.3,0.2,2.7,0.1,4C57.8,65.1,52.5,76.9,45.7,82.3z"/>
	<path fill="#17759F" d="M42,84.5c0.7,0.6-1.8-20.3-1.8-20.3C35.4,78.3,41.3,83.9,42,84.5z"/>
	<polygon fill="#FFFFFF" points="100.3,50.9 100.3,45.4 80.6,45.4 80.6,74.3 100.3,74.3 100.3,68.8 87.9,68.8 87.9,61.5 99.3,61.5 
		99.3,56 87.9,56 87.9,50.9 	"/>
	<path fill="#FFFFFF" d="M112.3,43.9c-2.9,0-5,0.7-6.4,2c-1.4,1.3-2.1,3.3-2.1,6v0.6h-2.7v4.7h2.7v17.1h6.9V57.2h5.2v-4.7h-5.5v-0.2
		c0-1.4,0.3-2.3,0.8-2.8c0.5-0.5,1.4-0.8,2.8-0.8c0.5,0,1,0.1,1.6,0.2c0.6,0.1,1,0.2,1.2,0.3h0.5v-4.9c-0.6-0.1-1.4-0.2-2.2-0.3
		C114.2,43.9,113.3,43.9,112.3,43.9z"/>
	<rect x="118.4" y="44.1" fill="#FFFFFF" width="7.3" height="5.3"/>
	<rect x="118.6" y="52.5" fill="#FFFFFF" width="6.9" height="21.8"/>
	<path fill="#FFFFFF" d="M142.2,53.5c-0.7-0.5-1.5-0.9-2.4-1.1c-0.9-0.3-1.9-0.4-3-0.4c-1.2,0-2.4,0.2-3.6,0.7
		c-1.2,0.5-2.1,1.2-2.9,2.1c-0.8,1-1.5,2.1-2,3.5c-0.5,1.4-0.7,2.9-0.7,4.6c0,3.8,0.8,6.6,2.3,8.4c1.5,1.8,3.7,2.8,6.6,2.8
		c1.1,0,2.1-0.2,3.1-0.6c1-0.4,1.9-0.9,2.7-1.6v0.4c0,0.9-0.1,1.7-0.2,2.3c-0.2,0.6-0.4,1.1-0.8,1.6c-0.4,0.4-1,0.8-1.8,1
		c-0.8,0.2-1.7,0.4-2.9,0.4c-0.6,0-1.1,0-1.6-0.1c-0.5-0.1-1.1-0.2-1.6-0.3c-0.5-0.1-0.9-0.3-1.4-0.4c-0.5-0.2-0.9-0.3-1.2-0.4h-0.8
		v5.5c1,0.2,2.1,0.5,3.4,0.7c1.3,0.2,2.7,0.3,4.2,0.3c1.7,0,3.3-0.2,4.7-0.5c1.4-0.4,2.6-0.9,3.7-1.7c1-0.8,1.8-1.9,2.4-3.3
		c0.6-1.4,0.9-3.1,0.9-5.2V52.5h-6.6L142.2,53.5z M142.3,67.4c-0.5,0.4-1.1,0.7-1.7,0.9c-0.6,0.2-1.2,0.3-1.8,0.3
		c-0.8,0-1.5-0.1-2-0.4c-0.5-0.3-1-0.6-1.3-1.1c-0.3-0.5-0.6-1.1-0.7-1.7c-0.1-0.7-0.2-1.5-0.2-2.4c0-1.9,0.4-3.4,1.2-4.4
		c0.8-1.1,2.1-1.6,3.7-1.6c0.5,0,1,0.1,1.5,0.2c0.5,0.1,0.9,0.2,1.3,0.4V67.4z"/>
	<path fill="#FFFFFF" d="M159.4,60.5c-1.7,0.2-3.2,0.6-4.5,1.2c-1.2,0.6-2.2,1.4-2.8,2.4c-0.7,1-1,2.3-1,3.9c0,2,0.6,3.6,1.9,4.9
		c1.3,1.3,2.9,1.9,4.9,1.9c1,0,1.9-0.1,2.4-0.2c0.6-0.2,1.2-0.4,1.8-0.7c0.6-0.3,1.1-0.6,1.5-0.9c0.4-0.3,0.8-0.7,1.3-1v2.3h6.8
		V59.5c0-2.6-0.9-4.5-2.6-5.7c-1.7-1.3-4.5-1.9-8.3-1.9c-1.5,0-3.1,0.1-4.6,0.4c-1.5,0.3-2.6,0.5-3.3,0.7v5.3h0.6
		c1-0.5,2.1-0.8,3.2-1.1c1.1-0.3,2-0.4,2.8-0.4c1.8,0,3.1,0.2,4,0.7c0.9,0.5,1.3,1.3,1.3,2.5V60C163,60.1,161.1,60.3,159.4,60.5z
		 M164.9,68.6c-0.5,0.5-1.1,0.9-1.7,1.1c-0.6,0.3-1.2,0.4-1.8,0.4c-1.1,0-1.9-0.2-2.5-0.6c-0.6-0.4-0.8-1.1-0.8-2.1
		c0-0.7,0.2-1.3,0.5-1.7c0.3-0.4,0.8-0.7,1.4-0.9c0.7-0.2,1.4-0.4,2.1-0.5c0.7-0.1,1.7-0.2,2.8-0.3V68.6z"/>
	<path fill="#FFFFFF" d="M184.5,69.8c-0.7,0.3-1.6,0.4-2.6,0.4c-0.9,0-1.8-0.1-2.6-0.3c-0.8-0.2-1.5-0.5-2.2-0.8
		c-0.7-0.3-1.3-0.6-1.7-0.9c-0.4-0.3-0.8-0.6-1.1-0.8h-0.6v5.8c0.9,0.5,2.1,0.9,3.6,1.2c1.4,0.4,3,0.5,4.6,0.5
		c1.8,0,3.3-0.2,4.6-0.6c1.3-0.4,2.4-0.9,3.3-1.6c0.9-0.6,1.6-1.4,2.1-2.3c0.5-0.9,0.7-1.9,0.7-2.9c0-1.6-0.4-2.9-1.2-3.9
		c-0.8-1-2-1.7-3.6-2.2c-0.7-0.2-1.4-0.4-2.2-0.6c-0.8-0.1-1.4-0.3-2-0.4c-1.1-0.3-1.9-0.6-2.2-0.8c-0.3-0.3-0.5-0.7-0.5-1.2
		c0-0.6,0.3-1,1-1.3c0.7-0.3,1.5-0.5,2.5-0.5c0.7,0,1.5,0.1,2.2,0.3c0.7,0.2,1.4,0.4,1.9,0.6c0.5,0.2,1,0.5,1.5,0.8
		c0.5,0.3,0.9,0.5,1.1,0.7h0.5v-5.5c-0.9-0.4-2-0.8-3.3-1.1c-1.3-0.3-2.7-0.5-4.3-0.5c-1.6,0-3.1,0.2-4.4,0.6
		c-1.3,0.4-2.4,0.9-3.2,1.6c-0.9,0.7-1.5,1.4-2,2.3c-0.5,0.9-0.7,1.8-0.7,2.8c0,1.7,0.4,3.1,1.3,4.1c0.9,1,2.2,1.8,3.9,2.4
		c0.6,0.2,1.3,0.4,2.1,0.5c0.8,0.1,1.5,0.3,2,0.4c1,0.2,1.6,0.5,2,0.7c0.3,0.3,0.5,0.6,0.5,1.1C185.6,69,185.3,69.5,184.5,69.8z"/>
	<path fill="#FFFFFF" d="M108.7,89.6c-0.1,0-0.1,0-0.2,0.1l-1.1,3.2c0,0.1,0,0.1,0,0.2c0,0,0.1,0.1,0.1,0.1h2.1c0.1,0,0.1,0,0.1-0.1
		c0,0,0-0.1,0-0.2l-1-3.2C108.8,89.7,108.8,89.6,108.7,89.6z M107.9,92.9l0.8-2.5l0.8,2.5H107.9z"/>
	<path fill="#FFFFFF" d="M109.8,85.1h-2.3c-0.1,0-0.1,0-0.2,0.1l-4.4,12.1c0,0.1,0,0.1,0,0.2c0,0,0.1,0.1,0.1,0.1h3.1
		c0.1,0,0.1,0,0.2-0.1l0.6-1.7h3.5l0.5,1.7c0,0.1,0.1,0.1,0.2,0.1h3.1c0.1,0,0.1,0,0.1-0.1c0,0,0-0.1,0-0.2l-4.4-12.1
		C109.9,85.1,109.8,85.1,109.8,85.1z M111.2,97.1l-0.5-1.7c0-0.1-0.1-0.1-0.2-0.1h-3.7c-0.1,0-0.1,0-0.2,0.1l-0.6,1.7h-2.7l4.3-11.7
		h2l4.3,11.7H111.2z"/>
	<path fill="#FFFFFF" d="M117.4,85.1h-2.8c-0.1,0-0.2,0.1-0.2,0.2v12.1c0,0.1,0.1,0.2,0.2,0.2h2.8c0.1,0,0.2-0.1,0.2-0.2v-5.5
		c0-0.4,0.1-0.6,0.3-0.8c0.2-0.1,0.3-0.2,0.6-0.2c0.2,0,0.4,0.1,0.6,0.2c0.2,0.2,0.3,0.5,0.3,0.8v5.5c0,0.1,0.1,0.2,0.2,0.2h2.8
		c0.1,0,0.2-0.1,0.2-0.2v-5.9c0-1-0.3-1.8-0.8-2.5c-0.6-0.7-1.3-1-2.3-1c-0.7,0-1.3,0.2-1.8,0.6v-3.3
		C117.5,85.1,117.5,85.1,117.4,85.1z M119.4,88.3c0.9,0,1.6,0.3,2.1,0.9c0.4,0.6,0.7,1.3,0.7,2.2v5.7h-2.4v-5.4
		c0-0.5-0.2-0.9-0.5-1.1c-0.2-0.2-0.5-0.3-0.8-0.3c-0.3,0-0.5,0.1-0.8,0.3c-0.3,0.2-0.5,0.6-0.5,1.1v5.4h-2.4V85.4h2.4v3.5
		c0,0.1,0,0.1,0.1,0.2c0.1,0,0.1,0,0.2,0C118,88.5,118.6,88.3,119.4,88.3z"/>
	<path fill="#FFFFFF" d="M123.4,97.5h2.8c0.1,0,0.2-0.1,0.2-0.2v-9.1c0-0.1-0.1-0.2-0.2-0.2h-2.8c-0.1,0-0.2,0.1-0.2,0.2v9.1
		C123.3,97.4,123.3,97.5,123.4,97.5z M123.6,88.4h2.4v8.8h-2.4V88.4z"/>
	<path fill="#FFFFFF" d="M127.4,83.8c0-0.1-0.1-0.1-0.2-0.1h-2.9c-0.1,0-0.2,0.1-0.2,0.1l-0.8,3.1c0,0.1,0,0.1,0,0.2
		c0,0,0.1,0.1,0.1,0.1h1.7c0.1,0,0.1,0,0.1-0.1l2-3.1C127.4,84,127.4,83.9,127.4,83.8z M125.1,86.8h-1.4l0.7-2.7h2.4L125.1,86.8z"/>
	<path fill="#FFFFFF" d="M134.1,95.1c-1,0-1.7-0.3-2.2-0.8l-1.8,1.8c0.6,0.6,1.2,0.9,1.9,1.1c0.5,0.1,1.2,0.2,2,0.2
		c1.1,0,2.1-0.2,2.8-0.7c0.8-0.6,1.2-1.3,1.2-2.4c0-0.8-0.2-1.4-0.7-1.9c-0.5-0.5-1.2-0.8-2.1-0.9l-1.4-0.1c-0.4,0-0.6-0.2-0.6-0.5
		c0-0.4,0.3-0.5,0.9-0.5c0.9,0,1.6,0.2,1.9,0.5l1.7-1.7c-0.7-0.7-1.9-1.1-3.6-1.1c-1,0-1.8,0.2-2.5,0.7c-0.8,0.6-1.1,1.3-1.1,2.3
		c0,1.6,0.9,2.5,2.7,2.6l1.4,0.1c0.4,0,0.7,0.2,0.7,0.6C135.3,94.9,134.9,95.1,134.1,95.1z"/>
	<path fill="#FFFFFF" d="M141.2,84.9c-0.3-0.3-0.7-0.5-1.2-0.5s-0.9,0.2-1.2,0.5c-0.3,0.3-0.5,0.7-0.5,1.2c0,0.5,0.2,0.9,0.5,1.2
		c0.3,0.3,0.7,0.5,1.2,0.5s0.9-0.2,1.2-0.5c0.3-0.3,0.5-0.7,0.5-1.2C141.7,85.6,141.5,85.2,141.2,84.9z"/>
	<rect x="138.6" y="88.5" fill="#FFFFFF" width="2.8" height="8.8"/>
	<path fill="#FFFFFF" d="M150.3,92.4c0-1.2-0.4-2.3-1.1-3.1c-0.8-0.8-1.8-1.3-3.1-1.3c-1.2,0-2.2,0.4-2.9,1.2
		c-0.8,0.8-1.2,2-1.2,3.5c0,3.1,1.4,4.7,4.3,4.7c0.8,0,1.5-0.1,2.1-0.4c0.5-0.2,1-0.6,1.5-1.1l-1.7-1.7c-0.5,0.5-1.1,0.8-1.9,0.8
		c-0.5,0-0.9-0.1-1.2-0.4c-0.3-0.3-0.4-0.6-0.4-1h5.5V92.4z M144.9,91.8c0-0.2,0.1-0.5,0.2-0.7c0.2-0.5,0.6-0.7,1.2-0.7
		c0.4,0,0.7,0.1,1,0.4c0.2,0.3,0.4,0.6,0.4,1H144.9z"/>
	<path fill="#FFFFFF" d="M151.1,97.3h2.8v-5.5c0-0.5,0.1-0.8,0.4-1c0.2-0.2,0.4-0.2,0.7-0.2c0.3,0,0.5,0.1,0.7,0.2
		c0.3,0.2,0.4,0.6,0.4,1v5.5h2.8v-5.5c0-0.5,0.1-0.8,0.4-1c0.2-0.2,0.4-0.2,0.7-0.2c0.3,0,0.5,0.1,0.7,0.2c0.3,0.2,0.4,0.6,0.4,1
		v5.5h2.8v-5.8c0-1.1-0.3-1.9-1-2.6c-0.5-0.5-1.3-0.8-2.2-0.8c-1,0-1.8,0.3-2.6,1c-0.6-0.6-1.3-1-2.2-1c-0.9,0-1.6,0.3-2.1,0.8v-0.7
		h-2.7V97.3z"/>
	<path fill="#FFFFFF" d="M165.1,88.2v12.1h2.8v-3.6c0.5,0.5,1.2,0.8,2,0.8c0.9,0,1.7-0.3,2.2-0.8c0.4-0.4,0.7-1,0.8-1.7
		c0.1-0.4,0.1-1.1,0.1-2.1c0-1,0-1.7-0.1-2.1c-0.1-0.8-0.4-1.4-0.8-1.7c-0.6-0.6-1.3-0.8-2.2-0.8c-0.8,0-1.5,0.3-2.1,0.8v-0.7H165.1
		z M168.1,91.2c0.2-0.4,0.5-0.6,1-0.6c0.5,0,0.8,0.2,1,0.6c0.1,0.3,0.2,0.8,0.2,1.6c0,0.8-0.1,1.3-0.2,1.6c-0.2,0.4-0.5,0.6-1,0.6
		c-0.5,0-0.8-0.2-1-0.6c-0.1-0.3-0.2-0.8-0.2-1.6C167.9,92,168,91.5,168.1,91.2z"/>
	<path fill="#FFFFFF" d="M174,88.2v9.1h2.8v-5.5c0-0.5,0.1-0.8,0.4-1c0.2-0.2,0.4-0.2,0.7-0.2c0.4,0,0.7,0.2,1,0.5l2.1-2.1
		c-0.6-0.6-1.3-0.8-2.1-0.8c-0.9,0-1.6,0.3-2.2,0.8v-0.7H174z"/>
	<path fill="#FFFFFF" d="M188.7,92.4c0-1.2-0.4-2.3-1.1-3.1c-0.8-0.8-1.8-1.3-3.1-1.3c-1.2,0-2.2,0.4-2.9,1.2
		c-0.8,0.8-1.2,2-1.2,3.5c0,3.1,1.4,4.7,4.3,4.7c0.8,0,1.5-0.1,2.1-0.4c0.5-0.2,1-0.6,1.5-1.1l-1.7-1.7c-0.5,0.5-1.1,0.8-1.9,0.8
		c-0.5,0-0.9-0.1-1.2-0.4c-0.3-0.3-0.4-0.6-0.4-1h5.5V92.4z M183.2,91.8c0-0.2,0.1-0.5,0.2-0.7c0.2-0.5,0.6-0.7,1.2-0.7
		c0.4,0,0.7,0.1,1,0.4c0.2,0.3,0.4,0.6,0.4,1H183.2z"/>
	<path fill="#FFFFFF" d="M190.9,93.8c-0.5,0-0.9,0.2-1.3,0.5c-0.4,0.3-0.5,0.8-0.5,1.3c0,0.5,0.2,0.9,0.5,1.3
		c0.4,0.4,0.8,0.5,1.3,0.5c0.5,0,0.9-0.2,1.3-0.5c0.3-0.4,0.5-0.8,0.5-1.3c0-0.5-0.2-0.9-0.5-1.3C191.8,94,191.4,93.8,190.9,93.8z"
		/>
</g>
</svg>